<svg xmlns="http://www.w3.org/2000/svg" viewBox="-6 40 210 200" fill="none">
  <defs>
    <linearGradient id="copper" x1="0%" y1="0%" x2="100%" y2="100%">
      <stop offset="0%" stop-color="#D4956A"/>
      <stop offset="45%" stop-color="#C26D45"/>
      <stop offset="100%" stop-color="#8B4A2D"/>
    </linearGradient>
  </defs>

  <!-- O letter - larger elegant oval -->
  <path d="M 58 58 C 90 58, 114 84, 114 120 C 114 156, 90 182, 58 182 C 26 182, 2 156, 2 120 C 2 84, 26 58, 58 58 Z"
        stroke="url(#copper)" stroke-width="8" fill="none"/>

  <!-- K letter -->
  <!-- Vertical stem -->
  <path d="M 132 52 L 132 188" stroke="url(#copper)" stroke-width="8" stroke-linecap="round"/>
  <!-- Upper arm - sweeping curve -->
  <path d="M 132 118 C 142 118, 152 106, 160 94 C 168 82, 174 68, 182 56 C 185 51, 188 48, 192 46"
        stroke="url(#copper)" stroke-width="8" stroke-linecap="round" fill="none"/>
  <!-- Lower arm -->
  <path d="M 142 126 C 152 138, 162 152, 172 164 C 178 172, 184 180, 192 188"
        stroke="url(#copper)" stroke-width="8" stroke-linecap="round" fill="none"/>
</svg>
