<svg width="491" height="49" viewBox="0 0 491 49" fill="none" xmlns="http://www.w3.org/2000/svg">
<mask id="mask0_1_730" style="mask-type:luminance" maskUnits="userSpaceOnUse" x="0" y="0" width="491" height="49">
<path d="M0 0H490.608V48.7571H0V0Z" fill="white"/>
</mask>
<g mask="url(#mask0_1_730)">
<path d="M20.923 9.01192C20.9585 8.85408 20.9585 8.69033 20.923 8.53249C20.8858 8.39246 20.804 8.26835 20.69 8.17894C20.532 8.07399 20.3434 8.02496 20.1543 8.03967H14.1038C13.8345 8.04122 13.571 8.11823 13.3432 8.26197C13.2144 8.34867 13.1052 8.46139 13.0226 8.59286C12.94 8.72433 12.8859 8.87165 12.8638 9.02531L11.6451 13.8464C11.613 13.9883 11.5755 14.1598 11.5272 14.3633C11.4823 14.5475 11.4589 14.7362 11.4576 14.9258C11.4538 15.0837 11.4987 15.2389 11.5862 15.3704C11.6439 15.4394 11.7181 15.4927 11.8019 15.5255C11.8857 15.5583 11.9764 15.5694 12.0656 15.5579H17.1974C17.4561 15.5692 17.7101 15.4864 17.9125 15.3248C18.1315 15.1064 18.3126 14.8529 18.4482 14.5749L20.7569 9.53152C20.8358 9.36112 20.8916 9.18098 20.923 8.99585M22.5862 33.2807C22.5939 34.2728 22.4027 35.2564 22.0238 36.1733C21.6663 37.047 21.1361 37.8396 20.465 38.5035C19.0645 39.8862 17.1727 40.6568 15.2046 40.6462C14.2489 40.6581 13.302 40.4616 12.4299 40.0703C11.6155 39.7045 10.8859 39.1737 10.2872 38.5115C9.68006 37.8339 9.21471 37.0416 8.91851 36.1813C8.27567 34.3184 8.27567 32.2938 8.91851 30.4309C9.22044 29.5555 9.68477 28.745 10.2872 28.0418C10.8798 27.3546 11.6097 26.799 12.4299 26.4106C13.2965 26.01 14.2419 25.8087 15.1966 25.8214C16.2 25.8132 17.1939 26.0168 18.1134 26.4187C18.9934 26.8045 19.7895 27.3586 20.4569 28.0498C21.1235 28.74 21.6526 29.5508 22.0158 30.4389C22.3908 31.3448 22.582 32.3163 22.5782 33.2967M31.3633 47.1787C31.4579 46.9354 31.506 46.6765 31.5052 46.4154V20.012C31.5094 19.755 31.4611 19.4998 31.3633 19.2621C31.2592 19.03 31.0979 18.8282 30.8946 18.6755C30.7298 18.5074 30.5177 18.3934 30.2866 18.3487C30.0856 18.3066 29.8812 18.2833 29.6759 18.2791H26.194C25.9507 18.2725 25.7073 18.2922 25.4682 18.338C25.3039 18.3717 25.1531 18.4527 25.0343 18.571C24.892 18.727 24.7811 18.9089 24.7075 19.1067C24.6031 19.3504 24.4745 19.6665 24.3192 20.0575L23.6415 22.2002C23.211 21.582 22.7154 21.0118 22.1631 20.4995C21.5979 19.9748 20.9678 19.5247 20.2882 19.1603C19.5607 18.7746 18.7903 18.4761 17.9928 18.2711C17.109 18.0455 16.1998 17.9348 15.2877 17.9416C13.2791 17.9287 11.2879 18.3145 9.42955 19.0768C7.57119 19.8391 5.88261 20.9627 4.46169 22.3824C3.07493 23.7845 1.9694 25.4392 1.20479 27.257C0.398431 29.1732 -0.00806088 31.2339 0.0102348 33.3128C0.00396969 34.709 0.184119 36.0997 0.54591 37.4482C0.890965 38.7392 1.40425 39.9792 2.07258 41.1363C2.73074 42.2676 3.52993 43.3107 4.45098 44.2406C6.74866 46.5511 9.73328 48.0546 12.9575 48.526C16.4876 48.4456 24.4745 47.2484 26.4699 36.3661C26.6654 40.2391 25.6182 44.0236 23.3871 46.8814C23.4139 46.9511 23.438 47.0234 23.4648 47.0904C23.5393 47.2969 23.6459 47.4903 23.7808 47.6635C23.9121 47.8242 24.0815 47.9494 24.2736 48.0278C24.5303 48.1235 24.8034 48.1672 25.0771 48.1564H29.692C29.8973 48.1522 30.1017 48.1289 30.3026 48.0867C30.5336 48.0399 30.7453 47.9251 30.9106 47.7573C31.1253 47.6226 31.2899 47.4212 31.3793 47.1841M45.5426 47.6983C45.7174 47.5242 45.8529 47.3145 45.9398 47.0834C46.0266 46.8524 46.0629 46.6054 46.0461 46.3592V11.3448C46.0495 11.0937 45.9973 10.8449 45.8935 10.6163C45.7986 10.4103 45.6721 10.2205 45.5185 10.0538C45.381 9.90617 45.2188 9.78379 45.0391 9.69222C44.8869 9.61199 44.7182 9.56799 44.5462 9.56366H38.7984C38.1878 9.56366 37.7583 9.73508 37.5101 10.0779C37.2512 10.4484 37.1196 10.893 37.1352 11.3448V46.3458C37.1018 46.8221 37.2343 47.2952 37.5101 47.685C37.7601 47.9903 38.1896 48.143 38.7984 48.143H44.2329C44.7092 48.1613 45.1747 47.9976 45.5346 47.685M60.0594 47.685C60.2347 47.5111 60.3704 47.3014 60.4573 47.0703C60.5442 46.8392 60.5802 46.5921 60.5629 46.3458V11.3448C60.5663 11.0937 60.5141 10.8449 60.4102 10.6163C60.3164 10.4098 60.1897 10.2199 60.0353 10.0538C59.8978 9.90617 59.7356 9.78379 59.5558 9.69222C59.4039 9.61134 59.2351 9.5673 59.063 9.56366H53.3233C52.7153 9.56366 52.2841 9.73508 52.035 10.0779C51.7773 10.449 51.6458 10.8932 51.66 11.3448V46.3458C51.6279 46.8219 51.7603 47.2947 52.035 47.685C52.2841 47.9903 52.7153 48.143 53.3233 48.143H58.7604C59.2361 48.1628 59.7013 47.9988 60.0594 47.685ZM87.8823 33.2887C87.89 34.2808 87.6987 35.2644 87.3199 36.1813C86.9624 37.0551 86.4322 37.8476 85.761 38.5115C84.3606 39.8943 82.4688 40.6649 80.5007 40.6542C79.5449 40.6662 78.598 40.4696 77.7259 40.0784C76.9116 39.7125 76.182 39.1817 75.5832 38.5196C74.9762 37.8414 74.5101 37.0493 74.2119 36.1894C73.5726 34.3259 73.5726 32.3024 74.2119 30.4389C74.5158 29.5639 74.9809 28.7535 75.5832 28.0498C76.1759 27.3626 76.9057 26.807 77.7259 26.4187C78.5944 26.0141 79.5427 25.81 80.5007 25.8214C81.5042 25.8132 82.498 26.0168 83.4175 26.4187C84.2975 26.8045 85.0936 27.3586 85.761 28.0498C86.4276 28.74 86.9567 29.5508 87.3199 30.4389C87.6949 31.3448 87.8861 32.3163 87.8823 33.2967M96.6674 47.1787C96.762 46.9354 96.8101 46.6765 96.8093 46.4154V20.012C96.8135 19.755 96.7652 19.4998 96.6674 19.2621C96.5633 19.03 96.402 18.8282 96.1987 18.6755C96.0339 18.5074 95.8218 18.3934 95.5907 18.3487C95.3897 18.3066 95.1853 18.2833 94.98 18.2791H91.4981C91.2548 18.2725 91.0114 18.2922 90.7723 18.338C90.608 18.3717 90.4572 18.4527 90.3384 18.571C90.1962 18.727 90.0852 18.9089 90.0116 19.1067C89.9072 19.3504 89.7786 19.6665 89.6233 20.0575L88.9456 22.2002C88.5151 21.582 88.0195 21.0118 87.4672 20.4995C86.9015 19.9754 86.2715 19.5253 85.5923 19.1603C84.8648 18.7746 84.0944 18.4761 83.297 18.2711C82.4131 18.0455 81.5039 17.9348 80.5918 17.9416C78.5832 17.9287 76.592 18.3145 74.7337 19.0768C72.8753 19.8391 71.1867 20.9627 69.7658 22.3824C68.379 23.7845 67.2735 25.4392 66.5089 27.257C65.7025 29.1732 65.296 31.2339 65.3143 33.3128C65.3081 34.709 65.4882 36.0997 65.85 37.4482C66.5406 40.0153 67.8894 42.3576 69.7631 44.2432C71.6244 46.1207 73.9479 47.4742 76.4992 48.1671C77.0838 48.3272 77.6777 48.4507 78.2777 48.5367C81.7837 48.467 89.8188 47.3073 91.8356 36.3769C92.0311 40.2712 90.9732 44.0745 88.7153 46.9377C88.7367 46.9913 88.7581 47.0502 88.7769 47.1011C88.8514 47.3076 88.9581 47.501 89.0929 47.6742C89.2242 47.8349 89.3937 47.9601 89.5858 48.0385C89.8424 48.1342 90.1156 48.1779 90.3893 48.1671H95.0041C95.2094 48.1629 95.4138 48.1396 95.6148 48.0974C95.8457 48.0506 96.0574 47.9359 96.2228 47.768C96.4374 47.6333 96.6021 47.432 96.6915 47.1948M117.709 26.1321C118.019 25.8267 118.175 25.3464 118.175 24.6911V20.154C118.194 19.9106 118.162 19.666 118.082 19.4355C118.002 19.205 117.875 18.9936 117.709 18.8148C117.542 18.6615 117.346 18.5431 117.132 18.4668C116.919 18.3904 116.692 18.3576 116.466 18.3702H113.252L113.279 11.9421C113.301 11.4777 113.2 11.0158 112.987 10.6029C112.79 10.269 112.404 10.1011 111.827 10.0993H111.618C111.543 10.0998 111.469 10.1079 111.396 10.1234L106.077 11.9742C105.589 12.1369 105.128 12.3696 104.708 12.6652C104.545 12.7936 104.416 12.9598 104.332 13.1493C104.248 13.3387 104.212 13.5458 104.226 13.7526L104.212 18.3702H101.802C100.6 18.3702 99.9984 18.9639 99.9966 20.1513V24.6724C99.9966 25.9366 100.598 26.5687 101.802 26.5687H104.212L104.234 46.3431C104.234 47.5466 104.836 48.1483 106.039 48.1483H111.334C111.85 48.1791 112.36 48.0157 112.762 47.6903C112.941 47.5185 113.08 47.3095 113.169 47.0781C113.258 46.8467 113.296 46.5986 113.279 46.3511L113.255 26.5767H116.469C116.692 26.5855 116.914 26.5498 117.124 26.4716C117.333 26.3934 117.525 26.2744 117.687 26.1214M142.709 33.3021C142.716 34.285 142.562 35.2623 142.251 36.1947C141.972 37.0508 141.526 37.8428 140.938 38.5249C140.363 39.1876 139.653 39.7192 138.854 40.0837C137.99 40.4766 137.05 40.6733 136.101 40.6596C135.129 40.6748 134.166 40.4783 133.278 40.0837C132.462 39.7213 131.731 39.1901 131.135 38.5249C130.534 37.8453 130.072 37.0534 129.777 36.1947C129.135 34.3318 129.135 32.3072 129.777 30.4443C130.078 29.5704 130.538 28.7602 131.135 28.0552C131.725 27.3651 132.456 26.8089 133.278 26.424C134.163 26.0161 135.127 25.812 136.101 25.8267C137.023 25.8093 137.937 26.0008 138.775 26.3867C139.613 26.7726 140.352 27.343 140.938 28.0552C141.521 28.7625 141.966 29.5729 142.251 30.4443C142.558 31.3654 142.713 32.3309 142.709 33.3021ZM150.966 37.4375C151.34 36.0892 151.529 34.696 151.526 33.2967C151.545 31.2165 151.134 29.1547 150.318 27.2409C149.547 25.4215 148.434 23.7668 147.04 22.3663C145.611 20.9474 143.916 19.8248 142.052 19.0627C140.188 18.3006 138.192 17.9142 136.179 17.9255C134.783 17.9195 133.392 18.0996 132.043 18.4612C130.75 18.8045 129.507 19.314 128.345 19.9772C127.209 20.6287 126.165 21.4285 125.24 22.3556C123.356 24.2326 121.998 26.5723 121.303 29.1399C120.754 31.1383 120.608 33.2259 120.873 35.2813C121.138 37.3367 121.81 39.3188 122.848 41.1122C123.509 42.2457 124.313 43.289 125.24 44.2165C127.121 46.0975 129.464 47.4507 132.033 48.1403C133.381 48.5019 134.772 48.682 136.168 48.676C138.844 48.6951 141.479 48.0082 143.805 46.6845C146.131 45.3608 148.067 43.4471 149.418 41.1363C150.089 39.9775 150.609 38.737 150.963 37.4455M179.231 23.4939C179.466 23.1365 179.604 22.7237 179.63 22.2967C179.63 21.761 179.293 21.3057 178.623 20.9173C177.935 20.4173 177.299 19.9799 176.713 19.6049C176.153 19.2424 175.56 18.9322 174.943 18.6782C174.338 18.4369 173.709 18.2574 173.068 18.1425C172.322 18.009 171.565 17.9454 170.807 17.9523H170.489C166.9 19.1094 162.834 22.0449 161.479 29.3809C161.288 26.295 161.977 23.2183 163.463 20.5075C163.37 20.2159 163.26 19.9297 163.134 19.6504C162.991 19.32 162.788 19.0186 162.537 18.7612C162.413 18.6414 162.266 18.5482 162.105 18.4874C161.943 18.4266 161.771 18.3994 161.599 18.4077H158.05C157.824 18.4098 157.599 18.446 157.383 18.5148C157.163 18.5808 156.956 18.6881 156.775 18.8308C156.591 18.9735 156.443 19.1568 156.342 19.3665C156.226 19.608 156.169 19.8731 156.175 20.1406V46.3565C156.175 47.56 156.785 48.1617 158.005 48.1617H163.276C163.947 48.1617 164.428 48.009 164.717 47.7037C165.03 47.3306 165.186 46.8503 165.151 46.3645V29.3836C165.477 28.848 165.807 28.3685 166.134 27.9319C166.441 27.5174 166.795 27.1399 167.189 26.807C167.562 26.4952 167.986 26.2496 168.442 26.0812C168.958 25.8968 169.502 25.8061 170.049 25.8134C170.868 25.7985 171.68 25.963 172.428 26.2955C173.19 26.6632 173.883 27.1587 174.477 27.7605C174.807 27.9211 175.166 28.0123 175.532 28.0284C175.85 28.0216 176.16 27.9342 176.435 27.7744C176.709 27.6147 176.939 27.3878 177.102 27.115L179.231 23.4939ZM209.689 19.6611C209.737 19.4468 209.72 19.2231 209.641 19.0183C209.548 18.8155 209.38 18.6563 209.172 18.5737C208.844 18.4467 208.493 18.3902 208.141 18.4077H201.981C201.599 18.3886 201.22 18.4817 200.891 18.6755C200.568 18.937 200.328 19.2869 200.2 19.6826L195.232 35.5894C195.122 35.3216 194.964 34.8368 194.728 34.1726C194.492 33.5083 194.246 32.7289 193.957 31.829C193.667 30.9291 193.351 29.9541 193.008 28.8828L191.969 25.6232C191.612 24.5376 191.276 23.4796 190.962 22.4493C190.648 21.419 190.355 20.4896 190.084 19.6611C189.979 19.2852 189.752 18.9552 189.438 18.7237C189.126 18.5004 188.75 18.3848 188.367 18.3943H182.367C181.633 18.3943 181.167 18.6219 180.975 19.0746C180.782 19.5272 180.835 20.0736 181.149 20.7137L191.951 47.1439C192.065 47.4407 192.264 47.6971 192.524 47.8805C192.792 48.0599 193.223 48.1483 193.847 48.1483H196.635C197.01 48.1764 197.383 48.0732 197.69 47.8564C197.931 47.6528 198.136 47.4112 198.298 47.1412L209.451 20.4084C209.555 20.1623 209.633 19.9066 209.687 19.6451M232.721 33.3048C232.729 34.2875 232.575 35.2649 232.265 36.1974C231.986 37.053 231.54 37.8449 230.953 38.5276C230.377 39.1903 229.665 39.7219 228.867 40.0864C228.003 40.4793 227.062 40.6759 226.113 40.6623C225.142 40.6774 224.178 40.4809 223.29 40.0864C222.474 39.7233 221.744 39.1921 221.147 38.5276C220.547 37.8468 220.086 37.0552 219.79 36.1974C219.15 34.3339 219.15 32.3105 219.79 30.4469C220.092 29.5741 220.552 28.7643 221.147 28.0578C221.738 27.3683 222.468 26.8123 223.29 26.4267C224.175 26.0191 225.139 25.815 226.113 25.8294C227.036 25.8124 227.95 26.004 228.788 26.3898C229.626 26.7757 230.366 27.3459 230.953 28.0578C231.535 28.7659 231.98 29.5761 232.265 30.4469C232.572 31.3683 232.726 32.3337 232.721 33.3048ZM240.984 37.4321C241.349 36.0844 241.529 34.6931 241.519 33.2967C241.538 31.2168 241.127 29.1553 240.314 27.2409C239.541 25.4219 238.427 23.7674 237.033 22.3663C235.605 20.9467 233.911 19.8235 232.047 19.0614C230.184 18.2992 228.188 17.9132 226.175 17.9255C223.431 17.9167 220.732 18.6279 218.349 19.9879C217.213 20.6401 216.169 21.4398 215.244 22.3663C213.362 24.2452 212.005 26.5842 211.307 29.1506C210.756 31.1514 210.61 33.2419 210.876 35.3C211.143 37.358 211.818 39.3422 212.861 41.1363C214.873 44.6006 218.175 47.1273 222.045 48.1644C223.393 48.5262 224.784 48.7063 226.18 48.7001C228.908 48.7138 231.589 47.9981 233.947 46.627C236.22 45.3029 238.109 43.4108 239.43 41.1363C240.105 39.9737 240.627 38.7286 240.984 37.4321ZM267.387 43.1371C268.017 41.8482 268.331 40.4279 268.303 38.9936C268.34 37.6467 268.097 36.3067 267.588 35.0591C267.125 34.0012 266.442 33.0542 265.584 32.2816C264.675 31.4777 263.648 30.8182 262.539 30.3264C261.279 29.7616 259.988 29.2689 258.672 28.8506C258.267 28.7338 257.856 28.6364 257.442 28.5587C257.013 28.4762 256.591 28.3625 256.178 28.2185C255.812 28.0957 255.471 27.9089 255.171 27.6668C255.033 27.5492 254.921 27.4041 254.842 27.2409C254.763 27.0777 254.719 26.8998 254.713 26.7186C254.685 26.4756 254.73 26.2298 254.842 26.0126C254.955 25.7955 255.13 25.6169 255.345 25.5C255.909 25.2085 256.54 25.0709 257.174 25.1009C257.841 25.111 258.504 25.2175 259.14 25.417C259.868 25.6438 260.518 26.0707 261.015 26.649C261.136 26.8013 261.278 26.9349 261.438 27.0454C261.587 27.1516 261.753 27.2313 261.928 27.2811C262.104 27.3232 262.288 27.3232 262.464 27.2811C262.672 27.2318 262.864 27.1315 263.024 26.9892C263.618 26.3946 264.193 25.8589 264.749 25.3821C265.3 24.9 265.884 24.4072 266.492 23.9064C266.851 23.5957 267.028 23.301 267.028 23.0278C266.994 22.6972 266.85 22.3876 266.618 22.1493C265.936 21.4298 265.195 20.7678 264.403 20.17C263.694 19.6353 262.929 19.1799 262.121 18.8121C261.334 18.4573 260.508 18.1975 259.66 18.038C257.265 17.6116 254.804 17.7399 252.466 18.413C251.226 18.781 250.066 19.3769 249.045 20.17C248.113 20.9004 247.36 21.8339 246.844 22.8993C246.32 24.0024 246.056 25.211 246.072 26.4321C246.067 27.5009 246.21 28.5653 246.496 29.5952C246.791 30.6213 247.298 31.5745 247.982 32.3941C248.797 33.3469 249.778 34.1445 250.877 34.7484C252.339 35.5482 253.899 36.155 255.516 36.5536C256.109 36.7411 256.645 36.9054 257.123 37.0465C257.541 37.163 257.945 37.3237 258.329 37.5259C258.629 37.68 258.886 37.9053 259.079 38.1821C259.269 38.4953 259.362 38.8579 259.346 39.224C259.358 39.4337 259.323 39.6434 259.244 39.8379C259.165 40.0324 259.043 40.2069 258.888 40.3489C258.572 40.619 258.2 40.8148 257.798 40.9221C257.366 41.0412 256.923 41.1122 256.475 41.1337C256.015 41.1578 255.634 41.1685 255.34 41.1685C255.102 41.152 254.866 41.1125 254.635 41.0506C254.228 40.9525 253.828 40.8235 253.441 40.6649C252.951 40.467 252.478 40.2324 252.024 39.9632C251.523 39.6654 251.062 39.3054 250.652 38.8919C250.342 38.5495 249.963 38.2759 249.541 38.0883C249.252 37.9937 248.92 38.1035 248.545 38.4178L245.51 41.4497C245.331 41.5785 245.19 41.7522 245.1 41.9532C245.013 42.1575 244.966 42.3766 244.961 42.5987C244.954 42.8414 244.993 43.0831 245.076 43.3112C245.167 43.562 245.298 43.7963 245.464 44.0049C246.1 44.8431 246.859 45.5808 247.714 46.1931C248.546 46.7887 249.445 47.2848 250.393 47.6716C251.327 48.0534 252.301 48.3319 253.296 48.5019C254.269 48.6742 255.254 48.7638 256.242 48.7697C257.855 48.783 259.461 48.562 261.01 48.1135C262.393 47.7234 263.691 47.0805 264.84 46.2172C265.909 45.4 266.778 44.3504 267.382 43.1478M294.361 33.3074C294.369 34.2903 294.214 35.2677 293.903 36.2001C293.624 37.0561 293.178 37.8482 292.59 38.5303C292.016 39.1936 291.305 39.7252 290.507 40.0891C289.643 40.482 288.702 40.6786 287.753 40.6649C286.782 40.6801 285.818 40.4836 284.93 40.0891C284.114 39.7267 283.384 39.1954 282.788 38.5303C282.186 37.8507 281.724 37.0588 281.43 36.2001C280.787 34.3372 280.787 32.3125 281.43 30.4496C281.73 29.5758 282.19 28.7656 282.788 28.0605C283.377 27.3704 284.108 26.8143 284.93 26.4294C285.815 26.0215 286.779 25.8174 287.753 25.8321C288.705 25.8189 289.646 26.0232 290.507 26.4294C291.311 26.8157 292.022 27.3723 292.59 28.0605C293.173 28.7679 293.618 29.5783 293.903 30.4496C294.211 31.3708 294.365 32.3362 294.361 33.3074ZM302.618 37.4429C302.989 36.0959 303.175 34.7046 303.17 33.3074C303.189 31.2275 302.778 29.166 301.965 27.2516C301.192 25.4326 300.078 23.7781 298.684 22.377C297.255 20.9582 295.56 19.8355 293.696 19.0734C291.832 18.3113 289.836 17.9249 287.823 17.9363C286.427 17.9302 285.036 18.1103 283.687 18.4719C282.398 18.8178 281.158 19.3291 279.999 19.9932C278.864 20.6447 277.82 21.4446 276.895 22.3716C275.01 24.2487 273.653 26.5884 272.958 29.156C272.409 31.1543 272.263 33.242 272.528 35.2974C272.793 37.3528 273.465 39.3349 274.503 41.1283C275.164 42.2617 275.967 43.3051 276.895 44.2325C278.776 46.1135 281.118 47.4668 283.687 48.1564C285.036 48.518 286.427 48.6981 287.823 48.692C290.501 48.7096 293.136 48.0202 295.463 46.6936C297.789 45.367 299.724 43.45 301.073 41.1363C301.744 39.9775 302.264 38.737 302.618 37.4455M329.48 33.6369C329.441 34.5939 329.214 35.534 328.813 36.4036C328.428 37.2402 327.893 37.9984 327.233 38.6401C326.564 39.2782 325.781 39.7835 324.924 40.1293C324.027 40.4899 323.068 40.6718 322.101 40.6649C321.144 40.6768 320.196 40.4803 319.323 40.0891C318.509 39.7239 317.779 39.193 317.181 38.5303C316.572 37.8534 316.105 37.061 315.809 36.2001C315.17 34.3366 315.17 32.3131 315.809 30.4496C316.111 29.5736 316.576 28.7629 317.181 28.0605C317.772 27.3725 318.503 26.8167 319.323 26.4294C320.193 26.0248 321.142 25.8206 322.101 25.8321C323.104 25.8242 324.098 26.0277 325.017 26.4294C325.897 26.8159 326.693 27.3699 327.361 28.0605C328.026 28.7515 328.554 29.5621 328.917 30.4496C329.292 31.3555 329.483 32.327 329.48 33.3074V33.6369ZM337.799 46.3592V11.3207C337.802 11.0677 337.741 10.818 337.622 10.5948C337.508 10.38 337.353 10.189 337.167 10.0324C336.982 9.87677 336.771 9.75361 336.545 9.66812C336.34 9.58665 336.121 9.54309 335.9 9.53956H330.629C330.376 9.52069 330.123 9.55692 329.886 9.64572C329.65 9.73452 329.435 9.87377 329.257 10.0538C328.952 10.4041 328.79 10.8562 328.802 11.3207V19.7093C330.61 22.4466 331.446 25.8696 331.271 29.3729C329.932 22.0663 325.883 19.1281 322.307 17.9577C322.039 17.9416 321.771 17.9309 321.503 17.9309C319.485 17.9099 317.485 18.3132 315.632 19.1147C313.888 19.8734 312.317 20.9819 311.018 22.3716C309.708 23.7889 308.682 25.4435 307.994 27.2463C306.544 31.1496 306.544 35.4438 307.994 39.3472C308.68 41.1539 309.707 42.8122 311.018 44.2325C312.319 45.6231 313.889 46.7348 315.632 47.5001C317.483 48.309 319.484 48.7161 321.503 48.6947C322.283 48.6989 323.058 48.5961 323.81 48.3894C324.515 48.1917 325.198 47.9224 325.848 47.5859C326.465 47.267 327.053 46.8941 327.605 46.4717C328.113 46.0866 328.594 45.6678 329.046 45.2182L329.49 46.3431C329.632 46.6404 329.758 46.9029 329.841 47.1279C329.92 47.3294 330.028 47.5188 330.16 47.6903C330.273 47.8379 330.421 47.9548 330.591 48.0305C330.823 48.119 331.071 48.1591 331.32 48.1483H335.91C337.176 48.1483 337.809 47.5466 337.809 46.3431M385.254 47.693C385.536 47.3057 385.672 46.8316 385.64 46.3538V31.0014C385.65 29.2917 385.441 27.5878 385.018 25.9312C384.648 24.443 384.005 23.0363 383.122 21.7824C382.279 20.6064 381.171 19.6457 379.887 18.9781C378.452 18.2623 376.864 17.9092 375.261 17.9497C374.856 17.9501 374.451 17.9724 374.048 18.0166C370.52 19.2272 366.599 22.1895 365.273 29.3676C365.079 26.2242 365.797 23.0916 367.341 20.3468V11.2859C367.337 11.0286 367.285 10.7745 367.188 10.5359C367.102 10.2915 366.943 10.0794 366.733 9.92792C366.373 9.70184 365.961 9.57267 365.536 9.55295H360.243C359.572 9.55295 359.087 9.71722 358.789 10.0458C358.481 10.4023 358.322 10.8635 358.345 11.3341V46.3458C358.32 46.824 358.479 47.2935 358.789 47.6582C359.087 47.9885 359.572 48.1528 360.243 48.151H365.528C365.737 48.1536 365.946 48.1302 366.149 48.0814C366.353 48.0206 366.547 47.9303 366.725 47.8135C366.935 47.6621 367.094 47.4499 367.18 47.2055C367.281 46.9495 367.333 46.677 367.333 46.402V30.9585C367.37 30.291 367.541 29.6379 367.837 29.0381C368.107 28.4846 368.469 27.981 368.908 27.5489C369.329 27.1421 369.822 26.817 370.362 26.5901C370.884 26.3666 371.445 26.2509 372.012 26.2499C372.655 26.2449 373.292 26.3678 373.887 26.6115C374.459 26.8451 374.981 27.188 375.422 27.6213C375.862 28.0541 376.215 28.5668 376.464 29.1319C376.725 29.7221 376.856 30.3614 376.849 31.0067V46.4931C376.849 47.1493 376.975 47.5885 377.227 47.8162C377.479 48.0439 377.937 48.1564 378.609 48.1564H384.019C384.246 48.1764 384.474 48.1457 384.687 48.0665C384.9 47.9872 385.093 47.8615 385.251 47.6983M419.494 40.065V20.1995C419.517 19.7216 419.359 19.2527 419.05 18.8871C418.753 18.5603 418.268 18.3943 417.598 18.3943H412.303C412.094 18.3913 411.885 18.4156 411.682 18.4666C411.477 18.526 411.283 18.6163 411.106 18.7344C410.895 18.8869 410.737 19.1 410.65 19.3451C410.55 19.6011 410.498 19.8736 410.498 20.1486V35.3939C410.52 36.1821 410.326 36.9614 409.935 37.6464C409.58 38.2518 409.1 38.7756 408.529 39.1838C407.975 39.5787 407.357 39.8758 406.703 40.0623C406.11 40.24 405.495 40.3347 404.876 40.3435C404.229 40.3488 403.589 40.2126 403.001 39.9445C402.423 39.6855 401.901 39.315 401.466 38.8544C401.027 38.3893 400.674 37.8497 400.424 37.2607C400.166 36.6564 400.034 36.0056 400.036 35.3484V20.0816C400.036 19.4245 399.912 18.9835 399.664 18.7585C399.416 18.5335 398.955 18.4193 398.282 18.4157H392.869C392.643 18.3955 392.415 18.4261 392.202 18.5054C391.989 18.5846 391.797 18.7105 391.639 18.8737C391.356 19.2602 391.218 19.7346 391.251 20.2129V35.56C391.241 37.2775 391.485 38.9871 391.977 40.6328C392.421 42.1416 393.148 43.5522 394.12 44.7896C395.059 45.972 396.248 46.9323 397.601 47.6019C398.6 48.0913 399.676 48.4066 400.781 48.534V48.5045C400.846 48.5218 400.914 48.5334 400.982 48.5394C404.244 48.5394 412.831 47.7358 414.925 36.3742C415.11 40.0168 414.194 43.5817 412.228 46.3699C412.288 46.592 412.364 46.8095 412.456 47.0207C412.545 47.2308 412.663 47.4274 412.807 47.6046C412.948 47.7752 413.123 47.9147 413.321 48.0144C413.548 48.1216 413.798 48.1739 414.049 48.1671H417.587C417.767 48.1625 417.947 48.1427 418.123 48.1081C417.453 47.0584 417.123 45.8276 417.178 44.5834C417.198 43.7074 417.416 42.8473 417.816 42.0675C418.216 41.2878 418.787 40.6087 419.486 40.0811M348.07 48.759C349.017 48.7616 349.944 48.4832 350.733 47.9589C351.522 47.4346 352.137 46.688 352.502 45.8137C352.866 44.9393 352.963 43.9765 352.78 43.0472C352.596 42.1179 352.142 41.2638 351.473 40.5931C350.804 39.9224 349.951 39.4652 349.022 39.2794C348.094 39.0937 347.13 39.1877 346.255 39.5495C345.38 39.9114 344.631 40.5249 344.105 41.3122C343.578 42.0996 343.297 43.0255 343.297 43.9727C343.297 45.2421 343.802 46.4595 344.699 47.3571C345.597 48.2547 346.814 48.759 348.084 48.759M488.682 13.8357C481.785 34.2663 458.813 37.1723 451.209 36.4385C451.04 36.4224 449.436 36.1706 449.281 36.1358L449.838 41.9157C449.996 41.9318 450.106 41.9506 450.261 41.9666C472.548 44.1093 488.205 28.5239 488.682 13.8437" fill="#103B5D"/>
<path d="M471.813 26.916C474.125 26.6481 481.951 24.2189 484.876 16.2025C480.62 21.744 474.941 25.9705 471.813 26.9294M480.853 37.1179C486.477 33.861 491.612 32.2299 490.439 18.7255C490.599 28.5391 485.617 33.2343 480.853 37.1179ZM448.506 36.2956C448.332 40.2382 448.45 44.2584 445.916 47.7457H454.701C454.92 47.736 455.136 47.6954 455.344 47.6252C455.825 47.4946 456.241 47.1907 456.512 46.772C456.783 46.3532 456.89 45.8492 456.812 45.3566C456.754 44.8814 456.528 44.4426 456.175 44.1197C455.822 43.7969 455.364 43.6114 454.886 43.5969C454.396 43.5674 453.9 43.5969 453.381 43.5969C455.009 37.2465 452.963 32.1977 448.517 31.504C448.517 33.1111 448.576 34.7181 448.517 36.3064M420.533 45.5575C420.512 45.8331 420.548 46.11 420.639 46.3712C420.729 46.6323 420.872 46.872 421.06 47.0755C421.247 47.2789 421.474 47.4417 421.726 47.5538C421.979 47.6659 422.252 47.7248 422.528 47.7269C425.475 47.7912 428.421 47.7484 431.635 47.7484C430.392 46.5377 429.918 45.2441 429.621 43.8781C428.788 40.0695 428.662 36.2073 428.868 32.3316C428.919 31.413 428.632 31.3621 427.904 31.6942C425.124 32.9637 423.726 35.2216 423.257 38.1437C422.962 39.9864 423.321 41.7622 424.06 43.5942H422.721C421.403 43.6317 420.579 44.3656 420.541 45.5548M438.754 14.1321C438.428 14.1203 438.101 14.1592 437.787 14.2473C437.064 14.4723 436.413 14.8285 436.405 15.7097C436.397 16.5908 437.034 16.9658 437.744 17.2122C438.006 17.285 438.276 17.3281 438.548 17.3408C439.962 17.3408 440.985 16.6123 440.996 15.7498C441.006 14.8874 440.034 14.1428 438.762 14.1428M445.83 11.2502C445.831 11.4575 445.77 11.6604 445.655 11.833C445.54 12.0056 445.376 12.1403 445.185 12.2199C444.994 12.2995 444.783 12.3204 444.579 12.2801C444.376 12.2398 444.189 12.14 444.042 11.9934C443.896 11.8467 443.796 11.6599 443.756 11.4565C443.715 11.2531 443.736 11.0423 443.816 10.8508C443.896 10.6594 444.03 10.4958 444.203 10.381C444.375 10.2661 444.578 10.2051 444.786 10.2056C445.062 10.2063 445.328 10.3166 445.523 10.5123C445.719 10.7081 445.83 10.9734 445.83 11.2502ZM431.528 11.2636C431.528 11.0563 431.589 10.8537 431.704 10.6815C431.82 10.5092 431.983 10.375 432.175 10.2958C432.366 10.2166 432.577 10.196 432.78 10.2366C432.983 10.2773 433.17 10.3773 433.316 10.524C433.463 10.6707 433.562 10.8576 433.602 11.0609C433.643 11.2642 433.621 11.4749 433.542 11.6662C433.462 11.8575 433.327 12.0209 433.155 12.1356C432.982 12.2504 432.779 12.3113 432.572 12.3108C432.295 12.3101 432.029 12.1994 431.833 12.0031C431.638 11.8068 431.528 11.5408 431.528 11.2636ZM459.841 4.29979C459.699 3.91946 459.335 3.52574 458.903 3.78019C457.087 4.85154 455.499 3.96767 453.932 3.22041C452.221 2.40083 450.555 1.49018 448.897 0.568819C445.49 -1.32747 439.951 2.00443 439.975 6.26304C439.989 9.27481 440.873 12.2184 442.52 14.7401C443.406 16.1328 444.545 17.3247 445.608 18.5782C446.449 19.5719 446.642 20.662 446.095 21.8324C445.886 22.3459 445.528 22.7847 445.067 23.0923C444.605 23.3998 444.062 23.5618 443.508 23.5573C442.9 23.5835 442.298 23.4248 441.781 23.1021C441.265 22.7794 440.858 22.3077 440.615 21.7494C440.348 21.195 440.149 20.6004 439.916 20.0272C439.683 19.454 439.298 19.1085 438.676 19.1219C438.4 19.127 438.132 19.2202 437.912 19.3878C437.692 19.5554 437.531 19.7887 437.452 20.054C437.228 20.7071 436.96 21.3443 436.649 21.961C436.447 22.3416 436.165 22.6746 435.824 22.9374C435.482 23.2003 435.088 23.387 434.669 23.4849C434.249 23.5829 433.813 23.5898 433.391 23.5053C432.968 23.4208 432.568 23.2467 432.219 22.9948C430.759 21.9235 430.574 20.0245 431.796 18.5675C432.331 17.9247 432.876 17.2854 433.429 16.6498C435.439 14.3573 436.765 11.5462 437.254 8.53698C437.9 4.67744 436.384 1.84105 433.033 0.480432C430.783 -0.435572 428.839 0.250092 426.899 1.35626C425.161 2.35261 423.444 3.40522 421.516 4.01856C420.712 4.2864 419.812 4.50067 419.063 4.04535C417.991 3.39718 417.6 3.94625 417.316 4.81672C416.565 7.04795 416.5 9.45289 417.129 11.7216C417.79 14.1321 419.25 14.6919 421.307 13.3286C423.067 12.1528 424.754 10.8698 426.471 9.62976C427.007 9.25211 427.475 8.79678 428.308 8.59055C428.083 9.0673 427.917 9.39406 427.773 9.7235C425.231 15.5543 425.459 21.0423 429.647 26.1366C432.562 29.7498 434.63 33.9697 435.701 38.4866C436.453 41.497 437.099 44.5691 435.218 47.51H442.161C440.664 45.4209 440.784 43.1684 441.138 40.9694C442.029 35.3871 444.392 30.1433 447.984 25.7777C450.825 22.2636 451.752 18.2943 450.93 13.8669C450.603 12.0939 449.931 10.444 449.149 8.70036C450.011 8.79946 450.488 9.29496 450.983 9.68332C452.81 11.0814 454.631 12.4929 456.637 13.6286C457.955 14.3732 459.142 14.1348 459.726 12.884C461.049 10.061 460.896 7.15226 459.811 4.27837" fill="#103B5D"/>
</g>
</svg>
