<svg width="1171" height="250" viewBox="0 0 1171 250" fill="none" xmlns="http://www.w3.org/2000/svg">
<path d="M192.176 126.365C192.176 138.464 188.589 150.291 181.868 160.353C175.148 170.414 165.596 178.257 154.42 182.891C143.243 187.525 130.943 188.742 119.076 186.388C107.208 184.033 96.3039 178.214 87.7426 169.664C79.1813 161.114 73.3467 150.219 70.9761 138.354C68.6055 126.489 69.8053 114.188 74.424 103.005C79.0426 91.8223 86.8728 82.2595 96.9248 75.5254C106.977 68.7914 118.8 65.1884 130.899 65.1718C138.942 65.1608 146.908 66.7354 154.342 69.8057C161.776 72.876 168.532 77.3817 174.223 83.065C179.914 88.7484 184.429 95.498 187.509 102.928C190.59 110.357 192.176 118.322 192.176 126.365Z" stroke="#006174" stroke-width="14.6947" stroke-miterlimit="10"/>
<path d="M220.515 20.0382H187.977V38.9313H220.515C220.794 38.9313 221.061 39.0419 221.257 39.2387C221.454 39.4356 221.565 39.7026 221.565 39.9809V210.019C221.565 210.297 221.454 210.564 221.257 210.761C221.061 210.958 220.794 211.069 220.515 211.069H187.977V229.962H220.515C225.803 229.956 230.872 227.853 234.611 224.115C238.35 220.376 240.452 215.307 240.458 210.019V39.9809C240.452 34.6935 238.35 29.6242 234.611 25.8854C230.872 22.1466 225.803 20.0437 220.515 20.0382Z" fill="#006174"/>
<path d="M74.6183 211.069H39.9809C39.7025 211.069 39.4356 210.958 39.2387 210.761C39.0419 210.564 38.9313 210.297 38.9313 210.019V39.9809C38.9313 39.7025 39.0419 39.4356 39.2387 39.2387C39.4356 39.0419 39.7025 38.9313 39.9809 38.9313H74.6183V20.0382H39.9809C34.6935 20.0437 29.6242 22.1466 25.8854 25.8854C22.1466 29.6242 20.0437 34.6935 20.0382 39.9809V210.019C20.0437 215.307 22.1466 220.376 25.8854 224.115C29.6242 227.853 34.6935 229.956 39.9809 229.962H74.6183V211.069Z" fill="#006174"/>
<path d="M139.695 180.63C139.695 182.578 138.921 184.447 137.543 185.825C136.165 187.203 134.296 187.977 132.347 187.977C130.399 187.977 128.53 187.203 127.152 185.825C125.774 184.447 125 182.578 125 180.63V176.431C125 174.483 125.774 172.614 127.152 171.236C128.53 169.858 130.399 169.084 132.347 169.084C134.296 169.084 136.165 169.858 137.543 171.236C138.921 172.614 139.695 174.483 139.695 176.431V180.63Z" fill="#006174"/>
<path d="M139.695 75.6679C139.695 77.6165 138.921 79.4853 137.543 80.8632C136.165 82.2411 134.296 83.0152 132.347 83.0152C130.399 83.0152 128.53 82.2411 127.152 80.8632C125.774 79.4853 125 77.6165 125 75.6679V71.4694C125 69.5208 125.774 67.6519 127.152 66.2741C128.53 64.8962 130.399 64.1221 132.347 64.1221C134.296 64.1221 136.165 64.8962 137.543 66.2741C138.921 67.6519 139.695 69.5208 139.695 71.4694V75.6679Z" fill="#006174"/>
<path d="M81.9657 118.702C83.9143 118.702 85.7831 119.476 87.161 120.854C88.5389 122.232 89.313 124.101 89.313 126.05C89.313 127.998 88.5389 129.867 87.161 131.245C85.7831 132.623 83.9143 133.397 81.9657 133.397H77.7672C75.8185 133.397 73.9497 132.623 72.5718 131.245C71.1939 129.867 70.4199 127.998 70.4199 126.05C70.4199 124.101 71.1939 122.232 72.5718 120.854C73.9497 119.476 75.8185 118.702 77.7672 118.702H81.9657Z" fill="#006174"/>
<path d="M184.828 118.702C186.777 118.702 188.646 119.476 190.024 120.854C191.401 122.232 192.176 124.101 192.176 126.05C192.176 127.998 191.401 129.867 190.024 131.245C188.646 132.623 186.777 133.397 184.828 133.397H180.63C178.681 133.397 176.812 132.623 175.434 131.245C174.057 129.867 173.282 127.998 173.282 126.05C173.282 124.101 174.057 122.232 175.434 120.854C176.812 119.476 178.681 118.702 180.63 118.702H184.828Z" fill="#006174"/>
<path d="M132.704 97.7099H131.99C129.289 97.7099 127.099 99.8998 127.099 102.601V126.406C127.099 129.108 129.289 131.298 131.99 131.298H132.704C135.406 131.298 137.595 129.108 137.595 126.406V102.601C137.595 99.8998 135.406 97.7099 132.704 97.7099Z" fill="#006174"/>
<path d="M159.385 145.635C161.863 148.112 162.702 152.059 160.792 154.032L160.288 154.515C158.378 156.446 154.452 155.607 151.891 153.13L130.122 131.298C127.645 128.799 127.099 125.231 129.198 123.32L129.702 122.817C131.613 120.906 135.16 121.368 137.658 123.845L159.385 145.635Z" fill="#006174"/>
<path d="M373.587 178.9C368.467 178.9 363.841 177.796 359.709 175.589C355.576 173.334 352.406 169.859 350.198 165.163H349.917V176.786H328.078V69.4255H350.762V92.6729C350.762 95.9135 350.668 99.107 350.48 102.254C350.339 105.353 350.198 108.077 350.057 110.425H350.48C352.218 107.795 354.19 105.541 356.398 103.663C358.605 101.737 361.094 100.258 363.865 99.2245C366.683 98.1443 369.876 97.6042 373.446 97.6042C380.068 97.6042 385.844 99.3653 390.776 102.888C395.754 106.363 399.605 111.153 402.329 117.259C405.1 123.364 406.485 130.385 406.485 138.322C406.485 146.682 405.123 153.915 402.399 160.02C399.675 166.078 395.848 170.751 390.916 174.039C385.985 177.279 380.209 178.9 373.587 178.9ZM367.528 160.724C371.051 160.724 373.986 159.785 376.334 157.907C378.682 156.028 380.443 153.398 381.618 150.017C382.792 146.635 383.379 142.69 383.379 138.181C383.379 133.532 382.768 129.446 381.547 125.924C380.373 122.401 378.612 119.654 376.264 117.681C373.915 115.709 370.957 114.723 367.387 114.723C363.442 114.723 360.178 115.756 357.595 117.822C355.059 119.889 353.157 122.707 351.889 126.276C350.668 129.798 350.057 133.814 350.057 138.322C350.057 142.69 350.738 146.565 352.1 149.946C353.509 153.328 355.505 155.981 358.088 157.907C360.718 159.785 363.865 160.724 367.528 160.724ZM457.697 178.829C449.525 178.829 442.387 177.045 436.281 173.475C430.176 169.859 425.433 164.975 422.051 158.822C418.67 152.67 416.979 145.766 416.979 138.111C416.979 130.409 418.67 123.505 422.051 117.4C425.433 111.247 430.176 106.387 436.281 102.817C442.387 99.2479 449.525 97.4633 457.697 97.4633C465.822 97.4633 472.914 99.2479 478.972 102.817C485.03 106.387 489.727 111.247 493.061 117.4C496.396 123.505 498.063 130.409 498.063 138.111C498.063 145.766 496.396 152.67 493.061 158.822C489.727 164.975 485.03 169.859 478.972 173.475C472.914 177.045 465.822 178.829 457.697 178.829ZM457.556 162.345C461.313 162.345 464.507 161.335 467.137 159.315C469.767 157.249 471.763 154.408 473.125 150.791C474.487 147.128 475.168 142.901 475.168 138.111C475.168 133.227 474.487 128.953 473.125 125.29C471.763 121.627 469.767 118.762 467.137 116.695C464.507 114.629 461.313 113.596 457.556 113.596C453.705 113.596 450.465 114.629 447.835 116.695C445.252 118.762 443.279 121.627 441.917 125.29C440.602 128.953 439.945 133.227 439.945 138.111C439.945 142.901 440.602 147.128 441.917 150.791C443.279 154.408 445.252 157.249 447.835 159.315C450.465 161.335 453.705 162.345 457.556 162.345ZM549.486 178.829C541.315 178.829 534.176 177.045 528.071 173.475C521.965 169.859 517.222 164.975 513.84 158.822C510.459 152.67 508.768 145.766 508.768 138.111C508.768 130.409 510.459 123.505 513.84 117.4C517.222 111.247 521.965 106.387 528.071 102.817C534.176 99.2479 541.315 97.4633 549.486 97.4633C557.611 97.4633 564.703 99.2479 570.761 102.817C576.82 106.387 581.516 111.247 584.851 117.4C588.185 123.505 589.852 130.409 589.852 138.111C589.852 145.766 588.185 152.67 584.851 158.822C581.516 164.975 576.82 169.859 570.761 173.475C564.703 177.045 557.611 178.829 549.486 178.829ZM549.345 162.345C553.103 162.345 556.296 161.335 558.926 159.315C561.556 157.249 563.552 154.408 564.914 150.791C566.276 147.128 566.957 142.901 566.957 138.111C566.957 133.227 566.276 128.953 564.914 125.29C563.552 121.627 561.556 118.762 558.926 116.695C556.296 114.629 553.103 113.596 549.345 113.596C545.494 113.596 542.254 114.629 539.624 116.695C537.041 118.762 535.068 121.627 533.706 125.29C532.391 128.953 531.734 133.227 531.734 138.111C531.734 142.901 532.391 147.128 533.706 150.791C535.068 154.408 537.041 157.249 539.624 159.315C542.254 161.335 545.494 162.345 549.345 162.345ZM604.15 176.786V69.4255H626.764V102.254C626.764 107.936 626.67 112.891 626.482 117.118C626.341 121.345 626.2 124.703 626.059 127.192L651.49 99.2949H677.978L650.363 128.037L681.219 176.786H654.66L634.442 143.042L626.764 151.073V176.786H604.15ZM723.202 178.829C714.843 178.829 707.61 177.045 701.505 173.475C695.446 169.906 690.773 165.069 687.486 158.963C684.245 152.811 682.625 145.907 682.625 138.252C682.625 130.55 684.292 123.646 687.627 117.541C690.961 111.388 695.587 106.527 701.505 102.958C707.422 99.3888 714.255 97.6042 722.005 97.6042C727.499 97.6042 732.478 98.473 736.939 100.211C741.401 101.901 745.229 104.297 748.422 107.396C752.743 111.576 755.913 116.813 757.932 123.106C759.952 129.399 760.915 136.326 760.821 143.888H704.886C705.356 147.739 706.342 151.05 707.845 153.821C709.395 156.545 711.461 158.658 714.044 160.161C716.674 161.617 719.821 162.345 723.484 162.345C727.006 162.345 729.918 161.687 732.219 160.372C734.521 159.057 736.282 157.226 737.503 154.877H759.412C758.144 159.386 755.913 163.448 752.719 167.065C749.526 170.681 745.44 173.546 740.462 175.659C735.53 177.773 729.777 178.829 723.202 178.829ZM705.027 130.785H737.785C737.55 127.215 736.728 124.163 735.319 121.627C733.957 119.043 732.149 117.071 729.895 115.709C727.64 114.3 725.01 113.596 722.005 113.596C718.576 113.596 715.688 114.3 713.34 115.709C710.991 117.118 709.136 119.114 707.774 121.697C706.412 124.233 705.497 127.262 705.027 130.785ZM804.495 178.829C797.873 178.829 792.096 177.185 787.165 173.898C782.234 170.61 778.406 165.914 775.682 159.809C772.958 153.703 771.596 146.424 771.596 137.97C771.596 130.127 772.982 123.153 775.753 117.047C778.524 110.942 782.398 106.152 787.376 102.676C792.355 99.201 798.155 97.4633 804.777 97.4633C808.299 97.4633 811.446 97.9799 814.217 99.0131C817.034 100.046 819.524 101.526 821.684 103.451C823.891 105.33 825.864 107.608 827.601 110.285H827.883C827.742 107.889 827.601 105.142 827.46 102.042C827.367 98.9427 827.32 95.7726 827.32 92.532V69.4255H849.933V176.786H828.165V165.092H827.883C825.676 169.789 822.529 173.264 818.443 175.518C814.357 177.726 809.708 178.829 804.495 178.829ZM810.553 160.654C814.217 160.654 817.34 159.715 819.923 157.836C822.553 155.911 824.549 153.234 825.911 149.805C827.32 146.377 828.024 142.432 828.024 137.97C828.024 133.462 827.39 129.446 826.122 125.924C824.854 122.401 822.928 119.631 820.345 117.611C817.809 115.592 814.592 114.582 810.694 114.582C807.172 114.582 804.213 115.568 801.818 117.541C799.47 119.513 797.685 122.261 796.464 125.783C795.29 129.258 794.703 133.274 794.703 137.829C794.703 142.432 795.29 146.447 796.464 149.876C797.638 153.304 799.399 155.958 801.747 157.836C804.143 159.715 807.078 160.654 810.553 160.654ZM916.221 176.786V153.539H868.035V132.616L916.361 74.075H938.834V136.279H954.121V153.539H938.834V176.786H916.221ZM883.745 137.125C883.745 137.125 884.566 137.054 886.21 136.913C887.854 136.773 889.826 136.632 892.128 136.491C894.429 136.35 896.542 136.279 898.468 136.279H916.221V112.609C916.221 110.59 916.267 108.359 916.361 105.917C916.502 103.475 916.62 101.361 916.714 99.5767C916.855 97.792 916.925 96.8997 916.925 96.8997H916.643C916.643 96.8997 916.056 97.7216 914.882 99.3653C913.755 100.962 912.369 102.888 910.726 105.142C909.082 107.349 907.509 109.369 906.006 111.2L895.58 123.81C894.124 125.548 892.456 127.427 890.578 129.446C888.746 131.466 887.15 133.203 885.788 134.659C884.426 136.115 883.745 136.843 883.745 136.843V137.125ZM963.98 176.786V153.116H987.932V176.786H963.98ZM1029.92 178.97C1024.05 178.97 1019.09 177.796 1015.05 175.448C1011.01 173.053 1007.94 169.718 1005.82 165.444C1003.76 161.171 1002.72 156.192 1002.72 150.51V99.2949H1025.62V146.212C1025.62 150.486 1026.65 153.821 1028.72 156.216C1030.78 158.564 1033.86 159.738 1037.95 159.738C1041 159.738 1043.63 159.034 1045.84 157.625C1048.09 156.169 1049.81 154.196 1050.98 151.707C1052.2 149.218 1052.81 146.377 1052.81 143.183V99.2949H1075.35V176.786H1053.66V165.656H1053.23C1051.36 168.661 1049.29 171.151 1047.03 173.123C1044.83 175.096 1042.31 176.551 1039.5 177.491C1036.68 178.477 1033.49 178.97 1029.92 178.97ZM1125.23 178.9C1117.85 178.9 1111.47 177.796 1106.07 175.589C1100.71 173.381 1096.53 170.305 1093.53 166.36C1090.52 162.415 1088.83 157.883 1088.45 152.764H1109.8C1110.46 156.38 1112.1 159.175 1114.73 161.147C1117.41 163.073 1120.95 164.035 1125.37 164.035C1129.41 164.035 1132.53 163.26 1134.74 161.711C1136.95 160.114 1138.05 157.954 1138.05 155.23C1138.05 152.928 1137.13 151.214 1135.3 150.087C1133.52 148.913 1131.12 148.021 1128.12 147.41C1125.16 146.752 1121.89 146.095 1118.32 145.437C1114.9 144.78 1111.54 144.005 1108.25 143.113C1104.96 142.173 1102 140.882 1099.37 139.238C1096.74 137.547 1094.65 135.293 1093.1 132.475C1091.55 129.61 1090.78 125.947 1090.78 121.486C1090.78 116.226 1092.21 111.834 1095.08 108.312C1097.94 104.743 1101.82 102.066 1106.7 100.281C1111.58 98.4495 1117.03 97.5337 1123.04 97.5337C1130.18 97.5337 1136.15 98.4965 1140.94 100.422C1145.73 102.301 1149.46 104.954 1152.14 108.383C1154.81 111.764 1156.48 115.685 1157.14 120.147H1136.08C1135.61 118.316 1134.81 116.789 1133.68 115.568C1132.55 114.347 1131.1 113.455 1129.31 112.891C1127.58 112.281 1125.49 111.975 1123.04 111.975C1119.62 111.975 1116.87 112.656 1114.8 114.018C1112.73 115.38 1111.7 117.282 1111.7 119.724C1111.7 121.65 1112.55 123.106 1114.24 124.092C1115.93 125.078 1118.18 125.853 1121 126.417C1123.87 126.98 1127.06 127.591 1130.58 128.248C1134.01 128.859 1137.44 129.634 1140.87 130.573C1144.34 131.513 1147.51 132.874 1150.38 134.659C1153.24 136.397 1155.54 138.792 1157.28 141.845C1159.02 144.85 1159.89 148.772 1159.89 153.609C1159.89 159.151 1158.38 163.801 1155.38 167.558C1152.37 171.315 1148.26 174.156 1143.05 176.082C1137.84 177.96 1131.9 178.9 1125.23 178.9Z" fill="#006174"/>
</svg>
