<svg width="343" height="40" viewBox="0 0 343 40" fill="none" xmlns="http://www.w3.org/2000/svg">
<g clip-path="url(#clip0_8_9252)">
<mask id="mask0_8_9252" style="mask-type:luminance" maskUnits="userSpaceOnUse" x="0" y="0" width="41" height="40">
<path fill-rule="evenodd" clip-rule="evenodd" d="M0 0H40.5879V39.9873H0V0Z" fill="white"/>
</mask>
<g mask="url(#mask0_8_9252)">
<path fill-rule="evenodd" clip-rule="evenodd" d="M11.1923 19.9945C11.1923 21.6121 11.4583 23.0605 11.9895 24.3398C12.5207 25.6205 13.226 26.7005 14.1088 27.5819C14.9902 28.4647 16.0225 29.1398 17.2056 29.6114C18.3888 30.0815 19.6316 30.3166 20.9369 30.3166C22.8681 30.3166 24.6 29.8408 26.1341 28.8871C27.4456 28.071 28.4969 26.9763 29.2871 25.6036C29.5467 25.1524 30.0372 24.8843 30.5579 24.8843H39.1004C40.1165 24.8843 40.8393 25.885 40.506 26.845C40.0141 28.2605 39.3649 29.605 38.5572 30.8787C37.386 32.7257 35.9313 34.325 34.1937 35.6773C32.4541 37.0303 30.4562 38.0871 28.1986 38.8464C25.9397 39.6071 23.4948 39.9875 20.8646 39.9875C17.7965 39.9875 14.9832 39.4633 12.4246 38.4121C9.86386 37.3622 7.66737 35.9314 5.83228 34.1208C3.9972 32.3089 2.56562 30.1903 1.53895 27.7629C0.512982 25.337 0 22.7587 0 20.031C0 17.3012 0.506666 14.7243 1.52141 12.297C2.53685 9.8696 3.96632 7.74539 5.81334 5.92223C7.66176 4.09837 9.85825 2.65696 12.4064 1.59451C14.9537 0.53135 17.772 0.00012207 20.8646 0.00012207C23.4948 0.00012207 25.9341 0.380473 28.1797 1.14117C30.426 1.90188 32.412 2.9517 34.1383 4.29135C35.8646 5.6317 37.3207 7.22609 38.5039 9.07381C39.3214 10.351 39.9839 11.7075 40.4906 13.1412C40.8295 14.1012 40.1109 15.1075 39.0927 15.111L30.5663 15.137C30.0414 15.1384 29.5467 14.8668 29.2871 14.4106C28.4969 13.0212 27.4456 11.918 26.1341 11.1019C24.6 10.1482 22.8681 9.671 20.9369 9.671C19.6316 9.671 18.3888 9.90609 17.2056 10.3777C16.0225 10.8478 14.9832 11.5306 14.0899 12.4233C13.1972 13.3173 12.4906 14.398 11.972 15.6654C11.452 16.9328 11.1923 18.377 11.1923 19.9945Z" fill="#4433BC"/>
</g>
<path fill-rule="evenodd" clip-rule="evenodd" d="M39.1011 24.884H30.5586C30.0379 24.884 29.5474 25.1528 29.2877 25.604C28.4976 26.9767 27.4463 28.0707 26.1348 28.8868C25.5439 29.2539 24.9235 29.5486 24.2744 29.7746C26.4653 31.9689 28.5067 34.0125 29.4302 34.9353C30.2316 35.7374 30.6751 36.4974 30.6449 37.0209C30.6176 37.5044 30.1642 37.9682 30.0084 38.0925L30.0562 38.0574L30.0856 38.1058C31.5839 37.444 32.9572 36.6391 34.1937 35.677C35.9312 34.3254 37.386 32.7254 38.5579 30.8784C39.3649 29.6054 40.0148 28.2609 40.506 26.8447C40.8393 25.8854 40.1172 24.884 39.1011 24.884Z" fill="#0B0062"/>
<path fill-rule="evenodd" clip-rule="evenodd" d="M24.2578 10.2086C24.9132 10.4352 25.5392 10.7321 26.135 11.1019C27.4465 11.9181 28.4978 13.0205 29.2872 14.41C29.5469 14.8668 30.0423 15.1384 30.5672 15.137L39.0935 15.111C40.1111 15.1075 40.8304 14.1005 40.4907 13.1405C39.9841 11.7068 39.3216 10.351 38.5041 9.07384C37.3209 7.22542 35.8648 5.63174 34.1385 4.29139C32.9153 3.34191 31.5546 2.54542 30.0697 1.88647L30.0564 1.90963C30.062 1.91384 30.6009 2.39314 30.6437 2.92367C30.6858 3.44998 30.2437 4.21841 29.4304 5.03174C28.5048 5.95666 26.4557 8.00788 24.2578 10.2086Z" fill="#0B0062"/>
<path fill-rule="evenodd" clip-rule="evenodd" d="M31.5549 30.8556C35.331 34.6317 31.7858 37.1896 31.7858 37.1896C31.7858 37.1896 41.7661 32.3201 41.7717 19.9833C41.7661 7.64645 31.7858 2.77698 31.7858 2.77698C31.7858 2.77698 35.331 5.33557 31.5549 9.11101C30.1998 10.4661 25.983 14.6893 23.2202 17.4556C21.8251 18.8528 21.8251 21.1138 23.2202 22.511C25.983 25.2773 30.1998 29.5005 31.5549 30.8556Z" fill="#1AD2E5"/>
<path fill-rule="evenodd" clip-rule="evenodd" d="M70.7514 16.6963C70.4616 15.9785 70.0763 15.337 69.5935 14.7749C69.1114 14.2121 68.5619 13.7349 67.9458 13.3441C67.329 12.9525 66.6616 12.6549 65.9437 12.4514C65.2258 12.2479 64.4918 12.1462 63.7409 12.1462C62.6581 12.1462 61.6433 12.3497 60.6939 12.7574C59.7458 13.1644 58.9177 13.7244 58.2104 14.4367C57.503 15.1504 56.9423 15.9939 56.5304 16.9693C56.117 17.9448 55.9114 18.9953 55.9114 20.1209C55.9114 21.2458 56.117 22.2942 56.5304 23.2641C56.9423 24.2339 57.503 25.0753 58.2104 25.7883C58.9177 26.5013 59.7458 27.0613 60.6939 27.469C61.6433 27.876 62.6581 28.0795 63.7409 28.0795C64.4918 28.0795 65.223 27.9806 65.936 27.782C66.6483 27.5841 67.3128 27.2921 67.9297 26.9062C68.5458 26.5195 69.0953 26.0451 69.5774 25.483C70.0602 24.9202 70.4454 24.2802 70.7353 23.5616H74.8511C74.4974 24.8472 73.9374 25.9869 73.1711 26.9778C72.4047 27.9693 71.5149 28.803 70.5023 29.4781C69.489 30.1539 68.3984 30.6655 67.23 31.0135C66.0616 31.3616 64.8988 31.5356 63.7409 31.5356C62.6483 31.5356 61.597 31.4023 60.59 31.1342C59.5823 30.8662 58.6419 30.483 57.7683 29.9848C56.8946 29.4865 56.096 28.8914 55.3725 28.2002C54.649 27.5083 54.0321 26.7399 53.5233 25.8921C53.0146 25.0458 52.6174 24.1349 52.3339 23.1595C52.0497 22.1841 51.9072 21.1658 51.9072 20.1041C51.9072 19.0437 52.0497 18.0255 52.3339 17.05C52.6174 16.0746 53.0146 15.163 53.5233 14.316C54.0321 13.4697 54.649 12.7013 55.3725 12.0093C56.096 11.3181 56.8946 10.7258 57.7683 10.2325C58.6419 9.73986 59.5823 9.35951 60.59 9.09073C61.597 8.82337 62.6483 8.68933 63.7409 8.68933C64.8988 8.68933 66.0616 8.85775 67.23 9.196C68.3984 9.53354 69.489 10.0374 70.5023 10.7069C71.5149 11.3771 72.4047 12.2128 73.1711 13.2149C73.9374 14.2178 74.4974 15.3834 74.8511 16.7118L70.7514 16.6963Z" fill="#4433BC"/>
<path fill-rule="evenodd" clip-rule="evenodd" d="M80.2236 22.7894C80.2236 23.5831 80.3604 24.3094 80.6334 24.9677C80.9071 25.6273 81.279 26.1958 81.7513 26.6723C82.2229 27.1495 82.7744 27.5221 83.4074 27.7902C84.039 28.0582 84.7204 28.1916 85.4488 28.1916C86.1779 28.1916 86.8586 28.061 87.4909 27.7986C88.1232 27.5361 88.6748 27.1656 89.1471 26.6891C89.6186 26.2119 89.9913 25.6407 90.2643 24.9761C90.5379 24.3123 90.6748 23.5831 90.6748 22.7894C90.6748 22.0077 90.5379 21.2863 90.2643 20.6273C89.9913 19.9677 89.6186 19.4028 89.1471 18.9312C88.6748 18.4596 88.1204 18.0898 87.4832 17.8217C86.8453 17.5537 86.1674 17.4196 85.4488 17.4196C84.7204 17.4196 84.039 17.5509 83.4074 17.8133C82.7744 18.0765 82.2229 18.4463 81.7513 18.9228C81.279 19.4 80.9071 19.9677 80.6334 20.6273C80.3604 21.2863 80.2236 22.0077 80.2236 22.7894ZM76.3169 22.8056C76.3169 21.5951 76.5414 20.4561 76.992 19.3887C77.4425 18.3228 78.072 17.3937 78.8811 16.6C79.6902 15.807 80.6523 15.1796 81.7674 14.7186C82.8818 14.2582 84.0986 14.0273 85.4165 14.0273C86.7457 14.0273 87.9709 14.2582 89.0909 14.7186C90.2109 15.1796 91.1751 15.807 91.985 16.6C92.7941 17.3937 93.4264 18.3228 93.8818 19.3887C94.3372 20.4561 94.5653 21.5951 94.5653 22.8056C94.5653 24.028 94.34 25.1698 93.8902 26.2302C93.4397 27.2919 92.8074 28.2189 91.9927 29.0119C91.1779 29.8056 90.2109 30.4302 89.0909 30.8849C87.9709 31.341 86.7407 31.5684 85.4004 31.5684C84.0825 31.5684 82.8685 31.341 81.759 30.8849C80.6495 30.4302 79.693 29.8056 78.8895 29.0119C78.0853 28.2189 77.4558 27.2891 76.9997 26.2224C76.5443 25.1558 76.3169 24.0175 76.3169 22.8056Z" fill="#4433BC"/>
<path fill-rule="evenodd" clip-rule="evenodd" d="M99.7123 22.7895C99.7123 23.5832 99.852 24.3123 100.131 24.9761C100.41 25.6407 100.79 26.2119 101.273 26.6891C101.755 27.1656 102.318 27.5361 102.96 27.7986C103.604 28.0611 104.295 28.1916 105.035 28.1916C105.764 28.1916 106.45 28.0611 107.093 27.7986C107.736 27.5361 108.296 27.1656 108.773 26.6891C109.25 26.2119 109.628 25.6435 109.906 24.9846C110.185 24.3249 110.325 23.5937 110.325 22.7895C110.325 22.0077 110.185 21.2863 109.906 20.6274C109.628 19.9677 109.247 19.4028 108.765 18.9312C108.283 18.4596 107.72 18.0898 107.077 17.8218C106.433 17.5537 105.742 17.4196 105.003 17.4196C104.263 17.4196 103.572 17.5509 102.929 17.8133C102.285 18.0765 101.725 18.4463 101.248 18.9228C100.771 19.4 100.396 19.9677 100.123 20.6274C99.8492 21.2863 99.7123 22.0077 99.7123 22.7895ZM95.8057 22.8056C95.8057 21.5951 96.0141 20.4561 96.4323 19.3888C96.8506 18.3228 97.4428 17.3902 98.2092 16.5916C98.9755 15.793 99.8997 15.1635 100.983 14.7025C102.066 14.2414 103.266 14.0112 104.584 14.0112C105.774 14.0112 106.83 14.2091 107.752 14.6063C108.674 15.0021 109.472 15.506 110.148 16.1172V8.41614H114.054V31.0702H110.71L110.469 29.141C110.137 29.4835 109.764 29.8028 109.351 30.0975C108.939 30.3923 108.486 30.6491 107.993 30.8695C107.5 31.0884 106.974 31.2632 106.417 31.3916C105.86 31.52 105.271 31.5846 104.649 31.5846C103.33 31.5846 102.127 31.3537 101.04 30.8933C99.9509 30.433 99.0211 29.8056 98.2492 29.0119C97.4772 28.2189 96.8772 27.2891 96.4485 26.2225C96.0197 25.1558 95.8057 24.0175 95.8057 22.8056Z" fill="#4433BC"/>
<path fill-rule="evenodd" clip-rule="evenodd" d="M125.616 17.1624C124.951 17.1624 124.338 17.2621 123.774 17.46C123.212 17.6586 122.708 17.9343 122.263 18.288C121.818 18.641 121.441 19.0621 121.13 19.5498C120.819 20.0382 120.588 20.5708 120.439 21.1498H130.616C130.466 20.5708 130.241 20.0382 129.941 19.5498C129.64 19.0621 129.276 18.641 128.847 18.288C128.418 17.9343 127.934 17.6586 127.393 17.46C126.851 17.2621 126.259 17.1624 125.616 17.1624ZM116.483 22.8059C116.483 21.5947 116.708 20.4557 117.159 19.3891C117.609 18.3224 118.238 17.3933 119.048 16.5996C119.857 15.8066 120.819 15.18 121.934 14.7189C123.049 14.2579 124.265 14.027 125.583 14.027C126.913 14.027 128.137 14.2579 129.257 14.7189C130.378 15.18 131.342 15.8066 132.151 16.5996C132.961 17.3933 133.593 18.3224 134.049 19.3891C134.504 20.4557 134.732 21.5947 134.732 22.8059C134.732 23.074 134.722 23.288 134.7 23.4487C134.678 23.6101 134.657 23.7652 134.636 23.9154H120.326C120.455 24.5905 120.688 25.2017 121.025 25.7477C121.363 26.295 121.771 26.7589 122.247 27.1393C122.724 27.5196 123.252 27.8143 123.831 28.0235C124.41 28.2319 125.004 28.3372 125.616 28.3372C126.581 28.3372 127.433 28.1224 128.172 27.6936C128.912 27.2649 129.475 26.7028 129.861 26.0059H134.089C133.821 26.735 133.43 27.434 132.915 28.1035C132.4 28.7736 131.782 29.3659 131.058 29.8803C130.335 30.3947 129.515 30.8045 128.598 31.1105C127.682 31.4158 126.677 31.568 125.583 31.568C124.265 31.568 123.049 31.3379 121.934 30.8768C120.819 30.4165 119.857 29.7891 119.048 28.9954C118.238 28.2024 117.609 27.2754 117.159 26.2143C116.708 25.1533 116.483 24.0179 116.483 22.8059Z" fill="#4433BC"/>
<path fill-rule="evenodd" clip-rule="evenodd" d="M142.438 9.20398H157.423V12.6763H146.441V18.5289H155.927V21.9696H146.441V27.6131H157.567V31.0699H142.438V9.20398Z" fill="#1AD2E5"/>
<path fill-rule="evenodd" clip-rule="evenodd" d="M161.781 26.0858C161.792 26.3967 161.886 26.6914 162.062 26.97C162.239 27.2486 162.478 27.49 162.778 27.6935C163.078 27.897 163.427 28.0584 163.823 28.1763C164.22 28.2935 164.648 28.3525 165.109 28.3525C166.353 28.3525 167.269 28.1679 167.859 27.7981C168.448 27.4283 168.743 26.9272 168.743 26.2949C168.743 25.9412 168.636 25.6465 168.421 25.4107C168.207 25.1749 167.896 24.9763 167.489 24.8156C167.081 24.6549 166.583 24.5132 165.994 24.3897C165.404 24.2662 164.734 24.1349 163.984 23.9953C163.608 23.9419 163.215 23.8725 162.802 23.7869C162.389 23.7012 161.98 23.5855 161.572 23.4409C161.165 23.2956 160.776 23.1118 160.406 22.8858C160.036 22.6612 159.709 22.3855 159.426 22.0584C159.142 21.7314 158.914 21.3398 158.742 20.8844C158.571 20.429 158.485 19.8907 158.485 19.2683C158.485 18.497 158.624 17.7925 158.903 17.1539C159.182 16.5167 159.616 15.9644 160.206 15.4984C160.795 15.0318 161.545 14.6704 162.456 14.4128C163.368 14.156 164.455 14.0269 165.72 14.0269C166.717 14.0269 167.615 14.156 168.413 14.4128C169.212 14.6704 169.89 15.0297 170.448 15.49C171.005 15.9518 171.433 16.5033 171.733 17.1469C172.034 17.7897 172.184 18.4921 172.184 19.2528L168.276 19.2367C168.234 18.6577 167.961 18.1805 167.457 17.8051C166.953 17.4304 166.283 17.2423 165.447 17.2423C164.9 17.2423 164.434 17.2991 164.048 17.4121C163.662 17.5244 163.346 17.6718 163.1 17.8542C162.853 18.036 162.671 18.2479 162.553 18.4893C162.435 18.73 162.376 18.9791 162.376 19.2367C162.376 19.537 162.456 19.7883 162.617 19.9918C162.778 20.1953 163.019 20.3679 163.341 20.5069C163.662 20.6458 164.069 20.7637 164.563 20.8605C165.055 20.9567 165.634 21.0423 166.299 21.1174C167.103 21.2465 167.896 21.4044 168.679 21.5925C169.461 21.7791 170.158 22.05 170.769 22.4037C171.38 22.7581 171.873 23.224 172.248 23.803C172.623 24.3812 172.811 25.1265 172.811 26.0381C172.811 26.97 172.623 27.7819 172.248 28.4732C171.873 29.1651 171.342 29.7412 170.656 30.2016C169.97 30.6626 169.145 31.0086 168.18 31.2388C167.215 31.469 166.144 31.5848 164.965 31.5848C163.785 31.5848 162.756 31.4212 161.878 31.0942C160.999 30.7672 160.267 30.3412 159.683 29.8156C159.099 29.2907 158.662 28.7012 158.373 28.0472C158.083 27.3932 157.938 26.7349 157.938 26.0704L161.781 26.0858Z" fill="#1AD2E5"/>
<path fill-rule="evenodd" clip-rule="evenodd" d="M177.38 22.7895C177.38 23.6253 177.522 24.3761 177.806 25.0407C178.09 25.7053 178.473 26.2709 178.956 26.7368C179.438 27.2035 179.993 27.56 180.62 27.8056C181.247 28.0526 181.903 28.1761 182.589 28.1761C183.608 28.1761 184.524 27.9263 185.339 27.4281C186.153 26.9298 186.781 26.2358 187.22 25.3467H191.223C190.976 26.247 190.591 27.0744 190.066 27.8309C189.541 28.586 188.906 29.2421 188.16 29.8C187.415 30.3572 186.572 30.7909 185.628 31.1025C184.685 31.4126 183.666 31.5684 182.573 31.5684C181.255 31.5684 180.038 31.3383 178.924 30.8765C177.809 30.4161 176.847 29.7895 176.038 28.9958C175.228 28.2028 174.596 27.2758 174.141 26.2147C173.685 25.153 173.457 24.0175 173.457 22.8056C173.457 21.5951 173.682 20.4561 174.132 19.3888C174.583 18.3228 175.212 17.3902 176.021 16.5916C176.831 15.793 177.793 15.1635 178.908 14.7025C180.022 14.2414 181.244 14.0112 182.573 14.0112C183.666 14.0112 184.682 14.167 185.62 14.4772C186.558 14.7888 187.4 15.2197 188.144 15.7719C188.889 16.3235 189.525 16.9804 190.049 17.7418C190.575 18.5025 190.966 19.3326 191.223 20.233H187.22C186.791 19.3544 186.167 18.666 185.347 18.167C184.527 17.6688 183.608 17.4197 182.589 17.4197C181.893 17.4197 181.231 17.5425 180.604 17.7895C179.976 18.0365 179.425 18.3923 178.948 18.8582C178.471 19.3249 178.09 19.8905 177.806 20.5544C177.522 21.2197 177.38 21.9642 177.38 22.7895Z" fill="#1AD2E5"/>
<path fill-rule="evenodd" clip-rule="evenodd" d="M204.12 17.9503L202.175 17.9657C201.413 17.9657 200.728 18.0766 200.116 18.2956C199.505 18.5159 198.983 18.8422 198.549 19.2766C198.114 19.711 197.782 20.2521 197.552 20.9005C197.321 21.5489 197.206 22.2963 197.206 23.1433V31.0696H193.3V14.525H196.467L196.82 16.5026C197.377 15.9349 198.082 15.4633 198.935 15.0879C199.787 14.7131 200.797 14.525 201.966 14.525H204.12V17.9503Z" fill="#1AD2E5"/>
<path fill-rule="evenodd" clip-rule="evenodd" d="M208.527 22.7894C208.527 23.5831 208.664 24.3094 208.937 24.9677C209.211 25.6273 209.583 26.1958 210.055 26.6723C210.526 27.1495 211.078 27.5221 211.711 27.7902C212.343 28.0582 213.024 28.1916 213.752 28.1916C214.482 28.1916 215.162 28.061 215.795 27.7986C216.427 27.5361 216.978 27.1656 217.451 26.6891C217.922 26.2119 218.295 25.6407 218.568 24.9761C218.842 24.3123 218.978 23.5831 218.978 22.7894C218.978 22.0077 218.842 21.2863 218.568 20.6273C218.295 19.9677 217.922 19.4028 217.451 18.9312C216.978 18.4596 216.424 18.0898 215.787 17.8217C215.149 17.5537 214.471 17.4196 213.752 17.4196C213.024 17.4196 212.343 17.5509 211.711 17.8133C211.078 18.0765 210.526 18.4463 210.055 18.9228C209.583 19.4 209.211 19.9677 208.937 20.6273C208.664 21.2863 208.527 22.0077 208.527 22.7894ZM204.621 22.8056C204.621 21.5951 204.845 20.4561 205.296 19.3887C205.746 18.3228 206.376 17.3937 207.185 16.6C207.994 15.807 208.956 15.1796 210.071 14.7186C211.185 14.2582 212.402 14.0273 213.72 14.0273C215.049 14.0273 216.275 14.2582 217.395 14.7186C218.515 15.1796 219.479 15.807 220.289 16.6C221.098 17.3937 221.73 18.3228 222.185 19.3887C222.641 20.4561 222.869 21.5951 222.869 22.8056C222.869 24.028 222.644 25.1698 222.194 26.2302C221.743 27.2919 221.111 28.2189 220.296 29.0119C219.482 29.8056 218.515 30.4302 217.395 30.8849C216.275 31.341 215.044 31.5684 213.704 31.5684C212.386 31.5684 211.172 31.341 210.063 30.8849C208.953 30.4302 207.997 29.8056 207.193 29.0119C206.389 28.2189 205.759 27.2891 205.303 26.2224C204.848 25.1558 204.621 24.0175 204.621 22.8056Z" fill="#1AD2E5"/>
<path fill-rule="evenodd" clip-rule="evenodd" d="M248.757 14.5254L242.856 31.07H239.303L235.541 20.4587L231.827 31.07H228.289L222.404 14.5254H226.601L230.428 25.877H230.476L234.125 14.6384H237.004L240.67 25.877H240.717L244.544 14.5254H248.757Z" fill="#1AD2E5"/>
<path fill-rule="evenodd" clip-rule="evenodd" d="M273.425 16.6963C273.135 15.9785 272.75 15.337 272.267 14.7749C271.785 14.2121 271.235 13.7349 270.619 13.3441C270.002 12.9525 269.335 12.6549 268.617 12.4514C267.899 12.2479 267.165 12.1462 266.414 12.1462C265.331 12.1462 264.317 12.3497 263.367 12.7574C262.419 13.1644 261.591 13.7244 260.884 14.4367C260.176 15.1504 259.616 15.9939 259.204 16.9693C258.79 17.9448 258.585 18.9953 258.585 20.1209C258.585 21.2458 258.79 22.2942 259.204 23.2641C259.616 24.2339 260.176 25.0753 260.884 25.7883C261.591 26.5013 262.419 27.0613 263.367 27.469C264.317 27.876 265.331 28.0795 266.414 28.0795C267.165 28.0795 267.896 27.9806 268.609 27.782C269.322 27.5841 269.986 27.2921 270.603 26.9062C271.219 26.5195 271.769 26.0451 272.251 25.483C272.733 24.9202 273.119 24.2802 273.409 23.5616H277.524C277.171 24.8472 276.611 25.9869 275.844 26.9778C275.078 27.9693 274.188 28.803 273.176 29.4781C272.162 30.1539 271.072 30.6655 269.903 31.0135C268.735 31.3616 267.572 31.5356 266.414 31.5356C265.322 31.5356 264.27 31.4023 263.263 31.1342C262.256 30.8662 261.315 30.483 260.442 29.9848C259.568 29.4865 258.769 28.8914 258.046 28.2002C257.322 27.5083 256.705 26.7399 256.197 25.8921C255.688 25.0458 255.291 24.1349 255.007 23.1595C254.723 22.1841 254.58 21.1658 254.58 20.1041C254.58 19.0437 254.723 18.0255 255.007 17.05C255.291 16.0746 255.688 15.163 256.197 14.316C256.705 13.4697 257.322 12.7013 258.046 12.0093C258.769 11.3181 259.568 10.7258 260.442 10.2325C261.315 9.73986 262.256 9.35951 263.263 9.09073C264.27 8.82337 265.322 8.68933 266.414 8.68933C267.572 8.68933 268.735 8.85775 269.903 9.196C271.072 9.53354 272.162 10.0374 273.176 10.7069C274.188 11.3771 275.078 12.2128 275.844 13.2149C276.611 14.2178 277.171 15.3834 277.524 16.7118L273.425 16.6963Z" fill="#4433BC"/>
<path fill-rule="evenodd" clip-rule="evenodd" d="M279.938 31.0702H283.844V8.41614H279.938V31.0702Z" fill="#4433BC"/>
<path fill-rule="evenodd" clip-rule="evenodd" d="M290.005 22.7894C290.005 23.5831 290.142 24.3094 290.415 24.9677C290.688 25.6273 291.06 26.1958 291.533 26.6723C292.004 27.1495 292.556 27.5221 293.189 27.7902C293.82 28.0582 294.502 28.1916 295.23 28.1916C295.959 28.1916 296.64 28.061 297.272 27.7986C297.905 27.5361 298.456 27.1656 298.928 26.6891C299.4 26.2119 299.773 25.6407 300.046 24.9761C300.319 24.3123 300.456 23.5831 300.456 22.7894C300.456 22.0077 300.319 21.2863 300.046 20.6273C299.773 19.9677 299.4 19.4028 298.928 18.9312C298.456 18.4596 297.902 18.0898 297.265 17.8217C296.627 17.5537 295.949 17.4196 295.23 17.4196C294.502 17.4196 293.82 17.5509 293.189 17.8133C292.556 18.0765 292.004 18.4463 291.533 18.9228C291.06 19.4 290.688 19.9677 290.415 20.6273C290.142 21.2863 290.005 22.0077 290.005 22.7894ZM286.098 22.8056C286.098 21.5951 286.323 20.4561 286.773 19.3887C287.224 18.3228 287.853 17.3937 288.663 16.6C289.472 15.807 290.434 15.1796 291.549 14.7186C292.663 14.2582 293.88 14.0273 295.198 14.0273C296.527 14.0273 297.752 14.2582 298.872 14.7186C299.992 15.1796 300.957 15.807 301.766 16.6C302.576 17.3937 303.208 18.3228 303.663 19.3887C304.119 20.4561 304.347 21.5951 304.347 22.8056C304.347 24.028 304.121 25.1698 303.672 26.2302C303.221 27.2919 302.589 28.2189 301.774 29.0119C300.959 29.8056 299.992 30.4302 298.872 30.8849C297.752 31.341 296.522 31.5684 295.182 31.5684C293.864 31.5684 292.65 31.341 291.54 30.8849C290.431 30.4302 289.474 29.8056 288.671 29.0119C287.867 28.2189 287.237 27.2891 286.781 26.2224C286.326 25.1558 286.098 24.0175 286.098 22.8056Z" fill="#4433BC"/>
<path fill-rule="evenodd" clip-rule="evenodd" d="M314.269 28.1759C314.955 28.1759 315.564 28.0847 316.094 27.9022C316.625 27.7205 317.075 27.4285 317.444 27.0257C317.814 26.6243 318.096 26.11 318.289 25.4826C318.482 24.8559 318.578 24.0924 318.578 23.1914V14.5254H322.501V23.3043C322.501 24.7724 322.3 26.0264 321.898 27.0664C321.496 28.1057 320.931 28.9612 320.202 29.6307C319.473 30.3008 318.604 30.7914 317.597 31.1022C316.59 31.4124 315.48 31.5682 314.269 31.5682C313.058 31.5682 311.948 31.4124 310.941 31.1022C309.934 30.7914 309.065 30.3008 308.336 29.6307C307.607 28.9612 307.042 28.1057 306.64 27.0664C306.238 26.0264 306.037 24.7724 306.037 23.3043V14.5254H309.96V23.1914C309.96 24.0812 310.057 24.8398 310.249 25.4671C310.442 26.0938 310.721 26.6082 311.086 27.0103C311.45 27.4124 311.901 27.7071 312.436 27.8945C312.972 28.0819 313.583 28.1759 314.269 28.1759Z" fill="#4433BC"/>
<path fill-rule="evenodd" clip-rule="evenodd" d="M328.098 22.7895C328.098 23.5832 328.238 24.3123 328.516 24.9761C328.795 25.6407 329.175 26.2119 329.658 26.6891C330.14 27.1656 330.703 27.5361 331.346 27.7986C331.989 28.0611 332.68 28.1916 333.42 28.1916C334.149 28.1916 334.835 28.0611 335.478 27.7986C336.121 27.5361 336.681 27.1656 337.158 26.6891C337.635 26.2119 338.013 25.6435 338.292 24.9846C338.57 24.3249 338.71 23.5937 338.71 22.7895C338.71 22.0077 338.57 21.2863 338.292 20.6274C338.013 19.9677 337.632 19.4028 337.15 18.9312C336.668 18.4596 336.105 18.0898 335.462 17.8218C334.819 17.5537 334.127 17.4196 333.388 17.4196C332.648 17.4196 331.957 17.5509 331.314 17.8133C330.67 18.0765 330.11 18.4463 329.633 18.9228C329.156 19.4 328.781 19.9677 328.508 20.6274C328.235 21.2863 328.098 22.0077 328.098 22.7895ZM324.191 22.8056C324.191 21.5951 324.4 20.4561 324.818 19.3888C325.236 18.3228 325.828 17.3902 326.595 16.5916C327.361 15.793 328.285 15.1635 329.368 14.7025C330.451 14.2414 331.651 14.0112 332.969 14.0112C334.16 14.0112 335.215 14.2091 336.137 14.6063C337.059 15.0021 337.857 15.506 338.533 16.1172V8.41614H342.44V31.0702H339.095L338.854 29.141C338.522 29.4835 338.149 29.8028 337.736 30.0975C337.324 30.3923 336.871 30.6491 336.379 30.8695C335.885 31.0884 335.36 31.2632 334.802 31.3916C334.245 31.52 333.656 31.5846 333.034 31.5846C331.715 31.5846 330.512 31.3537 329.425 30.8933C328.336 30.433 327.407 29.8056 326.635 29.0119C325.863 28.2189 325.263 27.2891 324.834 26.2225C324.405 25.1558 324.191 24.0175 324.191 22.8056Z" fill="#4433BC"/>
</g>
<defs>
<clipPath id="clip0_8_9252">
<rect width="343" height="40" fill="white"/>
</clipPath>
</defs>
</svg>
