<svg width="129" height="43" viewBox="0 0 129 43" fill="none" xmlns="http://www.w3.org/2000/svg">
<path d="M21.8914 19.4225L26.2 0.842041L12.7031 12.6919L16.0561 4.71721L16.0569 4.71548L17.1546 2.10489L1.51962 16.1655L1.54357 16.1942C0.78157 16.7864 0.363493 17.769 0.541875 18.7858L4.23291 39.8165C4.46226 41.1234 5.59846 42.0437 6.88105 42.0437C7.03548 42.0437 7.19221 42.0303 7.34971 42.0025L17.7286 40.1811C18.8039 39.9924 19.6152 39.189 19.8696 38.1961L19.8985 38.2308L27.1517 15.4594L21.891 19.4225H21.8914ZM18.6753 37.7842C18.6303 37.8949 18.5761 38.0026 18.5058 38.1028C18.2605 38.4517 17.8946 38.6847 17.4746 38.7587L7.05675 40.5869C6.96325 40.6032 6.86975 40.6115 6.7772 40.6115C6.45224 40.6115 6.13552 40.5118 5.86383 40.3214C5.81765 40.2888 5.77934 40.2492 5.73737 40.2127C5.46185 39.9736 5.27216 39.6548 5.20798 39.2906L4.7146 36.479L3.4027 29.0046L1.59511 18.7057C1.52116 18.2854 1.61543 17.8617 1.86029 17.5124C1.9787 17.344 2.12624 17.2041 2.29351 17.0945C2.47266 16.9771 2.67441 16.8947 2.8915 16.8566L11.5188 15.3425L13.3087 15.0283C14.1752 14.8748 15.0056 15.4577 15.1579 16.3249L16.6202 24.6567L18.7633 36.8679L18.7708 36.9097C18.8233 37.2094 18.7869 37.5094 18.675 37.7844L18.6753 37.7842Z" fill="url(#paint0_linear_921_7932)"/>
<path d="M15.9634 28.1655L15.5365 25.7331L14.6701 26.5936L12.2268 29.0199L5.79888 35.4026L6.44324 39.0735C6.45914 39.1639 6.50896 39.2429 6.58407 39.2956C6.65956 39.348 6.75057 39.3685 6.84005 39.3523L9.28221 38.9236L11.4207 38.5483L17.2579 37.524C17.4443 37.4914 17.5692 37.313 17.5367 37.127L17.1513 34.9318L15.9638 28.1657L15.9634 28.1655Z" fill="url(#paint1_linear_921_7932)"/>
<path d="M8.12009 23.3021L10.9315 16.7184L8.86274 17.0813L3.12194 18.089L3.10872 18.0913C2.92229 18.1238 2.79736 18.3022 2.83013 18.4884L4.38269 27.3342L4.94753 30.5531L4.96976 30.6797L7.89783 23.8229L8.12009 23.3021Z" fill="url(#paint2_linear_921_7932)"/>
<path d="M1.86049 17.5124C1.61562 17.8617 1.52135 18.2854 1.59531 18.7057L3.40289 29.0046L4.71479 36.479L5.20817 39.2906C5.27236 39.655 5.46204 39.9736 5.73757 40.2129C5.77953 40.2493 5.81785 40.289 5.86403 40.3216C6.13572 40.5122 6.45244 40.6117 6.7774 40.6117C6.86994 40.6117 6.96344 40.6034 7.05694 40.5871L17.4748 38.7589C17.8948 38.6851 18.2607 38.4519 18.506 38.103C18.5763 38.0028 18.6303 37.8951 18.6755 37.7844C18.7874 37.5094 18.8238 37.2094 18.7713 36.9097L18.7639 36.8679L16.6208 24.6567L15.1585 16.3249C15.0062 15.4577 14.1757 14.8748 13.3093 15.0283L11.5194 15.3425L2.89208 16.8566C2.6748 16.8947 2.47304 16.9771 2.29408 17.0945C2.12701 17.2041 1.97928 17.3438 1.86087 17.5124H1.86049ZM4.38255 27.3342L2.83 18.4885C2.79742 18.3022 2.92216 18.124 3.10859 18.0913L3.12181 18.089L8.86261 17.0813L10.9313 16.7182L8.11996 23.3019L7.8977 23.8225L4.96962 30.6794L4.9474 30.5527L4.38255 27.3338V27.3342ZM9.28164 38.9236L6.83948 39.3523C6.75019 39.3685 6.65899 39.3482 6.58349 39.2955C6.50839 39.2429 6.45857 39.1641 6.44267 39.0735L5.79831 35.4026L12.2262 29.0199L14.6695 26.5936L15.5359 25.7331L15.9628 28.1655L17.1504 34.9316L17.5357 37.1268C17.5683 37.3128 17.4435 37.4912 17.2569 37.5238L11.4197 38.5481L9.28126 38.9234L9.28164 38.9236Z" fill="white"/>
<path d="M34.2922 26.9572C34.8063 26.9572 35.297 27.0419 35.7647 27.2115C36.2324 27.381 36.7127 27.6508 37.2061 28.0212L37.962 26.2943C37.5402 25.8932 36.9982 25.5825 36.3351 25.3612C35.6721 25.1406 34.9758 25.0297 34.2462 25.0297C33.1359 25.0297 32.1673 25.261 31.3396 25.7237C30.5125 26.186 29.8775 26.8413 29.4355 27.6895C28.9936 28.5374 28.7725 29.5218 28.7725 30.6417C28.7725 31.7728 28.9936 32.7618 29.4355 33.6097C29.8775 34.4579 30.5125 35.1155 31.3396 35.5832C32.1671 36.0513 33.1359 36.2848 34.2462 36.2848C34.9758 36.2848 35.6721 36.1739 36.3351 35.9533C36.9982 35.7324 37.5401 35.4213 37.962 35.0204L37.2061 33.2935C36.7127 33.6637 36.2324 33.9335 35.7647 34.103C35.297 34.2726 34.8063 34.3573 34.2922 34.3573C33.3053 34.3573 32.55 34.0417 32.0259 33.4094C31.5015 32.7771 31.2394 31.8548 31.2394 30.6417C31.2394 29.4394 31.5015 28.5247 32.0259 27.8974C32.55 27.2705 33.3053 26.9572 34.2922 26.9572Z" fill="#EC2900"/>
<path d="M54.4891 29.4394C54.2529 29.0384 53.9187 28.7199 53.487 28.4833C53.0555 28.2471 52.5671 28.1289 52.0226 28.1289C51.3543 28.1289 50.7582 28.3011 50.2342 28.6452C49.7101 28.9897 49.3015 29.4754 49.0083 30.1024C48.7152 30.7293 48.569 31.4436 48.569 32.2454C48.569 33.0473 48.7152 33.7539 49.0083 34.3649C49.3015 34.9769 49.7073 35.4469 50.2263 35.7759C50.745 36.1047 51.3439 36.2689 52.0226 36.2689C52.5669 36.2689 53.0553 36.1557 53.487 35.9296C53.9187 35.7037 54.2529 35.3902 54.4891 34.9892V36.1457H56.7864V28.3289H54.4891V29.4392V29.4394ZM54.027 33.9103C53.7185 34.3009 53.2765 34.4962 52.7011 34.4962C52.1151 34.4962 51.6653 34.3034 51.3518 33.9179C51.0383 33.5324 50.8818 32.9751 50.8818 32.2452C50.8818 31.5154 51.041 30.945 51.3598 30.5338C51.6783 30.1229 52.1251 29.9173 52.7011 29.9173C53.277 29.9173 53.7185 30.1154 54.027 30.5109C54.3354 30.9065 54.4891 31.4742 54.4891 32.2142C54.4891 32.9542 54.3352 33.5198 54.027 33.9103Z" fill="#EC2900"/>
<path d="M63.4928 28.1289C62.9274 28.1289 62.4214 28.2521 61.974 28.4987C61.527 28.7454 61.1649 29.1003 60.887 29.5626L60.7328 28.3291H58.5437C58.6257 28.9871 58.6669 29.7322 58.6669 30.5645V36.1459H60.9953V31.7672C60.9953 31.2121 61.1492 30.7705 61.4574 30.4413C61.7659 30.1125 62.1769 29.9478 62.691 29.9478C63.1225 29.9478 63.4386 30.0736 63.6394 30.3256C63.8398 30.5774 63.9398 30.9755 63.9398 31.5204V36.1457H66.2678V31.4126C66.2678 29.2231 65.343 28.1285 63.4928 28.1285V28.1289Z" fill="#EC2900"/>
<path d="M71.2636 25.739L68.9356 26.4943V28.3289H67.4553V30.071H68.9356V33.1548C68.9356 34.1417 69.1899 34.9074 69.6986 35.4521C70.2073 35.997 70.9448 36.2689 71.911 36.2689C72.4352 36.2689 72.8821 36.1971 73.2522 36.0534V34.2494C72.9645 34.3215 72.7075 34.3571 72.4814 34.3571C72.1212 34.3571 71.8284 34.2571 71.6025 34.0567C71.3763 33.8561 71.2634 33.5399 71.2634 33.1082V30.0708H73.252V28.3287H71.2634V25.7388L71.2636 25.739Z" fill="#EC2900"/>
<path d="M95.3179 29.4239C95.0816 29.0231 94.7473 28.7046 94.3158 28.4678C93.8843 28.2316 93.3959 28.1133 92.8514 28.1133C92.183 28.1133 91.5868 28.2856 91.0627 28.6297C90.5387 28.9742 90.13 29.4601 89.8369 30.087C89.5439 30.7138 89.3977 31.4283 89.3977 32.2301C89.3977 33.032 89.5439 33.7386 89.8369 34.3498C90.13 34.9616 90.5358 35.4318 91.0551 35.7608C91.5737 36.0896 92.1727 36.2538 92.8514 36.2538C93.3957 36.2538 93.8841 36.1405 94.3158 35.9146C94.7473 35.6885 95.0816 35.3753 95.3179 34.9743V36.1306H97.6152V28.3138H95.3179V29.4239ZM94.8555 33.895C94.547 34.2856 94.1052 34.4809 93.5296 34.4809C92.9437 34.4809 92.4938 34.2881 92.1802 33.9028C91.8667 33.5171 91.7102 32.9597 91.7102 32.2301C91.7102 31.5005 91.8694 30.9299 92.1882 30.5187C92.5067 30.1077 92.9535 29.9021 93.5294 29.9021C94.1054 29.9021 94.5468 30.1001 94.8553 30.4957C95.1638 30.8912 95.3177 31.4591 95.3177 32.1991C95.3177 32.939 95.1638 33.5047 94.8553 33.8953L94.8555 33.895Z" fill="#EC2900"/>
<path d="M103.81 31.536L102.5 31.2432C102.171 31.1713 101.942 31.0813 101.814 30.9734C101.685 30.8652 101.621 30.724 101.621 30.549C101.621 30.3128 101.729 30.1277 101.945 29.9943C102.161 29.8608 102.458 29.7937 102.839 29.7937C103.229 29.7937 103.633 29.8658 104.049 30.0097C104.465 30.1536 104.874 30.3641 105.275 30.6419L105.922 29.0848C105.501 28.7763 105.023 28.5374 104.489 28.3676C103.954 28.1981 103.409 28.1134 102.854 28.1134C102.196 28.1134 101.616 28.2189 101.112 28.4297C100.608 28.6403 100.215 28.9359 99.9327 29.3159C99.6495 29.6966 99.5083 30.1281 99.5083 30.6111C99.5083 31.2072 99.6859 31.6852 100.04 32.0451C100.395 32.4051 100.947 32.667 101.698 32.8312L102.977 33.1244C103.368 33.2066 103.64 33.3043 103.794 33.4171C103.949 33.5304 104.026 33.6846 104.026 33.88C104.026 34.1163 103.918 34.2962 103.702 34.4194C103.486 34.5428 103.178 34.6047 102.777 34.6047C102.253 34.6047 101.739 34.525 101.235 34.3657C100.731 34.2065 100.274 33.9779 99.8631 33.6794L99.2464 35.2985C100.1 35.9357 101.266 36.254 102.746 36.254C103.784 36.254 104.601 36.0384 105.198 35.6068C105.794 35.1747 106.092 34.589 106.092 33.849C106.092 33.2324 105.912 32.739 105.552 32.3687C105.192 31.9989 104.612 31.7214 103.81 31.5362L103.81 31.536Z" fill="#EC2900"/>
<path d="M110.795 25.7237L108.467 26.4792V28.3136H106.987V30.0558H108.467V33.1397C108.467 34.1264 108.721 34.8923 109.23 35.437C109.739 35.9817 110.476 36.2538 111.443 36.2538C111.967 36.2538 112.414 36.1821 112.784 36.0382V34.2341C112.496 34.3061 112.239 34.342 112.013 34.342C111.653 34.342 111.36 34.2418 111.134 34.0415C110.908 33.8409 110.795 33.5248 110.795 33.0931V30.0558H112.784V28.3136H110.795V25.7237H110.795Z" fill="#EC2900"/>
<path d="M117.702 28.1134C116.962 28.1134 116.299 28.2856 115.713 28.6297C115.127 28.9742 114.673 29.4573 114.349 30.0792C114.025 30.701 113.863 31.4078 113.863 32.1987C113.863 33.453 114.238 34.4424 114.989 35.1668C115.739 35.8915 116.772 36.2536 118.088 36.2536C118.643 36.2536 119.195 36.1689 119.745 35.9994C120.295 35.8298 120.755 35.596 121.125 35.2981L120.508 33.7256C120.169 33.9825 119.799 34.1778 119.398 34.3115C118.997 34.4449 118.596 34.5117 118.196 34.5117C117.527 34.5117 117.024 34.3449 116.685 34.0107C116.345 33.6769 116.155 33.1452 116.114 32.4152H121.263V32.0761C121.263 30.8633 120.945 29.8995 120.308 29.1852C119.67 28.4709 118.802 28.1138 117.702 28.1138L117.702 28.1134ZM116.161 31.2585C116.243 30.7652 116.42 30.39 116.692 30.1329C116.965 29.8763 117.322 29.7477 117.764 29.7477C118.637 29.7477 119.136 30.2515 119.259 31.2585H116.16H116.161Z" fill="#EC2900"/>
<path d="M127.276 28.1289C126.752 28.1289 126.282 28.2601 125.865 28.522C125.449 28.7839 125.143 29.162 124.948 29.6553L124.794 28.3137H122.605C122.687 28.9719 122.728 29.7169 122.728 30.5494V36.1306H125.056V32.045C125.056 31.4489 125.218 30.9839 125.542 30.6498C125.865 30.3156 126.336 30.1487 126.953 30.1487C127.332 30.1487 127.713 30.2363 128.093 30.4108L128.109 28.2831C127.883 28.1808 127.605 28.1289 127.276 28.1289Z" fill="#EC2900"/>
<path d="M85.5155 36.1308H87.8441V24.7931L85.5155 25.5499V36.1308Z" fill="#EC2900"/>
<path d="M44.3293 28.1289C43.8049 28.1289 43.3272 28.2366 42.8954 28.4527C42.4637 28.6682 42.1092 28.9821 41.832 29.3929V24.8329L39.5036 25.5898V36.1461H41.832V31.7674C41.832 31.2123 41.9858 30.7707 42.2941 30.4415C42.6026 30.1127 43.0136 29.9479 43.5276 29.9479C43.9591 29.9479 44.2753 30.0738 44.4761 30.3258C44.6763 30.5776 44.7765 30.9757 44.7765 31.5204V36.1457H47.1045V31.4126C47.1045 29.2231 46.1796 28.1285 44.3295 28.1285L44.3293 28.1289Z" fill="#EC2900"/>
<path d="M83.4277 31.4432C83.1257 31.0439 82.7092 30.7557 82.1928 30.5632L80.4207 36.1273C81.4534 36.0825 82.2934 35.8265 82.919 35.3364C83.6076 34.797 83.9521 34.0643 83.9521 33.1397C83.9521 32.4714 83.7772 31.9059 83.4277 31.4432Z" fill="#EC2900"/>
<path d="M83.65 27.6188C83.5989 27.3431 83.4996 27.0229 83.3636 26.7624C83.1505 26.3546 82.7828 26.0228 82.6648 25.9319C82.0019 25.4232 81.1 25.1686 79.959 25.1686H74.9024V36.1457H80.1132C80.1874 36.1457 80.2519 36.1352 80.3242 36.1331L79.3711 30.703C79.3119 30.3652 79.0182 30.1275 78.6866 30.1275C78.6467 30.1275 78.6061 30.1309 78.5655 30.138L75.8826 30.6088C75.7669 30.6291 75.6659 30.6511 75.6659 30.6511L79.6114 27.1028L78.4606 29.8393L81.9494 26.7763L80.8358 31.5789L82.1816 30.558C82.1816 30.558 82.1804 30.5574 82.1799 30.5572C82.1973 30.544 82.223 30.5254 82.2431 30.5105C82.2452 30.5093 82.2471 30.508 82.2492 30.5068C82.2492 30.5068 82.7811 30.1233 82.9449 29.979C83.5602 29.4367 83.6947 28.8616 83.6947 28.1511C83.6947 28.0105 83.6914 27.8426 83.6498 27.6188H83.65Z" fill="#EC2900"/>
<defs>
<linearGradient id="paint0_linear_921_7932" x1="23.7643" y1="0.0557029" x2="5.23039" y2="38.2138" gradientUnits="userSpaceOnUse">
<stop offset="0.033" stop-color="#D6FF2B"/>
<stop offset="0.187" stop-color="#F6D600"/>
<stop offset="0.482" stop-color="#ED5800"/>
<stop offset="1" stop-color="#EC2900"/>
</linearGradient>
<linearGradient id="paint1_linear_921_7932" x1="28.2357" y1="2.22753" x2="9.70184" y2="40.3856" gradientUnits="userSpaceOnUse">
<stop offset="0.033" stop-color="#D6FF2B"/>
<stop offset="0.187" stop-color="#F6D600"/>
<stop offset="0.482" stop-color="#ED5800"/>
<stop offset="1" stop-color="#EC2900"/>
</linearGradient>
<linearGradient id="paint2_linear_921_7932" x1="17.3021" y1="-3.08295" x2="-1.23165" y2="35.0749" gradientUnits="userSpaceOnUse">
<stop offset="0.033" stop-color="#D6FF2B"/>
<stop offset="0.187" stop-color="#F6D600"/>
<stop offset="0.482" stop-color="#ED5800"/>
<stop offset="1" stop-color="#EC2900"/>
</linearGradient>
</defs>
</svg>
