<svg width="240" height="50" viewBox="0 0 240 50" fill="none" xmlns="http://www.w3.org/2000/svg">
<g clip-path="url(#clip0_1_724)">
<path d="M123.382 10.7831C123.382 13.9756 120.986 15.9617 117.159 15.9617H114.274V19.911H110.959V5.5874H117.159C120.986 5.5874 123.382 7.57348 123.382 10.7859V10.7831ZM120.027 10.7831C120.027 9.20673 119.003 8.28767 116.977 8.28767H114.277V13.2614H116.977C119.003 13.2614 120.027 12.3395 120.027 10.7859V10.7831Z" fill="#213368"/>
<path d="M133.936 16.8437H127.283L126.014 19.9139H122.617L129.002 5.5874H132.277L138.682 19.9139H135.202L133.933 16.8437H133.936ZM132.894 14.3256L130.624 8.83967L128.353 14.3256H132.897H132.894Z" fill="#213368"/>
<path d="M153.831 5.5874V19.9139H151.108L143.966 11.2156V19.9139H140.691V5.5874H143.434L150.556 14.2857V5.5874H153.831Z" fill="#213368"/>
<path d="M170.365 5.5874V19.9139H167.642L160.5 11.2156V19.9139H157.225V5.5874H159.968L167.09 14.2857V5.5874H170.365Z" fill="#213368"/>
<path d="M172.858 12.7491C172.858 8.49245 176.172 5.33977 180.697 5.33977C185.221 5.33977 188.536 8.47254 188.536 12.7491C188.536 17.0257 185.201 20.1585 180.697 20.1585C176.192 20.1585 172.858 17.0058 172.858 12.7491ZM185.178 12.7491C185.178 10.0261 183.255 8.16524 180.697 8.16524C178.139 8.16524 176.215 10.029 176.215 12.7491C176.215 15.4693 178.139 17.3331 180.697 17.3331C183.255 17.3331 185.178 15.4693 185.178 12.7491ZM181.599 1.4729H185.036L181.331 4.42071H178.833L181.596 1.4729H181.599Z" fill="#213368"/>
<path d="M204.168 5.5874V19.9139H201.445L194.303 11.2156V19.9139H191.028V5.5874H193.771L200.893 14.2857V5.5874H204.168Z" fill="#213368"/>
<path d="M207.563 5.5874H210.878V19.9139H207.563V5.5874Z" fill="#213368"/>
<path d="M223.71 16.8437H217.058L215.789 19.9139H212.391L218.776 5.5874H222.051L228.456 19.9139H224.976L223.707 16.8437H223.71ZM222.666 14.3256L220.395 8.83967L218.125 14.3256H222.669H222.666Z" fill="#213368"/>
<path d="M124.099 38.3519C124.099 40.8274 122.136 42.2614 118.368 42.2614H110.959V27.9349H117.959C121.541 27.9349 123.382 29.4288 123.382 31.6595C123.382 33.0936 122.645 34.1976 121.478 34.8122C123.075 35.3244 124.099 36.5507 124.099 38.3519ZM114.254 30.4332V33.8106H117.549C119.165 33.8106 120.044 33.2387 120.044 32.112C120.044 30.9852 119.165 30.4332 117.549 30.4332H114.254ZM120.764 38.0047C120.764 36.7983 119.842 36.2235 118.124 36.2235H114.257V39.7632H118.124C119.842 39.7632 120.764 39.2311 120.764 38.0019V38.0047Z" fill="#213368"/>
<path d="M126.131 27.9349H129.445V42.2614H126.131V27.9349Z" fill="#213368"/>
<path d="M144.446 39.561V42.2613H131.921V40.113L139.78 30.6379H132.086V27.9376H144.139V30.0859L136.3 39.561H144.446Z" fill="#213368"/>
<path d="M150.595 30.6379H146.011V27.9376H158.497V30.6379H153.913V42.2613H150.598V30.6379H150.595Z" fill="#213368"/>
<path d="M158.596 35.0994C158.596 30.8427 161.911 27.6901 166.435 27.6901C170.96 27.6901 174.274 30.8228 174.274 35.0994C174.274 39.376 170.94 42.5088 166.435 42.5088C161.931 42.5088 158.596 39.3561 158.596 35.0994ZM170.917 35.0994C170.917 32.3764 168.993 30.5155 166.435 30.5155C163.877 30.5155 161.954 32.3793 161.954 35.0994C161.954 37.8196 163.877 39.6833 166.435 39.6833C168.993 39.6833 170.917 37.8196 170.917 35.0994Z" fill="#213368"/>
<path d="M175.64 40.8499L176.767 38.3517C177.973 39.2309 179.774 39.8455 181.493 39.8455C183.456 39.8455 184.256 39.1911 184.256 38.3119C184.256 35.6315 175.928 37.4725 175.928 32.1516C175.928 29.716 177.891 27.6901 181.965 27.6901C183.767 27.6901 185.608 28.1197 186.939 28.9591L185.915 31.4773C184.583 30.7204 183.215 30.3505 181.946 30.3505C179.982 30.3505 179.222 31.0874 179.222 31.9866C179.222 34.6271 187.551 32.8061 187.551 38.0643C187.551 40.4601 185.565 42.506 181.473 42.506C179.203 42.506 176.909 41.8316 175.64 40.8471V40.8499Z" fill="#213368"/>
<path d="M192.38 23.8234H195.817L192.112 26.7712H189.614L192.377 23.8234H192.38ZM189.822 27.9349H193.136V42.2614H189.822V27.9349Z" fill="#213368"/>
<path d="M199.792 30.6379H195.208V27.9376H207.693V30.6379H203.11V42.2613H199.795V30.6379H199.792Z" fill="#213368"/>
<path d="M208.075 35.0996C208.075 30.8429 211.39 27.6902 215.914 27.6902C220.438 27.6902 223.753 30.823 223.753 35.0996C223.753 39.3762 220.418 42.509 215.914 42.509C211.409 42.509 208.075 39.3563 208.075 35.0996ZM220.395 35.0996C220.395 32.3766 218.472 30.5157 215.914 30.5157C213.356 30.5157 211.432 32.3794 211.432 35.0996C211.432 37.8198 213.356 39.6835 215.914 39.6835C218.472 39.6835 220.395 37.8198 220.395 35.0996ZM216.813 23.8234H220.25L216.545 26.7712H214.047L216.81 23.8234H216.813Z" fill="#213368"/>
<path d="M231.464 36.6333L229.54 38.6393V42.2614H226.245V27.9349H229.54V34.6273L235.886 27.9349H239.57L233.635 34.32L239.917 42.2614H236.051L231.467 36.6333H231.464Z" fill="#213368"/>
<path d="M76.3425 20.8953V30.4985H85.607V36.2462C83.7149 37.5323 81.2792 38.2066 78.0326 38.2066C70.5265 38.2066 65.1858 32.7293 65.1858 25.0211V24.8845C65.1858 17.6487 70.4583 11.9665 77.29 11.9665C82.0219 11.9665 85.3367 13.5884 88.7199 16.4309L96.428 7.09808C91.423 2.77025 85.5388 0.269165 77.2189 0.269165C68.899 0.269165 61.555 3.93117 57.0024 9.69022V40.315C61.6034 46.0343 68.8904 49.5028 77.4892 49.5028C86.0879 49.5028 93.0449 46.3245 98.0471 42.1332V20.8982H76.3396L76.3425 20.8953Z" fill="#213368"/>
<path d="M39.779 34.3343L36.1996 31.7848C33.3599 35.2334 30.4519 37.5325 25.5151 37.5325C18.8854 37.5325 14.2218 31.9869 14.2218 24.8848V24.7482C14.2218 17.851 18.8854 12.1688 25.5151 12.1688C30.045 12.1688 33.1578 14.3996 35.8638 17.7144L45.7373 10.0717C41.5403 4.32692 35.3203 0.269409 25.6489 0.269409C11.3139 0.269409 0.763184 11.0904 0.763184 24.8848V25.0214C0.763184 39.1544 11.6525 49.503 25.1765 49.503C31.4307 49.503 36.08 47.847 39.779 45.2093V34.3371V34.3343Z" fill="#213368"/>
<path d="M41.8307 15.6967V48.5551H54.9536V5.53296L41.8307 15.6967Z" fill="#213368"/>
<path d="M54.9537 2.94358V1.21643H41.8336V3.24803C43.8766 4.77316 45.7375 6.60274 47.3593 8.81644L54.9537 2.94358Z" fill="#EE3D96"/>
</g>
<defs>
<clipPath id="clip0_1_724">
<rect width="239.151" height="49.2308" fill="white" transform="translate(0.763184 0.269409)"/>
</clipPath>
</defs>
</svg>
