<svg id="a4c1652c-c0af-49d0-b08b-81dba3cd9913" data-name="Layer 1" xmlns="http://www.w3.org/2000/svg" viewBox="0 0 129.9 35.2"><path d="M208.8,242.4c-2-5-4.5-10.7-7.9-17.3,0,7.4-.2,12.6-1.7,18.3a67.7,67.7,0,0,1-7.1,16.7c8.2-1,15.9-5.4,21.9-2.1C212.1,251.8,210.7,247.5,208.8,242.4Zm-11.3-11.9-7,20.3,4.7-1.4Z" transform="translate(-190.5 -225.1)" style="fill:#fff"/><path d="M220.6,228.1H226a5.7,5.7,0,0,1,1.8.3,4.4,4.4,0,0,1,1.6.6,5.7,5.7,0,0,1,1.4,1.3,6.7,6.7,0,0,1,.9,2.1,12.6,12.6,0,0,1,.3,3v6.1a14.2,14.2,0,0,1-.3,3.1,5.3,5.3,0,0,1-.9,2,4.3,4.3,0,0,1-1.4,1.3l-1.6.7-1.8.3h-5.4Zm4.5,18.6,1.5-.2a1.6,1.6,0,0,0,1-.8,2.5,2.5,0,0,0,.5-1.5,16.6,16.6,0,0,0,.2-2.4v-6.5a14.4,14.4,0,0,0-.2-2.4,2.1,2.1,0,0,0-.5-1.5,1.4,1.4,0,0,0-1-.8,3.4,3.4,0,0,0-1.5-.2h-1v16.3Z" transform="translate(-190.5 -225.1)" style="fill:#fff"/><path d="M236.9,228.1H241l4.4,20.8h-3.6l-.7-3.7h-4.3l-.6,3.7h-3.6Zm3.8,14.7-1.6-10.4h-.2l-1.7,10.4Z" transform="translate(-190.5 -225.1)" style="fill:#fff"/><path d="M246.8,228.1h2.9l5.7,13.9h.1c0-.3-.1-.7-.1-1.1a5.3,5.3,0,0,1-.1-1.3,10.3,10.3,0,0,1-.1-1.8,13.4,13.4,0,0,1-.1-2.1v-7.6h3.2v20.8h-2.9l-5.7-13.6h-.1c0,.4.1.8.1,1.2a6.6,6.6,0,0,1,.1,1.5,12.7,12.7,0,0,1,.1,2,23.5,23.5,0,0,1,.1,2.8v6.1h-3.2Z" transform="translate(-190.5 -225.1)" style="fill:#fff"/><path d="M261.4,228.1H265v15.2a8.6,8.6,0,0,0,.1,1.7l.3,1a1.8,1.8,0,0,0,.7.5l.9.2.9-.2a1,1,0,0,0,.6-.5,3,3,0,0,0,.4-1,7.9,7.9,0,0,0,.2-1.7V228.1h3.5v14.4a9.8,9.8,0,0,1-.3,2.6,4.8,4.8,0,0,1-.7,1.8,4,4,0,0,1-1,1.2,3.1,3.1,0,0,1-1.3.6l-1.2.3h-2.3a2.7,2.7,0,0,1-1.2-.3,3.4,3.4,0,0,1-1.2-.6,4,4,0,0,1-1-1.2,4.8,4.8,0,0,1-.7-1.8,9.8,9.8,0,0,1-.3-2.6Z" transform="translate(-190.5 -225.1)" style="fill:#fff"/><path d="M275.7,228.1H281l1.6.2,1.6.5a3.6,3.6,0,0,1,1.2.8,3.8,3.8,0,0,1,.9,1.3,5.4,5.4,0,0,1,.3,1.9v1a6.8,6.8,0,0,1-.2,1.5,6.3,6.3,0,0,1-.7,1.2,3.1,3.1,0,0,1-1.1.9,2.2,2.2,0,0,1-1.1.5h0a3.8,3.8,0,0,1,2.6,1.5,4.9,4.9,0,0,1,.9,3v1.1a5.4,5.4,0,0,1-.3,1.9,3.6,3.6,0,0,1-.8,1.5,2.7,2.7,0,0,1-1.2.9,3.9,3.9,0,0,1-1.5.6l-1.8.3h-5.7Zm4.2,8.9,1.3-.2a1.9,1.9,0,0,0,1-.5,1.6,1.6,0,0,0,.6-.8,2.4,2.4,0,0,0,.3-1.2v-.9a5.1,5.1,0,0,0-.2-1.3,1.9,1.9,0,0,0-.5-.9,2.1,2.1,0,0,0-1-.6,3.4,3.4,0,0,0-1.5-.2h-.7V237Zm.3,9.7,1.3-.2a1.9,1.9,0,0,0,1-.5,2.2,2.2,0,0,0,.7-.9,3.7,3.7,0,0,0,.2-1.2v-1.7a5.9,5.9,0,0,0-.2-1.3,4.1,4.1,0,0,0-.5-.9,2.1,2.1,0,0,0-1-.6l-1.5-.2h-1v7.5Z" transform="translate(-190.5 -225.1)" style="fill:#fff"/><path d="M289.2,228.1h3.6v20.8h-3.6Z" transform="translate(-190.5 -225.1)" style="fill:#fff"/><path d="M295.9,228.1h3.6v15.2a8.6,8.6,0,0,0,.1,1.7,3,3,0,0,0,.4,1,1,1,0,0,0,.6.5l.9.2.9-.2a1,1,0,0,0,.6-.5,3,3,0,0,0,.4-1,7.9,7.9,0,0,0,.2-1.7V228.1h3.5v14.4a9.8,9.8,0,0,1-.3,2.6,4.8,4.8,0,0,1-.7,1.8,4,4,0,0,1-1,1.2,3.4,3.4,0,0,1-1.2.6l-1.3.3h-2.2a2.8,2.8,0,0,1-1.3-.3,3.4,3.4,0,0,1-1.2-.6,4,4,0,0,1-1-1.2,4.8,4.8,0,0,1-.7-1.8,9.8,9.8,0,0,1-.3-2.6Z" transform="translate(-190.5 -225.1)" style="fill:#fff"/><path d="M309.3,244.7a5.3,5.3,0,0,1,.1-1.3,7.4,7.4,0,0,1,.2-1.2h2.8v1a6.6,6.6,0,0,0,.1,1.5,3.6,3.6,0,0,0,.4,1.1l.7.7,1.1.2a2.5,2.5,0,0,0,1.6-.5,2,2,0,0,0,.5-1.4,2.2,2.2,0,0,0-.1-.9,1.9,1.9,0,0,0-.2-.8,4.1,4.1,0,0,0-.5-.9l-.8-1-3.8-3.9a15,15,0,0,1-1.5-2.3,6,6,0,0,1-.5-2.4,5.8,5.8,0,0,1,.3-1.9,4.2,4.2,0,0,1,1.1-1.5,4.8,4.8,0,0,1,1.7-1,8,8,0,0,1,2.3-.3,6.8,6.8,0,0,1,2.6.4,4.8,4.8,0,0,1,1.7,1,2.9,2.9,0,0,1,.8,1.4,4.5,4.5,0,0,1,.3,1.6c0,.4-.1.8-.1,1.2l-.3,1.3H317v-1a4.8,4.8,0,0,0-.5-2.6,2,2,0,0,0-1.7-.8,2.1,2.1,0,0,0-1.6.5,1.7,1.7,0,0,0-.4,1.3v.8a1.4,1.4,0,0,1,.2.6l.4.6.5.6,4.1,4.4a11.9,11.9,0,0,1,1.8,2.5,5.8,5.8,0,0,1,.6,2.6,6.5,6.5,0,0,1-.4,2,4.4,4.4,0,0,1-1.2,1.5,5.5,5.5,0,0,1-1.7,1,8.5,8.5,0,0,1-2.3.3,7,7,0,0,1-2.7-.4,4,4,0,0,1-1.7-1,4.2,4.2,0,0,1-.9-1.4A8.8,8.8,0,0,1,309.3,244.7Z" transform="translate(-190.5 -225.1)" style="fill:#fff"/><path d="M222,260.1h-1.5v-8.4H222Z" transform="translate(-190.5 -225.1)" style="fill:#fff"/><path d="M231.3,251.7v1.4H229v7h-1.6v-7h-2.3v-1.4Z" transform="translate(-190.5 -225.1)" style="fill:#fff"/><path d="M242.4,258.9a2.1,2.1,0,0,0,1.2-.3.9.9,0,0,0,.4-.8.6.6,0,0,0-.3-.6l-.8-.5-1-.3-1.1-.5a1.8,1.8,0,0,1-.8-.7,2.1,2.1,0,0,1-.3-1.2,1.9,1.9,0,0,1,.8-1.7,2.8,2.8,0,0,1,2.1-.7,5.9,5.9,0,0,1,2.6.7v1.5a4.3,4.3,0,0,0-2.5-.8,1.8,1.8,0,0,0-1.1.3.8.8,0,0,0-.3.7.6.6,0,0,0,.4.6l1.1.5,1.3.5a2.1,2.1,0,0,1,1.1.8,1.8,1.8,0,0,1,.4,1.3,2.1,2.1,0,0,1-.8,1.9,3.6,3.6,0,0,1-2.2.7,6,6,0,0,1-2.9-.8V258A6,6,0,0,0,242.4,258.9Z" transform="translate(-190.5 -225.1)" style="fill:#fff"/><path d="M256,253.8a5.4,5.4,0,0,1,.5,2.1,5.4,5.4,0,0,1-.5,2.2,4.5,4.5,0,0,1-1.5,1.6,4,4,0,0,1-4.2,0,4.5,4.5,0,0,1-1.5-1.6,4.2,4.2,0,0,1-.5-2.2,4.8,4.8,0,0,1,1.1-3,4.2,4.2,0,0,1,3-1.3,3.7,3.7,0,0,1,2.1.6A5.7,5.7,0,0,1,256,253.8Zm-6.2,2.1a3.8,3.8,0,0,0,.7,2.1,2.3,2.3,0,0,0,1.9.9,2.1,2.1,0,0,0,1.8-.9,3.2,3.2,0,0,0,.8-2.1,3.2,3.2,0,0,0-.8-2,2.1,2.1,0,0,0-1.8-.9,2.3,2.3,0,0,0-1.9.9A3.7,3.7,0,0,0,249.8,255.9Z" transform="translate(-190.5 -225.1)" style="fill:#fff"/><path d="M265.1,258.7v1.4h-5.3v-8.4h1.6v7Z" transform="translate(-190.5 -225.1)" style="fill:#fff"/><path d="M273,256.9v-5.2h1.5V257a3.6,3.6,0,0,1-.8,2.4A3.3,3.3,0,0,1,268,257v-5.3h1.5v5.2a2,2,0,0,0,.5,1.4,1.5,1.5,0,0,0,1.3.6,1.6,1.6,0,0,0,1.3-.6A2,2,0,0,0,273,256.9Z" transform="translate(-190.5 -225.1)" style="fill:#fff"/><path d="M283.7,251.7v1.4h-2.3v7h-1.5v-7h-2.4v-1.4Z" transform="translate(-190.5 -225.1)" style="fill:#fff"/><path d="M288.3,260.1h-1.5v-8.4h1.5Z" transform="translate(-190.5 -225.1)" style="fill:#fff"/><path d="M299.2,253.8a4.2,4.2,0,0,1,.6,2.1,4.3,4.3,0,0,1-.6,2.2,5.2,5.2,0,0,1-1.4,1.6,4.3,4.3,0,0,1-2.2.6,4.2,4.2,0,0,1-2.1-.6,7.5,7.5,0,0,1-1.5-1.6,5.4,5.4,0,0,1-.5-2.2,4.4,4.4,0,0,1,1.2-3,4.1,4.1,0,0,1,2.9-1.3,3.8,3.8,0,0,1,3.6,2.2Zm-6.1,2.1a3.1,3.1,0,0,0,.7,2.1,2.3,2.3,0,0,0,1.8.9,2.3,2.3,0,0,0,1.9-.9,3.1,3.1,0,0,0,.7-2.1,3.1,3.1,0,0,0-.7-2,2.3,2.3,0,0,0-1.9-.9,2.3,2.3,0,0,0-1.8.9A3.1,3.1,0,0,0,293.1,255.9Z" transform="translate(-190.5 -225.1)" style="fill:#fff"/><path d="M308.8,256.9v-5.2h1.5v8.5h-.8l-5-5.8v5.7H303v-8.4h1.3Z" transform="translate(-190.5 -225.1)" style="fill:#fff"/><path d="M316.5,258.9a2.3,2.3,0,0,0,1.3-.3.9.9,0,0,0,.4-.8.6.6,0,0,0-.3-.6l-.8-.5a4.5,4.5,0,0,1-1.1-.3,3.1,3.1,0,0,1-1-.5,1.4,1.4,0,0,1-.8-.7,1.6,1.6,0,0,1-.4-1.2,2.1,2.1,0,0,1,.8-1.7,3,3,0,0,1,2.1-.7,6.8,6.8,0,0,1,2.7.7l-.2,1.5a4,4,0,0,0-2.4-.8,1.6,1.6,0,0,0-1.1.3.8.8,0,0,0-.4.7.7.7,0,0,0,.5.6l1.1.5,1.3.5a2.1,2.1,0,0,1,1.1.8,1.8,1.8,0,0,1,.4,1.3,2.4,2.4,0,0,1-.8,1.9,3.9,3.9,0,0,1-2.3.7,5.7,5.7,0,0,1-2.8-.8V258A5.7,5.7,0,0,0,316.5,258.9Z" transform="translate(-190.5 -225.1)" style="fill:#fff"/></svg>