<svg width="2972" height="945" viewBox="0 0 2972 945" fill="none" xmlns="http://www.w3.org/2000/svg">
<path d="M771.028 4.55383H851.045C863.123 4.55383 875.633 4.77036 888.789 5.41996C901.73 6.06955 914.455 8.01834 926.964 11.0498C939.258 14.2978 951.12 19.0615 962.12 25.7739C973.12 32.4864 982.825 41.5808 991.237 53.49C999.648 65.3992 1006.12 80.3399 1011.08 98.5286C1016.04 116.501 1018.41 138.587 1018.41 164.787V295.789C1018.41 321.773 1016.04 344.076 1011.08 362.048C1006.12 380.236 999.648 395.177 991.237 407.086C982.825 418.996 973.335 428.09 962.12 434.802C951.12 441.298 939.474 446.279 926.964 449.526C914.455 452.774 901.945 454.507 888.789 455.156C875.848 455.806 863.339 456.022 851.045 456.022H771.028V4.55383ZM867.868 408.169C881.672 408.169 893.103 406.653 902.161 403.405C911.22 400.157 918.337 394.744 923.513 386.732C928.69 378.721 932.356 367.678 934.297 354.036C936.238 340.178 937.317 322.639 937.317 301.635V161.539C937.317 140.319 936.238 122.997 934.297 109.139C932.356 95.2806 928.69 84.454 923.513 76.4424C918.337 68.4307 911.22 62.8009 902.161 59.7694C893.103 56.5214 881.672 55.0057 867.868 55.0057H848.241V408.602H867.868V408.169Z" fill="#13345E"/>
<path d="M1123.86 4.55383H1212.51L1306.54 456.022H1228.68L1214.66 375.04H1121.92L1108.55 456.022H1030.26L1124.08 4.55383H1123.86ZM1205.61 323.505L1169.8 98.5286H1166.57L1130.55 323.505H1205.61Z" fill="#13345E"/>
<path d="M1336.77 4.55383H1399.32L1522.47 306.616H1524.2C1523.55 299.47 1522.9 291.675 1521.83 283.014C1520.75 274.352 1519.89 264.608 1519.24 253.565C1518.38 242.522 1517.73 230.18 1517.08 216.105C1516.43 202.247 1516.22 186.44 1516.22 169.118V4.55383H1585.24V456.022H1522.26L1399.75 161.756H1397.38C1398.03 169.768 1398.67 178.212 1399.75 187.523C1400.83 196.834 1401.69 207.661 1402.34 220.219C1403.2 232.778 1403.85 247.286 1404.5 263.959C1405.14 280.632 1405.36 300.336 1405.36 323.289V456.022H1336.99V4.55383H1336.77Z" fill="#13345E"/>
<path d="M1651.43 4.55383H1729.07V335.414C1729.07 349.489 1729.94 361.182 1731.45 370.492C1732.96 379.803 1735.54 387.165 1739 392.795C1742.45 398.425 1746.98 402.323 1752.37 404.704C1757.76 407.086 1764.23 408.169 1771.78 408.169C1779.33 408.169 1785.8 407.086 1791.62 404.704C1797.23 402.323 1801.97 398.425 1805.64 392.795C1809.31 387.165 1812.11 379.803 1814.05 370.492C1815.99 361.182 1816.86 349.489 1816.86 335.414V4.55383H1893.64V317.226C1893.64 339.312 1891.7 358.15 1887.6 373.74C1883.72 389.331 1878.32 402.539 1871.85 413.149C1865.38 423.759 1857.83 432.204 1849.42 438.267C1841.01 444.546 1832.17 449.093 1823.33 452.341C1814.27 455.589 1805.42 457.755 1796.37 458.621C1787.52 459.487 1779.33 459.92 1771.99 459.92C1764.66 459.92 1756.68 459.487 1747.84 458.621C1739 457.755 1730.15 455.589 1721.31 452.341C1712.47 449.093 1703.84 444.33 1695.43 438.267C1687.02 432.204 1679.68 423.759 1673 413.149C1666.53 402.539 1661.14 389.547 1657.47 373.957C1653.59 358.367 1651.65 339.528 1651.65 317.226V4.55383H1651.43Z" fill="#13345E"/>
<path d="M1959.62 4.55383H2037.48C2048.91 4.55383 2060.99 4.9869 2073.28 5.63649C2085.58 6.28609 2097.44 7.80181 2109.3 10.1837C2120.95 12.5655 2132.17 15.8135 2142.52 20.3607C2153.09 24.9078 2162.14 30.9707 2170.12 38.5493C2177.89 46.1279 2184.14 55.4388 2188.89 66.6984C2193.42 77.9581 2195.79 91.383 2195.79 106.973V128.843C2195.79 140.752 2193.85 151.795 2189.97 161.972C2186.08 171.933 2180.91 180.811 2174.65 188.606C2168.4 196.184 2161.07 202.68 2152.87 207.661C2144.67 212.641 2136.48 216.105 2127.85 217.838V220.003C2153.09 224.117 2172.07 234.727 2184.79 251.833C2197.52 268.939 2203.99 291.025 2203.99 317.875V340.828C2203.99 357.284 2202.05 371.359 2197.95 383.484C2193.85 395.61 2188.24 405.787 2180.91 414.448C2173.58 422.893 2164.95 430.039 2154.81 435.452C2144.67 440.865 2133.67 445.196 2121.6 448.227C2109.52 451.259 2096.58 453.424 2082.99 454.507C2069.4 455.589 2055.17 456.239 2040.72 456.239H1959.84V4.55383H1959.62ZM2050.21 197.7C2060.56 197.7 2069.83 196.617 2078.46 194.452C2086.87 192.287 2094.21 188.822 2100.24 184.059C2106.28 179.295 2111.03 173.232 2114.26 165.87C2117.5 158.291 2119.22 149.414 2119.22 138.803V120.398C2119.22 109.788 2118.15 100.477 2115.77 92.4657C2113.4 84.4541 2109.52 77.525 2104.13 71.8952C2098.73 66.2654 2091.62 61.9347 2082.77 59.1198C2073.93 56.3049 2063.15 54.7892 2050.42 54.7892H2035.54V198.133H2050.42L2050.21 197.7ZM2057.32 408.385C2067.68 408.385 2076.95 407.303 2085.36 404.921C2093.77 402.539 2101.11 398.858 2107.15 393.878C2113.19 388.898 2117.93 382.402 2121.17 374.823C2124.4 367.028 2126.13 357.934 2126.13 347.324V312.245C2126.13 301.635 2125.05 292.324 2122.46 284.096C2120.09 275.868 2116.2 268.939 2110.81 263.526C2105.42 257.896 2098.3 253.782 2089.46 250.75C2080.83 247.936 2070.05 246.42 2057.32 246.42H2035.32V408.819H2057.32V408.385Z" fill="#13345E"/>
<path d="M2252.31 4.55383H2329.31V456.022H2252.31V4.55383Z" fill="#13345E"/>
<path d="M2395.53 4.55383H2473.18V335.414C2473.18 349.489 2474.04 361.182 2475.55 370.492C2477.06 379.803 2479.65 387.165 2483.1 392.795C2486.55 398.425 2491.08 402.323 2496.47 404.704C2501.86 407.086 2508.33 408.169 2515.88 408.169C2523.43 408.169 2529.9 407.086 2535.72 404.704C2541.33 402.323 2546.08 398.425 2549.74 392.795C2553.41 387.165 2556.21 379.803 2558.15 370.492C2560.1 361.182 2560.96 349.489 2560.96 335.414V4.55383H2637.74V317.226C2637.74 339.312 2635.8 358.15 2631.7 373.74C2627.82 389.331 2622.43 402.539 2615.96 413.149C2609.49 423.759 2601.94 432.204 2593.53 438.267C2585.11 444.546 2576.27 449.093 2567.43 452.341C2558.37 455.589 2549.53 457.755 2540.47 458.621C2531.63 459.487 2523.43 459.92 2516.1 459.92C2508.76 459.92 2500.78 459.487 2491.94 458.621C2483.1 457.755 2474.26 455.589 2465.41 452.341C2456.57 449.093 2447.94 444.33 2439.53 438.267C2431.12 432.204 2423.79 423.759 2417.1 413.149C2410.63 402.539 2405.45 389.547 2401.57 373.957C2397.69 358.367 2395.75 339.528 2395.75 317.226V4.55383H2395.53Z" fill="#13345E"/>
<path d="M2684.34 364.423C2684.34 354.679 2684.99 345.801 2686.28 337.573C2687.58 329.345 2689.52 320.467 2692.11 310.94H2751.85V332.809C2751.85 344.935 2752.71 355.762 2754.44 365.072C2756.16 374.383 2758.97 382.395 2762.85 388.674C2766.73 395.17 2771.91 399.934 2778.38 403.182C2784.85 406.43 2792.61 408.162 2802.1 408.162C2816.77 408.162 2827.98 404.698 2835.75 397.552C2843.51 390.407 2847.4 380.013 2847.4 366.155C2847.4 359.01 2846.75 352.73 2845.67 346.667C2844.59 340.821 2842.65 334.975 2840.06 329.128C2837.47 323.282 2833.81 317.219 2829.28 310.723C2824.75 304.227 2818.93 297.081 2811.81 289.07L2731.58 204.189C2717.34 187.95 2706.34 171.71 2698.58 155.253C2690.81 138.797 2686.93 121.258 2686.93 102.419C2686.93 87.4788 2689.52 73.6208 2694.91 61.2785C2700.09 48.7196 2707.85 37.8931 2717.77 28.7987C2727.69 19.7044 2739.99 12.5588 2754.44 7.57861C2769.1 2.59838 2785.5 0 2804.04 0C2826.47 0 2845.02 2.81491 2860.12 8.44474C2875 14.0746 2887.08 21.4366 2895.92 30.7475C2904.77 39.8418 2911.24 50.2354 2914.9 61.495C2918.57 72.7546 2920.3 84.2308 2920.3 95.707C2920.3 105.451 2919.43 114.329 2917.71 122.557C2915.98 130.785 2914.04 139.879 2911.88 149.623H2852.36V128.187C2852.36 104.152 2848.47 85.7466 2840.71 73.1877C2832.94 60.4123 2820.44 53.9164 2802.97 53.9164C2788.51 53.9164 2777.73 57.3809 2770.61 64.5264C2763.5 71.672 2759.83 81.1994 2759.83 93.1086C2759.83 99.3881 2760.26 105.234 2761.34 110.215C2762.42 115.411 2763.93 119.959 2766.08 124.289C2768.24 128.62 2770.61 132.734 2773.63 136.848C2776.65 140.962 2779.89 145.076 2783.77 149.623L2873.28 245.763C2889.45 264.602 2901.96 282.79 2910.81 300.113C2919.43 317.435 2923.96 335.841 2923.96 355.112C2923.96 371.135 2921.16 385.643 2915.55 398.418C2909.94 411.194 2901.75 422.237 2891.39 431.115C2880.83 439.992 2868.1 446.921 2853.22 451.902C2838.34 456.665 2821.51 459.264 2802.97 459.264C2779.89 459.264 2760.91 456.449 2745.59 451.036C2730.5 445.622 2718.42 438.26 2709.36 429.382C2700.3 420.505 2694.05 410.111 2690.38 398.635C2686.71 387.159 2684.99 375.466 2684.99 363.557L2684.34 364.423Z" fill="#13345E"/>
<path d="M463.318 420.919C420.855 308.163 365.19 178.686 290.604 30.453C291.264 197.892 286.644 315.394 253.861 444.193C222.839 569.152 163.874 705.634 97.4289 822.232C277.843 797.827 447.257 698.855 578.607 774.779C536.804 634.455 506.662 536.161 463.538 420.919H463.318ZM215.578 152.474L60.906 610.051L165.414 578.868L215.578 152.474Z" fill="#13345E"/>
<path d="M730.872 578.607C730.872 544.97 758.141 517.701 791.779 517.701H2910.83C2944.47 517.701 2971.73 544.97 2971.73 578.607V791.779C2971.73 825.416 2944.47 852.685 2910.83 852.685H791.779C758.141 852.685 730.872 825.416 730.872 791.779V578.607Z" fill="#FFB63D"/>
<path d="M2666.05 781.942V588.444H2709.08V781.942H2666.05ZM2785.82 781.942V588.444H2829.12V781.942H2785.82ZM2691.81 701.089V663.815H2800.07V701.089H2691.81Z" fill="#13345E"/>
<path d="M2511.34 784.957C2496.9 784.957 2483.47 782.49 2471.05 777.557C2458.81 772.441 2448.03 765.315 2438.71 756.179C2429.57 747.043 2422.45 736.445 2417.33 724.386C2412.21 712.144 2409.66 698.988 2409.66 684.919C2409.66 670.85 2412.21 657.785 2417.33 645.726C2422.45 633.484 2429.57 622.886 2438.71 613.933C2447.84 604.98 2458.53 598.036 2470.78 593.103C2483.2 587.987 2496.63 585.429 2511.06 585.429C2526.41 585.429 2540.03 587.896 2551.9 592.829C2563.96 597.762 2574.47 604.523 2583.42 613.111L2554.64 642.163C2549.53 636.681 2543.31 632.387 2536.01 629.281C2528.88 626.175 2520.57 624.622 2511.06 624.622C2502.66 624.622 2494.89 626.084 2487.77 629.007C2480.83 631.748 2474.8 635.768 2469.68 641.067C2464.75 646.365 2460.82 652.761 2457.89 660.252C2455.15 667.743 2453.78 675.966 2453.78 684.919C2453.78 694.055 2455.15 702.368 2457.89 709.86C2460.82 717.351 2464.75 723.747 2469.68 729.045C2474.8 734.344 2480.83 738.455 2487.77 741.379C2494.89 744.302 2502.66 745.764 2511.06 745.764C2520.93 745.764 2529.52 744.211 2536.83 741.105C2544.14 737.999 2550.44 733.705 2555.74 728.223L2584.79 757.275C2575.47 765.863 2564.78 772.624 2552.72 777.557C2540.85 782.49 2527.05 784.957 2511.34 784.957Z" fill="#13345E"/>
<path d="M2196.83 781.942V588.444H2239.86V781.942H2196.83ZM2229.72 781.942V744.668H2335.78V781.942H2229.72ZM2229.72 701.089V665.185H2326.19V701.089H2229.72ZM2229.72 625.444V588.444H2334.41V625.444H2229.72Z" fill="#13345E"/>
<path d="M2011.64 781.942V591.184H2054.67V781.942H2011.64ZM1951.07 625.992V588.444H2115.24V625.992H1951.07Z" fill="#13345E"/>
<path d="M1770.94 702.186V670.393H1811.77C1820.36 670.393 1826.94 668.2 1831.51 663.815C1836.26 659.43 1838.63 653.491 1838.63 646C1838.63 639.057 1836.35 633.301 1831.78 628.733C1827.21 624.165 1820.64 621.881 1812.05 621.881H1770.94V588.444H1816.98C1829.77 588.444 1841.01 590.91 1850.69 595.844C1860.38 600.594 1867.96 607.264 1873.44 615.851C1878.92 624.439 1881.66 634.306 1881.66 645.452C1881.66 656.78 1878.92 666.738 1873.44 675.326C1867.96 683.731 1860.29 690.309 1850.42 695.06C1840.55 699.81 1828.95 702.186 1815.61 702.186H1770.94ZM1738.05 781.942V588.444H1781.08V781.942H1738.05ZM1843.29 781.942L1783 698.623L1822.46 687.934L1894.27 781.942H1843.29Z" fill="#13345E"/>
<path d="M1565.89 784.957C1549.99 784.957 1535.92 781.577 1523.68 774.816C1511.62 768.056 1502.12 758.737 1495.17 746.86C1488.41 734.801 1485.03 721.097 1485.03 705.749V588.444H1528.34V708.215C1528.34 715.89 1529.98 722.559 1533.27 728.223C1536.56 733.887 1541.04 738.273 1546.7 741.379C1552.55 744.302 1558.94 745.764 1565.89 745.764C1573.19 745.764 1579.59 744.302 1585.07 741.379C1590.55 738.273 1594.85 733.979 1597.95 728.497C1601.24 722.833 1602.89 716.164 1602.89 708.49V588.444H1646.19V706.023C1646.19 721.371 1642.81 734.984 1636.05 746.86C1629.29 758.737 1619.88 768.056 1607.82 774.816C1595.76 781.577 1581.78 784.957 1565.89 784.957Z" fill="#13345E"/>
<path d="M1325.59 784.957C1309.7 784.957 1295.99 782.399 1284.48 777.283C1273.15 771.984 1262.74 764.036 1253.24 753.438L1281.19 725.756C1287.41 732.882 1294.26 738.455 1301.75 742.475C1309.42 746.312 1318.28 748.231 1328.33 748.231C1337.47 748.231 1344.5 746.586 1349.44 743.297C1354.55 740.008 1357.11 735.44 1357.11 729.593C1357.11 724.295 1355.47 720.001 1352.18 716.712C1348.89 713.423 1344.5 710.591 1339.02 708.215C1333.72 705.84 1327.79 703.556 1321.21 701.364C1314.81 699.171 1308.42 696.704 1302.02 693.963C1295.63 691.04 1289.69 687.477 1284.21 683.274C1278.91 678.889 1274.62 673.499 1271.33 667.104C1268.04 660.526 1266.39 652.304 1266.39 642.437C1266.39 630.56 1269.22 620.328 1274.89 611.74C1280.74 603.153 1288.78 596.666 1299.01 592.281C1309.24 587.713 1321.03 585.429 1334.36 585.429C1347.89 585.429 1360.22 587.804 1371.36 592.555C1382.69 597.306 1392.01 603.792 1399.32 612.014L1371.36 639.696C1365.52 633.666 1359.58 629.19 1353.55 626.266C1347.7 623.343 1341.03 621.881 1333.54 621.881C1326.05 621.881 1320.11 623.343 1315.73 626.266C1311.34 629.007 1309.15 633.027 1309.15 638.326C1309.15 643.259 1310.79 647.279 1314.08 650.385C1317.37 653.309 1321.67 655.867 1326.96 658.059C1332.45 660.252 1338.38 662.445 1344.78 664.637C1351.36 666.83 1357.84 669.388 1364.24 672.311C1370.63 675.235 1376.48 678.981 1381.78 683.549C1387.26 687.934 1391.65 693.598 1394.93 700.541C1398.22 707.302 1399.87 715.707 1399.87 725.756C1399.87 744.211 1393.29 758.737 1380.13 769.335C1366.98 779.75 1348.8 784.957 1325.59 784.957Z" fill="#13345E"/>
<path d="M1011.33 781.942V588.444H1041.48L1054.36 627.089V781.942H1011.33ZM1144.81 781.942L1030.79 635.859L1041.48 588.444L1155.5 734.527L1144.81 781.942ZM1144.81 781.942L1133.3 743.297V588.444H1176.33V781.942H1144.81Z" fill="#13345E"/>
<path d="M873.485 781.942V588.444H916.515V781.942H873.485Z" fill="#13345E"/>
</svg>
