<?xml version="1.0" encoding="utf-8"?>
<!-- Generator: Adobe Illustrator 27.5.0, SVG Export Plug-In . SVG Version: 6.00 Build 0)  -->
<svg version="1.1" id="Layer_1" xmlns="http://www.w3.org/2000/svg" xmlns:xlink="http://www.w3.org/1999/xlink" x="0px" y="0px"
	 viewBox="0 0 1920 1080" style="enable-background:new 0 0 1920 1080;" xml:space="preserve">
<g>
	<path style="fill-rule:evenodd;clip-rule:evenodd;" d="M949.52,571.454c-3.195,3.817-6.203,8.883-6.716,14.781
		c-1.16,13.339,5.22,35.379,14.113,39.438c2.112,0.965,4.813,2.017,7.839,3.155c-0.628,2.328-1.481,5.815-2.535,10.876
		c-2.432,11.672-4.011,26.81-3.367,47.016c0.644,20.205,2.445,29.858,2.445,29.858s-1.03-2.703-3.089-10.167
		c-2.059-7.464-5.663-16.216-5.663-16.216s1.802,7.979,2.703,14.028c0.901,6.049-0.643,7.207-0.643,7.207s-1.03-2.831-5.276-18.146
		c-4.247-15.314-6.564-35.777-6.564-35.777s0.007,20.483,4.457,42.516c4.45,22.033,9.062,27.73,9.062,27.73l-0.34-11.396
		c0,0,1.492,2.849,2.578,6.037c1.085,3.188,3.866,8.411,3.866,8.411l-0.25-9.64c0,0,2.114,8.861,7.451,23.865
		c4.366,12.277,12.373,27.179,15.14,32.192l-0.175,0.213c-2.933,3.46-5.916,6.694-8.657,9.786c-0.933-1.244-2.152-2.888-3.609-4.895
		c-3.578-4.929-12.22-8.971-12.22-8.971s5.46,4.03,6.5,6.37c1.04,2.34,0.78,2.86-5.85,0.39c-6.63-2.469-22.88-34.19-22.88-34.19
		s1.17,6.63,7.15,17.68c5.98,11.05,12.87,19.5,16.77,21.449c3.9,1.949,9.23,6.37,7.15,8.32c-2.08,1.95-4.42,2.21-8.58,2.34
		c-4.16,0.13-9.49-3.64-9.49-3.64s3.38,3.38,5.72,5.07c2.34,1.69,2.86,3.25-1.3,2.86c-4.16-0.39-11.7-8.58-11.7-8.58
		s2.47,4.29,4.29,6.24c1.82,1.95,11.18,7.67,9.36,8.06s-4.29-0.65-9.75-3.9c-5.46-3.25-14.43-13.91-14.43-13.91s2.73,4.81,5.07,7.93
		c2.34,3.12,9.62,9.361,13.26,11.31c3.64,1.949,6.5,5.46,2.6,5.2c-3.901-0.261-19.37-7.93-19.37-7.93s5.59,4.81,15.34,9.75
		c7.654,3.878,13.681,3.523,15.918,3.192c0.413,1.219,0.912,2.428,1.498,3.606c-2.777,1.283-7.294,2.723-12.442,1.851
		c-8.544-1.448-17.521-7.82-21.866-12.598c-4.344-4.778-19.404-15.06-27.948-26.5c-8.544-11.44-26.391-44.021-31.894-67.915
		c-5.503-23.894-11.406-80.65-12.941-109.826c-1.536-29.176-1.706-50.674-1.706-50.674s3.07,0.683,4.606,6.995
		c1.536,6.313,1.706,11.602,1.706,11.602s1.184-13.739-1.295-23.803c-2.479-10.063-7.291-17.938-8.604-22.751
		c-1.313-4.814-8.273-32.641-14.434-42.498c-6.161-9.856-25.57-30.436-45.687-37.9c-20.116-7.464-35.678-8.35-38.335-9.236
		c-2.657-0.886-0.127-3.921,1.138-4.175c1.265-0.253,9.743,0.505,13.917,1.897c4.175,1.392,9.363,3.669,9.363,3.669
		s-10.156-6.011-11.974-6.681c-1.818-0.67-0.192-1.818,3.061-0.765c3.253,1.052,13.202,4.784,17.699,8.323
		c4.497,3.539,7.654,5.07,7.654,5.07s-6.792-7.079-12.246-11.288c-5.453-4.21-8.802-4.018-9.758-5.549
		c-0.956-1.531,17.412,5.549,21.908,6.697c4.496,1.148,9.662,4.114,15.307,8.897c5.645,4.783,17.604,15.786,18.177,16.646
		c0.574,0.861-15.404-19.229-27.362-26.309c-11.958-7.079-17.4-9.116-17.305-10.647c0.096-1.53,5.359-1.053,13.395,4.018
		c8.036,5.071,16.36,12.247,24.397,19.04c8.036,6.793,10.62,9.758,10.62,9.758s-6.314-8.802-15.021-17.125
		c-8.707-8.323-19.04-12.534-18.657-13.873c0.383-1.339,17.03,7.463,20.666,11.194c3.635,3.731,7.941,7.941,7.941,7.941
		s-5.836-8.706-8.419-11.863c-2.583-3.158-6.219-5.454-6.219-5.454s9.089,6.028,11.003,6.985c1.914,0.957,5.74,4.497,5.74,4.497
		s-5.454-6.602-7.08-8.611c-1.626-2.009,2.105-1.34,2.775-0.765c0.67,0.574,12.533,10.593,18.128,18.512
		c5.595,7.919,7.812,13.092,7.812,13.092s-7.706-17.631-16.891-27.872c-9.185-10.24-16.258-13.092-16.892-14.041
		c-0.633-0.95,5.279-0.316,14.886,7.179c9.607,7.496,15.73,12.775,22.17,23.121c6.44,10.346,8.024,16.469,8.024,16.469
		s-2.891-11.738-10.151-23.65s-11.911-15.542-13.046-17.811c-1.134-2.269,1.815-3.63,5.218,0.113
		c3.403,3.744,13.16,17.697,13.16,17.697s-7.374-12.932-11.685-19.739c-4.311-6.807-6.921-9.303-6.126-9.983
		c0.795-0.681,11.005,8.849,16.79,17.017c5.786,8.168,7.942,11.231,7.942,11.231s-3.517-9.416-6.694-14.181
		c-3.176-4.764-3.29-6.466-2.496-6.353c0.794,0.113,8.509,7.487,13.84,19.852c5.332,12.366,6.823,19.307,6.823,19.307
		s-4.614-20.154-9.227-31.932c-4.613-11.777-8.835-17.135-8.62-18.961c0.215-1.826,6.445,5.586,10.633,14.071
		c4.189,8.485,8.46,22.442,9.078,25.159c0.617,2.717,0.865,5.312,0.865,5.312s-4.775-23.704-8.224-32.786
		c-3.449-9.082-0.919-8.622,2.414-3.104c3.334,5.518,11.611,20.807,17.014,40.58c5.403,19.773,14.505,65.211,16.911,79.133
		c2.406,13.922,5.328,30.078,5.328,30.078s-9.293-67.241-11.942-84.36c-2.649-17.119-2.858-18.482-2.858-19.95
		c0-1.468,3.251,5.872,3.251,5.872s-0.419-7.34-1.154-12.164c-0.734-4.823,0.525-5.452,1.783-1.258
		c1.258,4.194,5.833,25.187,8.365,43.548c2.532,18.36,2.322,25.535,2.322,25.535s-0.548-24.827-3.079-43.304
		c-2.532-18.477-4.304-25.819-3.544-27.716c0.759-1.898,6.328,3.797,6.707,10.505c0.38,6.708-0.379,8.48,0.886,9.492
		c1.265,1.012,3.29,2.152,4.176,13.668c0.886,11.516-0.506,39.866-0.506,39.866s3.671-27.083,3.417-42.903
		c-0.253-15.82-1.899-24.426-1.266-27.083c0.633-2.658,5.063-1.772,5.949,2.911c0.886,4.683,0.253,13.668,0.253,13.668
		s2.025-2.532,3.417-5.189s3.038,0.38,2.405,7.973c-0.633,7.593-3.908,33.458-5.043,47.081c-1.135,13.622-1.753,38.627-2.182,45.924
		c-0.429,7.297-1.287,9.157-0.143,9.586c1.144,0.429,3.29-1.432,4.865-2.719c1.574-1.288,1.001-10.158,3.577-28.901
		c2.576-18.743,8.584-43.637,8.584-43.637s-7.154,21.462-9.443,36.198c-2.289,14.736-2.289,19.601-3.29,19.458
		c-1.001-0.143-1.144-8.584,0.573-16.596c1.716-8.012,3.147-13.735,4.435-22.749c1.288-9.014,4.244-26.456,6.169-37.646
		c1.925-11.189,2.407-17.325,2.407-17.325s-4.933,22.257-7.82,36.334c-2.887,14.077-4.452,21.536-4.452,21.536
		s2.045-24.543,2.767-31.161c0.722-6.617,2.279-23.112,2.279-27.436c0-4.324,1.058-5.47,2.735-6
		c1.677-0.53,7.324,0.793,10.324,0.706s2.295,3.53,0.795,8.647c-1.5,5.118-2.383,13.501-3.353,17.56
		c-0.97,4.059-1.324,8.029-1.324,8.029s4.325-13.148,6.001-19.324c1.676-6.176,2.647-10.413,4.059-12.706
		c1.411-2.294,5.118-2.912,4.676,0.353c-0.441,3.265-7.672,28.93-12.072,42.735c-4.4,13.805-9.909,39.617-11.117,46.062
		c-1.208,6.445-2.015,9.937-2.015,9.937s4.302-14.099,6.548-22.004c2.246-7.905,3.324-9.881,3.324-9.881s-3.143,14.373-4.491,24.163
		c-1.348,9.79-0.934,15.575-0.934,15.575s4.564-28.147,8.585-42.601c4.021-14.454,8.727-33.805,11.803-41.881
		c3.076-8.076,4.807-13.076,4.807-13.076s-3.654,6.25-6.442,14.037c-2.788,7.787-9.229,27.593-9.229,27.593
		s8.942-34.035,10.48-39.611c1.538-5.576,4.41-12.284,7.532-13.599c3.123-1.315,6.987,1.068,6.657,3.616
		c-0.329,2.548-12.115,35.122-14.059,43.812c-1.944,8.691-1.944,11.206-3.545,12.578c-1.601,1.372-5.408,14.354-6.972,22.054
		c-1.564,7.699-2.406,11.79-2.406,11.79s7.58-27.429,9.144-29.595c1.564-2.166,4.692-0.723,5.895-4.211
		c1.203-3.488,5.293-17.806,8.061-24.302c2.767-6.496,6.28-13.763,7.557-17.21c1.276-3.446,2.042-6.765,2.042-6.765
		s-2.873,5.617-3.702,4.659c-0.83-0.957,3.408-13.115,6.124-18.181c2.716-5.066,4.699-7.781,4.478-4.698
		c-0.22,3.083-2.055,7.415-3.45,10.571c-1.395,3.156-1.688,4.698-1.688,4.698s5.065-8.222,6.753-12.553
		c1.689-4.331,5.799-7.047,6.166-6.46c0.367,0.587-3.083,9.617-6.386,18.058c-3.303,8.442-4.625,13.947-4.625,13.947
		s8.541-20.279,13.612-28.57c5.07-8.291,6.117-7.164,6.117-7.164s-6.278,11.913-8.371,16.581c-2.093,4.668-3.944,8.371-3.944,8.371
		s10.448-14.495,16.432-22.914c5.984-8.419,7.911-10.752,7.911-10.752l-4.463,2.333c0,0-0.203-3.348,1.623-4.666
		c1.826-1.319,7.796-2.73,6.782,0.414c-1.014,3.144-14.506,23.736-21.708,36.01C989.594,482.26,985.6,491.67,985.6,491.67
		s14.757-25.221,22.404-36.223c7.647-11.001,11.694-18.877,14.392-22.304c2.698-3.427,4.813-2.99,4.23-1.385
		c-0.584,1.604-8.824,12.541-14.438,22.531c-5.614,9.99-12.61,27.451-12.61,27.451s10.74-23.231,20.039-35.843
		c9.299-12.612,12.291-15.39,11.65-12.719c-0.641,2.671-4.49,7.803-5.879,11.436c-1.389,3.633-0.641,4.062-2.351,6.627
		c-1.71,2.565-7.375,11.008-10.474,18.276c-3.099,7.268-6.136,14.305-9.028,19.263c-2.892,4.957-6.713,14.149-6.713,14.149
		l5.267-6.61c0,0-0.088,0.912-2.162,8.285c-2.074,7.373-5.184,14.746-5.184,14.746s10.834-23.046,22.612-40.132
		c11.778-17.086,19.002-26.438,19.002-26.438s-13.366,15.223-17.822,20.792c-4.456,5.57-7.55,6.683-5.693,1.856
		c1.857-4.827,8.664-18.318,16.213-29.208c7.55-10.891,10.272-12.872,10.272-12.872l-10.396,18.318c0,0,11.016-14.729,14.976-19.555
		c3.96-4.827,6.93-5.569,7.178-4.208c0.248,1.361-1.237,5.198-7.426,12.748s-8.788,11.139-8.788,11.139s10.025-9.653,15.471-14.728
		c5.446-5.075,12.005-7.426,5.446-0.371c-6.56,7.055-13.491,14.108-17.699,20.174c-4.208,6.065-8.812,12.559-8.812,12.559
		s8.639-8.87,11.634-12.671c2.995-3.801,5.759-5.183,7.717-5.989c1.958-0.807,4.128-1.341,9.294-5.448
		c5.166-4.107,9.008-9.141,11.657-10.598c2.649-1.457,6.226-0.662,3.842,1.59c-2.384,2.252-8.61,8.345-8.61,8.345
		s6.623-1.854,9.008-1.987c2.385-0.132,4.902-2.517,6.094-3.18c1.192-0.662,4.636-0.795,4.636-0.795s3.199,1.411,3.537,2.624
		c0.337,1.214-0.405,1.754-3.506,1.821c-3.102,0.067-4.451,1.079-9.239,2.832c-4.788,1.753-11.935,5.529-15.981,7.62
		c-4.046,2.091-6.204,3.912-6.676,2.765c-0.472-1.147,3.304-6.07,3.304-6.07s-4.654,3.439-8.362,8.227
		c-3.709,4.788-11.105,12.734-13.938,14.42c-2.833,1.686-2.563,0.067-2.563,0.067l3.237-4.721c0,0-5.462,2.158-10.116,8.834
		c-4.653,6.677-13.173,20.986-15.287,25.801c-2.114,4.815-11.507,20.785-16.909,33.937c-5.402,13.151-9.171,19.479-11.059,19.951
		c-1.888,0.472-4.155,0.85-2.738-6.044c1.416-6.894,11.048-25.023,11.048-25.023s-9.348,10.481-12.464,20.491
		c-3.116,10.009-4.91,11.614-4.91,11.614s3.56-19.404,10.704-36.906c7.144-17.503,14.109-29.159,14.109-29.159
		s-12.676,19.243-19.091,35.128c-6.415,15.884-9.446,29.554-10.844,31.92c-1.398,2.366-4.581,1.881-4.581,0.37
		c0-1.51,3.198-12.971,5.863-20.433c2.665-7.462,4.442-11.371,4.442-11.371s-7.197,14.392-10.483,23.808
		c-3.287,9.417-3.731,11.372-5.064,11.461c-1.333,0.088-2.221-3.998,3.998-22.654c6.218-18.656,15.78-38.606,15.78-38.606
		s-14.321,24.456-18.916,40.13c-4.594,15.673-6.935,23.761-8.122,29.025L949.52,571.454L949.52,571.454z M943.598,824.146
		c-8.557,4.44-20.505,7.808-32.355,6.255c-16.781-2.199-34.128-10.848-53.622-31.916c-19.496-21.07-36.083-52.077-58.731-66.229
		c-22.647-14.151-31.851-14.225-44.558-15.107c-12.708-0.882-18.596-4.235-20.703-8.605c-0.68-1.409-0.943-2.71-0.988-3.823v-0.001
		c-0.787-3.383-0.29-6.133,3.456-11.701c3.746-5.568,8.952-7.326,11.297-8.464c2.345-1.137,2.068-10.079,2.638-14.906
		c0.571-4.827,1.259-6.497,8.276-12.233c7.018-5.737,20.352-4.366,26.534-1.893c6.181,2.472,9.795,3.306,14.317,2.184
		c4.52-1.124,10.207-9.924,14.713-16.486c4.506-6.563,14.579-12.081,17.609-12.646c3.029-0.565,6.054-1.659,13.736-5.465
		c3.169-1.571,6.358-2.488,9.258-2.976c-1.02-19.192-1.71-38.077-2.324-53.736c-1.666-42.484-9.864-69.187-32.503-97.121
		c-22.639-27.933-60.347-24.4-68.259-23.428c-7.912,0.972-21.653,11.799-25.956,16.379c-0.733,0.781-1.498,1.441-2.263,1.997
		l-0.008,0.005c-0.941,0.685-1.881,1.214-2.762,1.623c-3.987,2.255-11.522,6.18-17.522,7.341
		c-8.578,1.661-23.287,0.379-28.758-7.617c-5.47-7.996-6.944-36.611-2.525-53.655c4.419-17.043,17.561-35.178,27.105-43.731
		c9.545-8.553,20.082-14.752,28.14-17.726c8.057-2.975,11.889-15.949,19.316-27.019c7.427-11.07,24.101-10.089,31.668-7.427
		c7.567,2.662,18.356,0.561,30.827-2.382c12.471-2.943,12.607-13.333,16.958-21.067c4.35-7.734,10.151-7.896,12.73-7.896
		s3.545-2.578,2.095-5.64c-1.451-3.062-0.483-6.768,1.45-12.247c1.934-5.479,9.99-9.829,38.511-17.886
		c28.521-8.057,62.417-1.678,77.759,1.757c15.342,3.435,33.661,16.945,35.264,21.753c1.603,4.808,1.374,2.977,10.075,19.693
		c8.701,16.716,22.292,14.816,26.121,13.131s3.982-8.73,11.18-12.406c7.199-3.676,26.344-4.595,35.686-4.595
		c9.343,0,34.461-2.297,50.849,2.604c16.388,4.901,41.32,17.758,47.591,23.672c6.271,5.913,6.63,12.9,9.138,14.871
		c2.508,1.97,15.589,1.792,28.848,4.3c13.259,2.508,20.389,5.905,29.866,16.507c9.478,10.602,7.55,19.598,3.213,32.77
		c-4.337,13.172-10.761,20.538-16.282,22.095c-5.521,1.557-8.777-2.548-13.024-2.548c-4.247,0-8.807,15.838-12.487,27.247
		c-3.68,11.409-8.833,20.427-21.716,26.684c-12.882,6.257-44.413,3.275-54.094-3.501c-9.68-6.776-26.869-10.184-26.869-10.184
		c-3.417,0.148-10.102,1.485-28.226,8.914c-18.124,7.428-47.083,36.18-62.59,58.388c-12.493,17.892-19.525,38.681-21.788,46.087
		c1.915-0.74,3.316-1.524,4.772-2.437c3.89-2.439,13.242-6.061,24.218-5.027c10.976,1.034,15.111,0.955,19.009,0.239
		c3.898-0.716,18.532,1.273,26.963,7.079c8.431,5.806,19.309,13.754,25.255,13.022c5.945-0.732,9.901-3.398,16.184-9.212
		c6.283-5.814,21.664-13.597,32.73-9.94c11.067,3.657,12.661,5.345,15.568,10.879c2.907,5.534,6.69,16.397,10.03,16.684
		c3.339,0.286,10.4,0.001,17.46,4.961c7.06,4.961,8.923,8.034,9.536,12.457l0,0.003c0.459,1.358,0.741,3.04,0.574,5.045
		c-0.519,6.217-6.044,12.953-20.896,19.861c-14.852,6.908-25.869,11.234-46.547,38.65c-20.678,27.416-26.321,72.28-40.03,106.551
		c-13.708,34.271-30.556,52.64-49.692,63.005c-19.136,10.365-43.057,8.97-54.818,4.385c-4.058-1.581-7.255-4.344-9.63-7.634
		c-2.193,1.32-5.969,3.33-9.044,3.618c-4.634,0.434-11.44-1.159-15.929-3.62L943.598,824.146L943.598,824.146z M854.605,622.518
		c-3.91,0.357-7.491,1.65-9.446,3.209c-2.875,2.293-6.853,2.903-13.32,5.382c-6.467,2.479-13.484,8.056-17.66,14.963
		c-4.174,6.907-14.136,15.49-17.999,15.832c-3.862,0.339-9.497-2.127-16.72-4.429c-7.221-2.303-9.955-0.178-17.019,1.897
		c-7.064,2.076-6.977,3.625-8.05,6.445c-1.074,2.821-0.123,3.167-1.108,7.16c-0.984,3.991-1.883,10.936-1.588,11.295
		c0.294,0.358,3.722,0.145,7.818-0.378c4.095-0.522,8.844,3.85,10.791,4.425c1.948,0.575,2.47-0.184,3.399-3.589
		c0.93-3.406-3.794-8.706-3.794-8.706s5.285,3.715,6.224,8.283c0.939,4.568-0.823,5.142-0.823,5.142s0.663,0.406,2.098-0.094
		c1.434-0.5,3.029-1.771,4.038-5.104c1.009-3.333-1.036-6.411-1.036-6.411s2.055,2.971,3.006,5.451
		c0.95,2.481,1.657,4.852,1.657,4.852s0.461-1.447,0.216-4.605c-0.245-3.157-3.561-7.17-3.561-7.17s2.835,1.962,3.899,3.28
		c1.065,1.32,2.245,3.865,2.245,3.865s0.071-2.466-2.354-7.328c-2.422-4.863-8.487-8.888-8.487-8.888s2.72,0.735,5.338,2.525
		c2.617,1.792,6.518,5.84,8.186,9.886c1.666,4.048,0.063,8.082,0.063,8.082s2.986-1.529,4.336-4.121
		c1.35-2.593-0.654-9.622-0.654-9.622s1.655,2.515,2.25,5.169c0.595,2.653,0.087,3.231,0.087,3.231s3.252-2.438,5.988-5.522
		c2.735-3.085,1.759-9.566,1.759-9.566s1.709,3.643,1.641,6.522c-0.069,2.878-0.641,5.363-0.641,5.363s0.773-0.531,2.261-2.155
		c1.487-1.625,1.156-3.101,1.567-5.798c0.411-2.698,3.5-4.936,3.5-4.936s-1.832,3.985-1.965,5.169
		c-0.134,1.183,1.479,1.308,2.716,0.561c1.237-0.749,2.323-3.158,4.393-7.856c2.069-4.698,7.981-10.283,7.981-10.283
		s-2.279,3.432-4.438,7.716c-2.159,4.283-2.864,6.591-2.864,6.591s1.787-0.925,4.217-2.342c2.43-1.415,3.243-2.177,5.128-3.66
		c1.884-1.482,7.504-6.05,8.788-8.828c1.284-2.778,2.945-4.652,2.945-4.652l-0.028,2.74c0,0,0.786-1.164,1.955-3.605
		c1.17-2.442,7.004-8.018,7.004-8.018s-1.921,2.309-3.119,4.676c-1.199,2.367-1.027,3.987-1.027,3.987s1.018-1.372,2.717-2.726
		c1.699-1.354,1.939-2.484,2.934-3.624c0.995-1.139,2.869-5.844,2.869-5.844s-0.331,2.653-0.654,4.153
		c-0.323,1.499-0.712,2.461-0.712,2.461s0.663-0.393,2.621-1.509c0.426-0.243,0.946-0.548,1.529-0.905
		C855.295,634.587,854.934,628.544,854.605,622.518L854.605,622.518z M855.895,643.42c-2.289,1.284-4.732,2.557-6.92,3.749
		c-5.131,2.794-10.316,9.328-14.157,13.118c-3.839,3.788-8.605,6.6-15.114,10.59c-6.509,3.991-9.734,8.499-12.809,11.453
		c-3.074,2.954-8.535,6.264-13.247,7.136c-4.714,0.871-6.943,1.948-11.761,2.755c-4.818,0.807-13.355-0.527-18.185-3.432
		c-4.829-2.904-6.937-1.426-13.963-0.369c-7.026,1.058-11.56,7.256-12.836,12.65c-0.646,2.728,0.111,6.448,2.275,8.35
		c1.377,1.094,3.422,2.154,6.443,3.013c6.403,1.824,11.58,2.212,15.585,2.263c-1.746-1.389-4.434-3.407-7.052-4.897
		c-4.397-2.5-6.443-3.278-6.443-3.278s7.06,1.792,12.025,4.638c2.581,1.48,4.365,2.689,5.484,3.509
		c1.378-0.022,2.533-0.028,3.466,0.073c3.848,0.416,5.091,0.696,5.091,0.696s-4.719-4.904-9.742-7.897
		c-5.026-2.992-14.603-5.278-14.603-5.278s8.931,1.551,16.192,3.752c-1.366-1.352-2.513-2.951-3.312-4.197l-0.042-0.031
		c-3.848-2.769-6.602-5.323-10.386-4.949c-3.784,0.372-7.808,2.929-7.808,2.929s-0.913-0.727,0.014-1.78
		c0.927-1.052,6.614-4.561,11.338-3.142c4.725,1.418,10.911,5.825,14.265,7.96c3.353,2.135,9.128,5.305,13.291,4.596
		c4.163-0.708,5.212-1.934,9.019-3.9c3.807-1.968,8.065-0.939,12.122-1.924c4.056-0.986,7.175-4.732,8.725-7.331
		c1.55-2.598,5.104-1.522,5.386-3.473c0.282-1.95,0.749-6.246,5.689-11.446c4.942-5.2,14.453-14.139,16.455-17.283
		c2.003-3.145,5.515-5.916,9.911-8.552c2.331-1.397,4.167-2.824,6.028-4.236C856.173,647.321,856.032,645.376,855.895,643.42
		L855.895,643.42z M856.533,652.019c-0.044,0.06-0.083,0.12-0.116,0.18c-1.112,1.987-1.436,4.234-0.397,10.202
		c1.04,5.968,2.496,13.025,2.496,13.025s0.005-0.695,0.025-1.809C857.785,666.754,857.121,659.493,856.533,652.019L856.533,652.019z
		 M873.517,737.811c0.996,3.152,1.546,4.588,1.546,4.588s-10.642-27.76-14.17-41.084c-3.527-13.326-6.986-39.022-7.176-41.29
		c-0.19-2.268-5.693-2.046-5.519,0.379c0.174,2.425,2.235,30.427,7.007,45.414c4.772,14.985,9.274,27.911,9.274,27.911
		s-10.224-22.635-13.124-35.652c-2.9-13.016-4.387-30.418-4.924-32.47c-0.535-2.053-2.022-1.566-1.8,1.191
		c0.221,2.758,0.503,5.241,0.503,5.241s-1.748-5.433-2.666-6.084c-0.918-0.651-1.541,0.34,0.227,7.354
		c1.769,7.013,3.818,13.667,3.818,13.667s-5.72-16.45-7.17-17.398c-1.451-0.949-6.601,4.369-6.677,6.572
		c-0.075,2.203,1.65,8.229,1.65,8.229s-1.004-4.797-4.238-3.641c-3.235,1.156-7.333,4.721-6.464,8.685
		c0.871,3.964,2.281,7.64,3.059,11.152c0.778,3.512,1.33,6.22,1.33,6.22s-1.133-3.377-3.742-7.647
		c-2.61-4.27-5.279-4.463-6.923-2.617c-1.643,1.846-8.751,6.527-9.142,7.269c-0.391,0.742,6.695,11.293,9.982,16.118
		c3.286,4.825,7.809,10.232,12.754,16.119c4.945,5.887,10.796,11.243,10.796,11.243s-13.219-11.519-23.825-25.892
		c-10.607-14.374-12.3-16.133-14.202-15.775c-1.901,0.358-6.507,3.329-6.043,4.54c0.465,1.212,8.336,5.792,13.666,11.718
		c5.329,5.926,7.041,8.699,9.237,11.284c2.196,2.587,5.182,5.056,5.182,5.056l-5.042-2.515c0,0,11.322,11.815,14.809,15.608
		c3.487,3.793,8.63,6.856,8.63,6.856s-11.416-5.789-20.244-15.183c-8.829-9.394-20.026-18.925-24.556-21.893
		c-4.531-2.967-11.103-6.232-11.103-6.232s8.836,2.936,13.728,5.842c4.893,2.906,6.176,3.032,5.7,2.597
		c-0.476-0.434-4.166-5.035-8.696-9.005c-4.529-3.971-6.338-3.661-6.338-3.661l3.235,4.619c0,0-4.929-5.51-7.959-5.059
		c-3.031,0.449-5.634,1.861-7.96,1.212c-1.542-0.431-2.796-1.269-3.726-2.066c-0.976-0.077-1.966-0.112-2.713-0.044
		c8.967,5.052,24.885,17.022,30.542,21.969c6.544,5.72,24.001,23.072,32.906,35.441c8.904,12.368,17.684,25.881,25.066,31.52
		c7.382,5.638,25.919,16.166,30.762,17.905c4.844,1.74,7.907,2.77,7.907,2.77s-12.113-2.549-20.679-7.038
		c-8.567-4.489-11.302-5.876-11.302-5.876s29.742,23.722,49.455,21.786c8.626-0.847,16.053-2.907,21.707-5.719
		c-1.065-0.624-2.168-1.296-3.27-2.014c-0.435,0.209-0.887,0.412-1.356,0.607c-6.324,2.626-9.577,2.02-9.577,2.02
		s2.158-0.989,6.858-2.387c0.861-0.257,1.822-0.634,2.814-1.081c-2.574-1.764-5.062-3.775-6.964-5.994
		c-4.346-5.071-11.832-7.968-26.802-24.146C891.468,778.125,881.404,758.905,873.517,737.811L873.517,737.811z M782.282,667.033
		c0,0,5.191,3.079,7.676,6.667c2.484,3.588,3.168,5.648,3.168,5.648s-0.233-4.188-3.205-8.221
		C786.949,667.093,782.282,667.033,782.282,667.033L782.282,667.033z M822.578,645.511c0,0-0.406,6.784-2.745,10.801
		c-2.339,4.017-2.926,5.675-2.926,5.675s-0.104-4.007,0.863-6.655C818.737,652.685,822.578,645.511,822.578,645.511L822.578,645.511
		z M828.487,646.333c0,0,0.527,6.545-0.779,9.406c-1.306,2.862-2.172,4.12-2.172,4.12s4.054-2.734,4.392-6.91
		C830.264,648.772,828.487,646.333,828.487,646.333L828.487,646.333z M906.744,811.736c0,0,7.552,3.324,12.52,2.916
		c4.969-0.407,8.086-1.141,8.086-1.141s-10.467-0.156-14.336-1.059C909.146,811.549,906.744,811.736,906.744,811.736
		L906.744,811.736z M898.363,813.761c0,0,5.799,3.47,11.31,4.597c5.511,1.128,9.657,1.203,9.657,1.203s-10.451-2.252-15.009-4.075
		C899.765,813.662,898.363,813.761,898.363,813.761L898.363,813.761z M848.997,760.726c0,0,3.276,4.023,5.834,7.614
		c2.559,3.59,4.289,6.868,4.289,6.868s-2.138-6.125-3.883-9.187C853.493,762.957,848.997,760.726,848.997,760.726L848.997,760.726z
		 M855.779,785.709c0,0,0.756,1.504,3.813,3.862c3.057,2.355,4.455,3.195,4.455,3.195s-3.529-0.666-5.461-2.639
		C856.654,788.153,855.779,785.709,855.779,785.709L855.779,785.709z M851.593,769.25c0,0,13.674,16.674,23.273,23.977
		c9.598,7.303,16.285,10.283,16.285,10.283s-13.822-4.061-23.312-13.155C858.35,781.26,851.593,769.25,851.593,769.25
		L851.593,769.25z M784.368,697.575c0,0-0.789,1.694-0.452,3.42c0.338,1.725,0.831,2.648,0.831,2.648s-2.021-2.007-2.36-3.129
		C782.049,699.391,784.368,697.575,784.368,697.575L784.368,697.575z M788.607,696.414c0,0-0.468,1.2,0.099,3.162
		c0.566,1.962,0.948,2.837,0.948,2.837s-1.732-1.006-2.344-2.488C786.695,698.445,788.607,696.414,788.607,696.414L788.607,696.414z
		 M804.455,709.315c0,0,3.015,2.094,7.223,7.119c4.209,5.025,6.654,7.614,6.654,7.614s-6.828-6.4-9.751-9.28
		C805.658,711.886,804.455,709.315,804.455,709.315L804.455,709.315z M821.046,700.774c0,0,10.125,17.906,17.114,27.633
		c6.988,9.725,9.178,11.907,9.178,11.907s-9.671-10.288-15.616-18.743c-5.944-8.457-9.366-13.029-9.366-13.029
		s3.546,8.421,6.638,12.961c3.092,4.539,6.664,9.293,6.664,9.293s-9.463-10.368-13.645-16.716c-4.183-6.348-6.11-8.472-6.525-9.347
		c-0.416-0.874,2.756-0.897,3.504-2.058C819.739,701.514,821.046,700.774,821.046,700.774L821.046,700.774z M831.207,698.922
		c0,0,9.633,22.387,15.525,31.17c5.891,8.783,8.896,12.783,8.896,12.783s-9.408-10.244-14.798-19.946
		C835.442,713.227,831.207,698.922,831.207,698.922L831.207,698.922z M830.547,685.251c0,0,8.478,24.575,17.063,37.949
		c8.585,13.372,12.09,18.003,12.09,18.003s-14.309-18.17-20.307-30.802C833.394,697.767,830.547,685.251,830.547,685.251
		L830.547,685.251z M838.664,678.736c0,0,3.648,16.646,10.99,31.876c7.341,15.23,9.61,19.009,9.61,19.009
		s-11.34-19.462-15.191-29.016C840.222,691.049,838.664,678.736,838.664,678.736L838.664,678.736z M1138.16,379.29
		c0,0-5.164,4.758-8.91,8.506c-3.746,3.747-11.644,6.177-11.644,6.177s6.86-2.792,9.31-7.463
		C1129.365,381.839,1138.16,379.29,1138.16,379.29L1138.16,379.29z M885.775,279.84c0,0,5.462,0,14.923,6.828
		c9.462,6.828,12.388,12.875,12.388,12.875s-12.388-9.95-18.338-14.046C888.799,281.401,885.775,279.84,885.775,279.84
		L885.775,279.84z M1137.911,310.531c0,0-12.445,4.852-15.715,12.868c-3.27,8.016-2.848,17.403-2.848,17.403
		s0.973-12.688,7.194-19.547C1132.763,314.396,1137.911,310.531,1137.911,310.531L1137.911,310.531z M1028.469,341.359
		c0,0,1.875,3.48,1.992,7.941c0.116,4.462-0.406,7.07-0.406,7.07s1.796-6.838,1.854-9.445
		C1031.967,344.317,1028.469,341.359,1028.469,341.359L1028.469,341.359z M1021.354,340.152c0,0,2.244,4.164,2.383,9.503
		c0.139,5.339-0.485,8.459-0.485,8.459s2.15-8.181,2.219-11.302C1025.539,343.691,1021.354,340.152,1021.354,340.152
		L1021.354,340.152z M995.872,320.894c0,0,2.622,1.966,6.163,11.801c3.54,9.836,4.852,17.31,4.852,17.31s-1.443-11.916-2.145-17.354
		C1004.04,327.213,995.872,320.894,995.872,320.894L995.872,320.894z M910.605,322.406c0,0,6.049,3.539,11.747,10.955
		c5.697,7.416,7.506,12.751,7.506,12.751s-1.447-9.405-6.24-15.193C918.824,325.131,910.605,322.406,910.605,322.406
		L910.605,322.406z M855.221,327.688c0,0,11.355,1.559,17.887,5.641c6.531,4.082,7.868,6.976,7.868,6.976s-8.165-5.566-14.622-8.164
		C859.897,329.544,855.221,327.688,855.221,327.688L855.221,327.688z M738.37,362.565c0,0,3.617-2.218,13.127-1.342
		c9.509,0.875,15.519,4.842,15.519,4.842s-11.785-2.625-17.853-3.15C743.096,362.39,738.37,362.565,738.37,362.565L738.37,362.565z
		 M828.87,381.039c0,0,4.02-6.214,7.704-8.799c3.684-2.585,11.051-4.459,11.051-4.459s-7.82-1.487-12.15-3.813
		c-4.33-2.326-6.657-4.911-6.657-4.911s1.551,4.265,4.33,6.075c2.779,1.809,5.105,3.167,5.105,3.167s-3.103,0.841-6.98,0.259
		c-3.878-0.582-6.462-2.068-6.462-2.068s2.972,3.748,5.558,4.136c2.586,0.388,3.62,0.646,3.62,0.646s-3.102,1.293-6.269,2.069
		c-3.167,0.775-8.014,1.874-8.014,1.874l11.051-0.711c0,0-1.551,1.875-8.207,4.589c-6.657,2.714-10.47,3.49-10.47,3.49
		s6.98,0.645,10.664-0.065C826.427,381.805,828.87,381.039,828.87,381.039L828.87,381.039z M884.079,255.89
		c0,0,10.246,2.325,12.694,5.058c2.448,2.734,4.783,4.784,4.783,4.784l-3.587-6.321c0,0,5.865,1.937,8.769,4.499
		c2.904,2.562,5.409,4.612,5.409,4.612l-5.238-7.972c0,0,7.345,2.392,14.919,8.769s11.104,10.25,11.104,10.25
		s-8.713-11.275-14.008-16.286c-5.295-5.011-11.275-8.086-11.275-8.086l2.107,3.986c0,0-4.958-1.786-8.542-3.394
		c-3.584-1.608-6.065-2.389-6.065-2.389l2.849,2.711c0,0-3.446-0.047-7.214-0.506C887.016,255.146,884.079,255.89,884.079,255.89
		L884.079,255.89z M715.088,392.194c0,0-20.168,9.105-21.734,15.175c-1.566,6.07-3.426,10.085-2.252,13.608
		c1.175,3.524,1.566,3.525,1.37,5.776c-0.196,2.251-1.467,7.44,1.567,9.79c3.034,2.35,15.762,0.195,26.237-8.322
		c10.475-8.517,32.37-20.237,45.855-18.506c13.485,1.731,17.13,1.276,26.332-1.366c9.203-2.642,10.66-5.011,10.66-5.011
		s-4.748,1.703-8.018,2.092c-3.271,0.389-4.128,0.389-4.128,0.389s2.025-3.115,7.01-4.05c4.985-0.935,8.256-1.402,8.256-1.402
		l-9.035-2.181c0,0,3.66-2.181,8.957-1.869c5.297,0.312,7.166,1.013,7.166,1.013l-10.905-3.816c0,0,6.076-1.948,9.736-0.234
		c3.66,1.714,5.919,3.116,5.919,3.116s-4.44-6.621-14.02-7.867c-9.58-1.246-13.63-0.623-18.926-1.012
		c-5.296-0.39-9.892-1.947-9.892-1.947s9.892,4.127,14.721,4.906c4.829,0.779,11.293,0.779,11.293,0.779s-7.243,1.48-11.682,2.414
		c-4.44,0.935-8.256,2.882-8.256,2.882s4.829-0.935,8.957-1.168c4.128-0.234,7.399,0,7.399,0s-10.358,3.505-13.785,5.374
		c-3.427,1.869-4.673,3.193-4.673,3.193s5.141-1.947,8.412-2.258c3.271-0.312,4.907-0.701,4.907-0.701s-3.194,4.206-10.204,5.218
		c-7.009,1.012-22.431-3.116-33.257,0.078c-10.826,3.194-31.294,18.997-36.785,22.192c-5.49,3.195-7.244,1.845-6.148,0.311
		c1.096-1.534,7.18-7.619,7.18-7.619l-10.579,5.975c0,0,0.164-3.673,5.975-9.483c5.81-5.81,18.746-14.635,18.746-14.635
		s-11.072,4.331-18.033,9.538c-6.961,5.207-9.263,6.851-9.263,6.851s1.316-4.714,5.098-7.454c3.782-2.741,6.358-5.207,6.358-5.207
		s-5.536,2.96-9.154,3.947c-3.618,0.986-5.098,1.37-4.056-1.59c1.041-2.96,4.403-7.158,8.573-10.308
		C711.159,395.655,715.088,392.194,715.088,392.194L715.088,392.194z M934.168,314.356c0,0,7.409,7.195,10.578,12.597
		c3.169,5.401,4.105,10.3,4.105,10.3c-0.951-6.936-0.928-7.589-4.105-13.829c0,0,8.643,4.177,11.38,8.139
		c2.737,3.961,4.394,8.211,4.394,8.211l-4.753-12.028l7.202,6.122l-8.931-15.846l0.72,4.898l-11.524-9.939l5.474,8.355
		c0,0-8.787-5.618-10.804-6.266C935.886,314.42,934.168,314.356,934.168,314.356L934.168,314.356z M849.114,323.363
		c0,0,7.069-0.884,18.155,3.213s16.307,8.435,16.307,8.435l-5.463-6.507c0,0,6.667-0.642,10.041,1.366
		c3.374,2.008,4.981,4.258,4.981,4.258l-5.623-7.15l6.346,1.205c0,0-3.614-3.856-7.39-5.141c-3.775-1.286-6.989-2.088-6.989-2.088
		l4.017,2.811l-9.961-1.767l8.274,4.338c0,0-10.443-3.455-18.074-4.579C856.103,320.632,849.114,323.363,849.114,323.363
		L849.114,323.363z M1147.936,359.36c0,0,4.433-4.295,9.709-6.112c5.276-1.816,13.146-2.422,13.146-2.422s-7.587,2.803-10.658,5.192
		c-3.071,2.389-5.062,4.095-5.062,4.095s4.094-1.99,7.052-2.388c2.957-0.399,5.062-0.74,5.062-0.74s-8.36,4.38-10.123,6.484
		c-1.763,2.104-2.502,3.071-2.502,3.071l5.915-1.308c0,0-4.266,2.16-5.119,3.639c-0.853,1.479-1.194,2.161-1.194,2.161
		s2.786-0.568,5.573-0.568s5.573,0.398,5.573,0.398s-5.119,0.512-8.36,2.275c-3.241,1.763-7.621,5.687-7.621,5.687l3.002-4.734
		c0,0-3.961-1.177-5.452,0.039c-1.491,1.216-4.706,2.353-4.706,2.353s3.373-3.373,6.158-5.374c2.785-2,3.373-2.863,3.373-2.863
		s-2.746,0-4.119,0.392c-1.373,0.392-4.471,1.02-4.471,1.02s7.335-3.53,9.296-5.138c1.961-1.608,2.785-2.471,2.785-2.471
		s-3.569-0.354-6.55,1.294c-2.982,1.648-3.727,2.354-3.727,2.354s3.021-3.373,6.315-5.452c3.294-2.079,5.099-3.648,5.099-3.648
		L1147.936,359.36L1147.936,359.36z M1081.018,382.723c0,0,7.435-6.163,15.212-7.23c7.777-1.067,9.836-0.457,18.985-6.557
		c9.15-6.1,11.133-12.047,11.133-12.047s-4.757,4.178-7.281,5.545c-2.524,1.367-3.471,1.525-3.471,1.525s1.315-3.312,1.736-5.731
		c0.42-2.419,0-5.101,0-5.101s-2.577,3.523-3.524,5.206c-0.947,1.683-2.84,2.104-2.84,2.104s-0.104-1.788,0.579-5.311
		c0.683-3.524,0.473-6.152,0.473-6.152s-2.262,5.574-3.629,7.73c-1.367,2.156-2.209,2.208-2.209,2.208s-0.684-3.313-0.105-5.521
		c0.579-2.209,1.262-4.049,1.262-4.049s-2.787,1.84-3.681,4.417c-0.894,2.577-1.105,4.259-1.105,4.259s-1.109-4.588-0.513-7.928
		c0.596-3.34,1.233-5.964,1.233-5.964s-2.982,3.3-4.215,6.521c-1.233,3.221-1.312,4.971-1.312,4.971s-2.527-8.529-1.213-14.944
		c1.314-6.415,3.324-8.81,3.324-8.81s-5.488,3.169-7.111,14.452c-1.623,11.283,1.997,21.133,1.997,21.133s0.059-2.209,0.366-4.861
		c0.307-2.652,1.191-4.15,1.191-4.15s1.997,2.267,1.806,4.65c-0.192,2.382-0.615,3.458-0.615,3.458s2.191-2.651,2.575-4.765
		c0.384-2.114,0.653-4.304,0.653-4.304s1.345,3.496,1.345,4.841c0,1.345-0.346,2.344-0.346,2.344s2.153-2.997,2.46-4.15
		c0.307-1.153,0.346-2.69,0.346-2.69s1.614,2.689,1.307,4.38c-0.307,1.691-0.768,2.729-0.768,2.729l3.458-3.958
		c0,0,2.344,2.806,0.384,5.802c-1.96,2.997-2.946,4.381-8.557,4.439c-5.611,0.059-6.021-1.695-12.158,2.922
		c-6.137,4.618-8.393,6.918-9.764,8.773L1081.018,382.723L1081.018,382.723z M1055.08,319.995c1.698,4.245,2.016,5.943,2.016,5.943
		l0.159-6.792c0,0,2.6,4.51,3.661,8.755c1.061,4.245,0.816,8.042,3.479,9.979c2.663,1.938,7.99,4.843,10.33,8.152
		c2.341,3.309,3.39,4.358,3.39,4.358s-0.804-4.674-4.588-8.824c-3.784-4.15-6.713-5.615-7.384-7.141
		c-0.671-1.526-0.732-2.136-0.732-2.136s1.77,1.037,3.661,2.075c1.891,1.038,3.723,4.028,3.723,4.028s0.609-0.548,0.915-2.929
		c0.306-2.38,0.061-4.333,0.061-4.333s2.197,3.539,3.296,6.591c1.098,3.051,1.281,5.187,1.281,5.187s1.16-4.577,0.488-9.093
		c-0.672-4.516-2.686-9.093-2.686-9.093l-0.122,6.041c0,0-1.587-2.38-3.052-5.553c-1.464-3.173-2.624-5.675-2.624-5.675
		l-0.488,7.079c0,0-1.953-2.379-2.625-4.638c-0.671-2.258-1.281-5.309-1.281-5.309s-1.465,6.408-1.038,9.276
		c0.427,2.868,1.098,4.028,1.098,4.028s-3.356-3.417-4.149-6.408c-0.793-2.991-0.793-9.398-0.793-9.398l-2.197,3.356
		c0,0-3.235-1.221-4.699-4.455c-1.464-3.234-1.523-7.778-1.523-7.778C1048.682,315.159,1051.053,309.925,1055.08,319.995
		L1055.08,319.995z M977.651,333.212c-0.201-1.513-0.561-3.897-0.964-5.105c-0.618-1.854-1.689-3.995-1.689-3.995
		s3.955,4.366,5.479,6.467c1.524,2.101,2.225,3.625,2.225,3.625l-1.319-5.562c0,0,3.419,3.131,4.49,4.573
		c1.071,1.441,2.019,2.883,2.019,2.883l-2.183-7.58c0,0,4.037,2.225,5.684,5.767c1.648,3.543,2.101,5.932,2.101,5.932l-3.831-4.943
		c0,0,0.15,4.185,0.598,6.737c0.448,2.552,0.757,3.224,0.757,3.224s-4.15-4.485-5.075-6.28c-0.925-1.795-1.766-3.673-1.766-3.673
		l0.589,6.953c0,0-1.542-1.822-2.916-3.028c-0.564-0.495-1.176-0.915-1.701-1.237c1.957,3.91,3.755,7.981,5.241,12.11
		c8.637,23.992,10.995,33.846,11.459,43.932c0.464,10.085,0.348,12.171,0.348,12.171s3.013-13.91,2.434-28.399
		c-0.579-14.49-2.318-24.342-2.318-24.342s6.375,19.127,6.607,29.791c0.232,10.664-0.811,18.778-0.811,18.778
		s2.086-1.159,5.68-12.751c3.593-11.592,2.55-22.604,2.55-22.604s1.507,15.88-0.579,27.472c-2.086,11.592-0.904,15.534,1.922,13.898
		c2.826-1.636,4.908-4.015,6.989-13.68c2.081-9.665,1.487-22.155,1.487-22.155s3.123,13.828,2.082,21.858
		c-1.041,8.029-0.446,13.085,1.933,10.706c2.379-2.379,1.784-4.015,2.825-12.044c1.041-8.029,3.122-21.56,3.122-21.56
		s-1.468,23.917-0.258,26.739c1.21,2.822,2.42,2.318,5.646-9.576c3.225-11.895,1.008-28.326,1.008-28.326s4.537,11.795,4.032,22.077
		c-0.504,10.282-0.605,14.817,0.302,14.919c0.907,0.101,3.99-9.594,7.11-17.397c3.121-7.803,6.723-14.406,6.723-14.406
		s-4.081,14.526-5.282,21.248c-1.201,6.722,3.241,8.644,6.482,6.123c3.241-2.521,1.821-4.901,7.354-9.181
		c5.533-4.28,10.96-7.203,10.96-7.203s-9.917,8.142-9.082,12.527c0.835,4.385,4.489,3.654,10.439,5.533
		c5.95,1.879,7.99,0.68,16.969-4.019c8.978-4.698,17.642-12.214,17.642-12.214s-10.231,11.797-15.242,15.137
		c-5.011,3.341-1.723,3.741-0.254,3.294c1.469-0.447,8.944-4.599,8.944-4.599s-4.025,4.281-4.664,4.728
		c-0.639,0.447,5.302,1.15,5.302,1.15l-2.938,2.044c0,0,1.597,0.702,6.708,0.128c5.111-0.575,8.05-2.3,8.05-2.3l-7.092,6.069
		l10.158-1.98c0,0-2.108,2.81-5.75,3.896c-3.642,1.086-5.808-1.018-10.191-2.064c-4.383-1.046-9.015-2.042-9.015-2.042
		s6.176,3.436,13.498,5.379c7.321,1.943,18.43,1.049,26.927-4.676c8.497-5.725,12.569-7.31,12.569-7.31
		s-11.239,12.866-24.375,16.251c-13.136,3.385-28.845-5.958-39.272-9.75c-10.427-3.792-26.001-3.657-37.647,2.302
		c-11.646,5.959-39.128,22.324-57.101,19.833c-17.973-2.491-37.726-16.549-60.504-32.031
		c-22.778-15.482-52.592-27.574-77.384-14.115c-24.792,13.459-27.363,13.425-26.357,11.832c1.006-1.593,25.736-17.185,39.149-19.449
		c13.413-2.263,28.671-3.773,40.491,2.85c11.82,6.623,22.396,11.361,22.396,11.361s-1.079-3.237-5.786-8.043
		c-4.708-4.806-9.024-8.631-9.024-8.631s15.4,11.083,19.322,15.987c3.923,4.904,5.493,6.179,6.375,6.179
		c0.882,0,2.157-1.962-2.649-7.356c-4.806-5.394-7.748-9.415-7.748-9.415s13.437,10.298,19.224,18.439
		c5.787,8.141,7.65,10.985,9.513,11.574c1.863,0.588,2.221,0.208,1.017-10.952c-1.203-11.159-9.846-22.099-9.846-22.099
		s10.066,11.925,13.129,20.896c3.063,8.971,4.375,9.408,5.36,9.299c0.985-0.11,0.766-4.486-2.297-11.378
		c-3.063-6.892-4.266-18.27-4.266-18.27s5.798,18.817,8.971,23.959c3.173,5.142,3.173,7.221,6.126,12.143
		c2.954,4.923,3.392,6.346,4.595,5.251c1.203-1.094,0.765-9.3-0.875-13.894c-1.641-4.594-4.704-9.736-4.704-9.736
		s7.22,9.408,8.752,13.347c1.532,3.939,2.516,5.579,2.516,5.579s1.314-10.174-2.954-23.521c-4.267-13.347-9.956-22.208-9.956-22.208
		s8.096,8.205,13.019,25.053c4.923,16.848,6.455,14.55,6.892,12.8c0.437-1.75-1.641-18.161-2.516-24.834
		c-0.876-6.673-9.09-29.52-14.337-39.648c-5.247-10.128-17.787-30.368-17.787-30.368S968.582,316.685,977.651,333.212
		L977.651,333.212z M909.755,406.222c0,0-5.139,0.282-8.024,5.209c-2.885,4.927-3.73,9.642-3.73,9.642s-0.634-5.982,1.478-9.642
		C901.59,407.77,909.755,406.222,909.755,406.222L909.755,406.222z M904.898,434.868c0,0-1.055-3.519,0.071-8.164
		c1.126-4.645,3.307-7.601,3.307-7.601s-4.646,2.533-5.138,5.701C902.646,427.97,904.898,434.868,904.898,434.868L904.898,434.868z
		 M917.56,441.362c0,0-2.234-5.87-1.039-11.117c1.195-5.246,2.701-7.896,2.701-7.896s-3.636,1.87-4.519,4.416
		c-0.883,2.546-1.87,4.416-1.87,4.416s-0.935-2.545-0.311-4.779c0.623-2.234,1.091-3.637,1.091-3.637s-3.636,0.26-4.623,5.558
		c-0.988,5.299,0.519,8.467,0.519,8.467l0.728-3.688c0,0,2.441,4.883,4.156,6.961c1.714,2.078,3.376,2.649,3.376,2.649
		L917.56,441.362L917.56,441.362z M924.573,442.245c0,0-1.507-5.09-1.455-9.194c0.052-4.104,0.779-6.961,0.779-6.961
		s-2.856,4.468-3.064,7.688C920.625,436.998,924.573,442.245,924.573,442.245L924.573,442.245z M942.603,441.916
		c0,0-0.149,2.293,0.1,4.237c0.249,1.944,1.445,2.94,1.445,2.94s0.05-2.292,0.05-2.741c0-0.449,1.147-0.748,2.093,0.099
		c0.947,0.848,2.641,3.539,2.641,3.539l1.794-3.638c0,0,2.593-0.947,4.187,0.897c1.594,1.844,1.744,2.841,1.744,2.841
		s0.598-2.99-0.249-5.682c-0.848-2.691-2.94-4.685-2.94-4.685s0.996,3.638,0.697,4.186c-0.299,0.548-2.392,0.149-2.591-0.897
		c-0.199-1.046-2.392-4.385-2.392-4.385s-0.698,5.183-1.595,5.831c-0.897,0.648-2.294,0.947-2.791-1.345
		c-0.498-2.293-0.897-4.884-0.897-4.884L942.603,441.916L942.603,441.916z M1180.113,437.021c0,0,3.159,3.167,3.159,5.36
		c0,2.193-2.601,5.357-5.101,6.479c-2.5,1.122-3.827,1.531-3.827,1.531s-0.509-1.938-4.081-5.255
		c-3.572-3.317-6.326-4.796-6.326-4.796s8.723,4.643,10.662,6.072c1.939,1.428,3.724-0.153,3.827-1.224
		c0.102-1.072-3.929-4.592-6.377-6.123c-2.449-1.53-4.132-2.398-4.132-2.398s8.469,4.49,10.662,5.765
		c2.193,1.275,2.703-0.153,2.652-1.174C1181.181,440.239,1180.113,437.021,1180.113,437.021L1180.113,437.021z M1170.421,387.767
		c0,0,9.655,5.959,17.048,15.388c7.392,9.429,8.524,12.221,8.524,12.221s-2.338-8.071-4.375-10.863
		c-2.037-2.791-3.168-4.979-3.168-4.979s7.468,2.414,9.655,6.186c2.188,3.772,2.866,5.054,2.866,5.054l-3.017-8.6l4.375,3.168
		c0,0-2.112-5.356-5.356-9.354c-3.244-3.998-5.733-5.884-5.733-5.884l2.866,5.959l-8.373-6.411l5.507,7.769
		c0,0-5.657-2.564-10.485-5.582C1175.928,388.823,1170.421,387.767,1170.421,387.767L1170.421,387.767z M1180.957,423.661
		c0,0,4.585,3.751,6.807,7.178c2.223,3.427,2.408,5.603,2.408,5.603s-0.235-5.583-1.075-7.194c-0.84-1.611-1.716-2.661-1.716-2.661
		s3.572,0.525,4.938,2.171c1.365,1.646,1.961,2.767,1.961,2.767s-1.051-4.027-1.856-5.603c-0.805-1.576-1.716-2.416-1.716-2.416
		s3.187,0.245,4.272,1.611c1.086,1.366,2.206,2.801,2.206,2.801s-1.721-4.378-4.102-6.97c-2.381-2.592-5.603-3.678-5.603-3.678
		s1.751,2.277,2.662,3.257c0.91,0.98,1.366,1.576,1.366,1.576s-1.541,0.735-3.292-0.07c-1.751-0.805-2.907-1.681-2.907-1.681
		l4.063,4.868c0,0-2.557,0.035-5.008-1.716c-2.451-1.751-8.93-4.168-8.93-4.168L1180.957,423.661L1180.957,423.661z
		 M714.759,462.534c-0.234,0.087-3.315,1.226-7.207,2.574c-1.237,0.389-1.966,0.588-1.966,0.588l0.176,0.027
		c-5.765,1.961-12.543,4.086-14.643,4.01c-3.874-0.138-4.088-2.387-4.764-5.771c-0.677-3.384-0.677-9.248-0.677-9.248
		s-2.631,3.76-2.556,7.745c0.075,3.985-1.278,4.136-2.481,2.858c-1.203-1.279-2.932-3.233-1.955-7.369
		c0.977-4.136,0.602-15.941,0.602-15.941s-1.579,10-2.482,11.053c-0.902,1.053-4.662-6.542-4.587-15.039
		c0.076-8.497,4.329-38.223,19.637-53.785s26.223-24.867,30.99-26.512c4.768-1.645,8.814,1.022,14.111-0.558
		c5.297-1.58,8.457-7.157,15.148-7.528c6.691-0.371,13.568-0.836,13.568-0.836s-7.806-3.252-14.126-2.045s-12.36,4.74-14.591,4.832
		c-2.23,0.093-1.767-3.346,0.464-5.855c2.231-2.509,10.598-19.979,16.989-22.758c6.391-2.779,11.115-5.14,18.618-1.528
		c7.503,3.612,21.953,3.057,33.902-1.806c11.949-4.863,14.855-7.539,17.273-11.823c2.418-4.283,2.763-7.669,6.425-8.636
		c3.662-0.967,11.538,1.521,11.538,1.521s-2.211-2.833-3.8-3.938c-1.589-1.105-3.178-1.727-3.178-1.727s-0.208-1.381,8.566-0.069
		c8.774,1.312,11.814,3.73,11.814,3.73s-4.561-4.974-9.741-7.185c-5.181-2.21-8.774-2.487-8.774-2.487s10.087-0.276,13.333,1.244
		c3.247,1.52,6.079,2.833,6.079,2.833l-4.836-4.214c0,0,4.353-2.349,10.363,1.796c6.01,4.145,7.668,6.563,7.668,6.563
		s-1.589-6.148-4.905-8.566c-3.316-2.418-5.251-2.763-5.251-2.763s5.945,0.038,10.444,2.568c4.498,2.53,8.926,5.763,8.926,5.763
		s-6.044-7.731-11.948-10.824c-5.904-3.092-12.16-1.757-13.495-1.406c-1.335,0.352-2.319,1.757-3.795-1.054
		c-1.476-2.811-4.217-3.444-5.622-5.623c-1.406-2.179,0.084-2.89,1.594-4.736c1.509-1.845,5.424-1.23,9.003-2.013
		c3.579-0.783,11.575-4.809,11.575-4.809s-10.177,3.467-13.42,2.069c-3.243-1.398-1.678-3.468,3.467-5.76
		c5.144-2.292,21.239-8.007,39.159-9.998c17.92-1.991,22.249,0,25.885,2.424c3.635,2.424,6.752,5.8,6.752,5.8l-5.627-8.051
		c0,0,9.114-1.696,14.103,1.812c4.989,3.508,8.497,8.497,8.497,8.497l-1.949-7.873c0,0,4.132,1.638,7.873,6.471
		c3.742,4.833,6.47,9.744,6.47,9.744s-2.884-8.497-4.443-11.147c-1.559-2.651-0.78-3.664-0.079-3.664
		c0.702,0,3.118,3.664,5.223,6.003c2.105,2.339,4.6,4.209,4.6,4.209s-2.104-3.898-2.728-5.769c-0.624-1.871,0.935-2.417,5.067-0.312
		c4.131,2.105,6.394,3.306,11.835,12.272c5.441,8.966,6.131,11.648,6.131,11.648s-1.15-6.437-2.453-9.962
		c-1.302-3.525-0.689-6.591,2.223-3.449c2.912,3.142,8.664,10.436,11.756,17.86c3.093,7.424,8.175,16.306,19.342,22.495
		c11.167,6.189,21.662,10.091,27.178,11.437c5.516,1.345,9.552,1.345,9.552,1.345s-12.109-4.171-13.185-8.745
		c-1.077-4.574,0.672-8.61,5.247-11.84c4.575-3.229,4.305-6.324,8.746-6.996c4.44-0.672,25.797,0.224,39.875-1.545
		c14.079-1.769,21.003-0.615,21.003-0.615s-4.154,3.846-6.078,7.078c-1.923,3.231-3.231,5.924-3.231,5.924s6.77-8.462,12.771-9.924
		c6.001-1.462,13.463,0.923,15.387,2.385c1.923,1.462-0.924,6.847-3.462,8.924c-2.539,2.078-6.17,11.014-6.17,11.014
		s7.302-11.002,12.503-13.003c5.201-2,12.803-0.3,18.004,2.201c5.201,2.5,10.052,5.57,9.857,7.197
		c-0.196,1.627-2.212,4.099-4.75,5.726c-2.538,1.626-5.596,2.602-4.295,2.472c1.302-0.13,7.157-2.538,11.582-3.969
		c4.424-1.431,8.914,2.929,10.345,6.832c1.432,3.904,0.912,5.01,0.521,5.14c-0.391,0.13-17.932,0.349-27.737,6.39
		c-9.805,6.041-14.62,13.482-14.62,13.482s9.28-11.031,29.327-13.832c20.047-2.802,47.288-0.034,58.091,5.579
		c10.803,5.614,17.398,12.315,20.386,19.439c2.987,7.123,3.102,12.753,3.102,12.753s-2.643-7.008-6.549-11.489
		c-3.906-4.481-11.604-7.927-11.604-7.927s8.314,5.463,11.875,12.066c3.562,6.603,3.562,9.817,3.562,9.817s-2.519-4.604-6.341-8.34
		c-3.823-3.735-9.296-5.907-9.296-5.907s7.21,6.168,10.338,12.162c3.127,5.994,3.214,8.167,3.214,8.167s-5.126-7.471-14.422-13.9
		c-9.296-6.429-19.46-8.253-19.46-8.253s27.14,17.774,29.39,23.981c2.25,6.207,2.07,9.176,0.09,11.245
		c-1.979,2.069-2.07,6.568-6.028,4.049c-3.958-2.519-3.149-3.328-5.847-3.599c-2.699-0.27-3.868,0.269-6.568-4.319
		c-2.699-4.588-12.235-13.135-12.235-13.135s4.139,6.298,5.848,9.986c1.709,3.688,3.868,7.466,2.249,6.207
		c-1.619-1.259-6.118-6.478-8.637-9.356c-2.519-2.879-5.668-5.128-5.668-5.128l7.647,12.955c0,0-4.139-6.567-13.405-13.045
		c-9.266-6.478-15.384-8.817-15.384-8.817s14.214,10.616,20.782,17.903c6.567,7.287,8.007,10.436,8.007,10.436
		s2.55,1.783,1.216,9.899c-1.334,8.116-7.619,17.579-9.508,23.027c-1.89,5.448-4.78,8.673-5.448,9.673
		c-0.667,1-0.223-3.113-6.893-11.118c-6.671-8.005-21.964-15.255-21.964-15.255s20.03,13.941,21.921,21.946
		c1.89,8.005-2.929,13.9-8.866,15.291c-5.937,1.391-11.874,2.413-14.008,1.021c-2.134-1.392-1.021-3.154-1.021-6.123
		c0-2.969-1.763-6.123-1.763-6.123s0.278,5.009-2.412,4.546c-2.69-0.463-2.783,0.185-4.917-4.546
		c-2.134-4.731-10.02-10.576-10.02-10.576s7.979,11.318,5.01,16.791c-2.969,5.473-12.617,2.319-18.833-2.319
		c-6.216-4.638-26.639-10.899-30.088-11.65l-0.002-0.001c-12.175-5.342-30.512-12.317-43.496-12.445
		c-21.082-0.206-38.237,1.653-48.572,8.681c-10.335,7.028-29.143,18.602-43.612,21.289c-14.469,2.688-20.815,1.256-22.36-0.834
		c-1.545-2.091-2.636-15.272-2.182-17.454c0.455-2.182,1.636-5.545,1.636-5.545s-3.182,4.727-3.273,12.909
		c-0.091,8.182-1.637,10.818-3.637,9.727c-2-1.09-7.909-3.091-10.727-2.546c-2.818,0.546-15.188-0.803-20.346-5.961
		c-5.158-5.158-12.264-16.074-15.095-28.89c-2.831-12.816-7.004-18.031-13.561-19.67c-6.557-1.64-14.008,5.067-22.204,7.898
		c-8.196,2.831-12.835,5.194-16.182,5.397c-3.346,0.203-4.361-2.434-4.462-5.273c-0.102-2.839,0.811-5.172,0.811-5.172
		s-2.84,5.07-2.84,9.329c0,4.26-0.913,4.361-6.997,6.085c-6.084,1.724-21.621,4.61-34.214,4.433
		c-12.593-0.177-27.31,5.818-33.833,10.815c-6.523,4.997-7.772,5.691-11.798,7.635s-5.552,6.662-8.606,11.937
		c-3.054,5.275-10.688,13.186-16.379,15.546c-0.366,0.152-0.727,0.299-1.084,0.442L714.759,462.534L714.759,462.534z
		 M924.952,760.37c0,0,8.722,8.338,11.801,13.34c3.078,5.002,5.516,12.057,5.516,12.057s-2.647-11.29-4.964-16.009
		C934.987,765.039,924.952,760.37,924.952,760.37L924.952,760.37z M953.094,743.358c0,0,2.49,12.173,5.118,18.536
		c2.629,6.363,4.012,7.885,4.012,7.885l-2.628-11.619c0,0,1.798,4.012,5.81,9.821c4.012,5.81,8.577,8.991,8.577,8.991
		s-5.395-10.236-8.715-18.259c-3.32-8.024-5.119-14.94-5.119-14.94l0.83,12.726c0,0-2.775-2.432-4.504-6.161
		C954.747,746.608,953.094,743.358,953.094,743.358L953.094,743.358z M950.278,638.692c0,0-0.78,11.701,0.52,20.671
		c1.3,8.97,1.82,14.56,1.82,14.56s-3.689-9.227-4.8-17.689C946.707,647.772,950.278,638.692,950.278,638.692L950.278,638.692z
		 M927.23,655.186c0,0,5.262,29.644,10.7,51.22c5.438,21.575,7.894,27.539,7.894,27.539l-3.379-19.715l5.155,7.89
		c0,0-1.263-5.365-3.366-16.621c-2.104-11.256-1.788-18.094-1.788-18.094l-1.367,18.199L927.23,655.186L927.23,655.186z
		 M902.587,763.291c0,0,7.533,12.071,17.907,23.286c10.374,11.215,13.038,12.617,13.038,12.617s-11.635-6.449-19.767-15.982
		C905.633,773.68,902.587,763.291,902.587,763.291L902.587,763.291z M970.368,630.925c8.698,3.256,18.563,7.112,24.826,11.568
		c10.053,7.153,19.055,18.068,15.997,51.322c-2.627,28.569-13.914,62.118-22.614,77.576c-3.423-6.325-16.314-31.765-22.343-66.531
		C960.501,671.799,967.626,640.938,970.368,630.925L970.368,630.925z M883.944,624.666c0,0-1.792,7.994-0.689,21.914
		c1.103,13.92,1.792,18.468,1.792,18.468s-4.824-11.99-5.513-21.362C878.845,634.313,883.944,624.666,883.944,624.666
		L883.944,624.666z M920.585,585.006c0,0-0.511,11.58,0.51,24.693s1.873,19.074,1.873,19.074s-4.389-15.017-5.073-22.991
		S920.585,585.006,920.585,585.006L920.585,585.006z M807.112,444.092c0,0,9.965,7.167,21.049,18.587
		c11.085,11.421,12.652,16.907,12.652,16.907s-10.749-13.66-19.818-22.057C811.927,449.131,807.112,444.092,807.112,444.092
		L807.112,444.092z M836.447,445.659c0,0,7.726,6.718,12.205,15.34c4.478,8.622,5.15,12.092,5.15,12.092
		s-6.157-11.533-10.637-17.243C838.686,450.138,836.447,445.659,836.447,445.659L836.447,445.659z M845.85,470.755
		c0,0,10.452,15.132,15.288,35.724c4.836,20.593,10.133,37.308,12.374,48.136s2.427,21.283,2.427,21.283s-2.987-22.217-7.281-33.045
		c-4.294-10.828-9.147-30.804-11.201-38.832C855.402,495.995,845.85,470.755,845.85,470.755L845.85,470.755z M856.32,478.185
		c0,0,5.351,8.914,8.939,21.024c3.588,12.11,3.925,16.707,3.925,16.707s-3.7-14.575-6.391-20.518
		C860.101,489.454,856.32,478.185,856.32,478.185L856.32,478.185z M855.99,458.915c0,0,20.506,57.418,23.436,70.894
		c2.929,13.476,5.859,20.703,5.859,20.703l-1.983-14.531c0,0,4.167,17.063,5.066,26.566c0.899,9.503,0.385,15.539,0.385,15.539
		s-3.338-14.641-7.448-30.564c-4.11-15.924-12.035-45.318-17.279-59.808C858.783,473.223,855.99,458.915,855.99,458.915
		L855.99,458.915z M872.861,482.78c0,0,4.761,13.671,6.347,22.825c1.587,9.154,1.953,13.06,1.953,13.06s-3.72-15.633-6.488-25.14
		c-2.768-9.507-5.26-14.767-5.26-14.767L872.861,482.78L872.861,482.78z M885.617,459.442c0,0,9.041,35.606,12.011,58.809
		c2.97,23.204,5.012,47.707,5.012,47.707s-0.001-27.103-3.898-55.689C894.845,481.682,885.617,459.442,885.617,459.442
		L885.617,459.442z M863.37,446.518c0,0,13.13,28.497,18.202,50.28c5.072,21.783,7.758,39.537,7.758,39.537
		s-6.471-42.641-9.856-55.051C876.089,468.875,863.37,446.518,863.37,446.518L863.37,446.518z M1113.687,572.447
		c0,0-4.817,6.084-6.148,11.536c-1.331,5.451-1.204,8.24-1.204,8.24s-1.648-5.134,0.063-11.346
		C1108.109,574.665,1113.687,572.447,1113.687,572.447L1113.687,572.447z M992.988,596.862c0,0,1.191-0.238,4.367,4.844
		c3.177,5.082,4.288,8.099,4.288,8.099s-0.905-5.501-2.382-8.501C997.785,598.304,992.988,596.862,992.988,596.862L992.988,596.862z
		 M1055.397,565.151c0,0,3.611,7.96,8.268,11.706c4.657,3.746,6.125,5.467,6.125,5.467s-1.721-4.86-4.1-7.593
		C1063.311,571.998,1055.397,565.151,1055.397,565.151L1055.397,565.151z M1048.682,568.859c0,0,2.379,8.1,5.265,10.935
		c2.885,2.834,4.505,3.948,4.505,3.948s-6.126-1.418-8.454-6.277C1047.669,572.605,1048.682,568.859,1048.682,568.859
		L1048.682,568.859z M1184.952,603.495c-1.149,1.949-3.118,4.161-6.349,6.585c-6.848,5.135-12.887,7.985-17.671,9.89
		c1.456-2.47,3.755-6.13,6.213-9.125c4.126-5.026,6.227-6.901,6.227-6.901s-7.652,5.402-12.303,11.103
		c-2.418,2.964-4.004,5.238-4.97,6.739c-1.665,0.609-3.054,1.132-4.128,1.683c-4.429,2.271-5.792,3.18-5.792,3.18
		s3.407-8.062,8.063-13.967c4.655-5.905,15.103-13.059,15.103-13.059s-10.009,5.975-17.713,11.959
		c1.017-2.252,1.658-4.7,2.043-6.563l0.038-0.057c3.346-5.096,5.476-9.431,10.191-10.724c4.715-1.293,10.724-0.076,10.724-0.076
		s0.761-1.293-0.837-2.13c-1.597-0.836-10.04-2.433-15.06,1.445c-5.02,3.879-10.419,12.017-13.462,16.124
		c-3.043,4.107-8.519,10.572-13.843,11.637c-5.324,1.065-7.149,0.076-12.625-0.532c-5.476-0.609-10.116,2.586-15.44,3.271
		c-5.324,0.685-10.793-2.379-13.85-4.786c-3.057-2.407-6.83,0.521-8.066-1.691c-1.236-2.212-3.773-7.156-12.1-11.124
		c-8.326-3.968-23.861-10.323-27.713-13.177c-3.852-2.854-9.344-4.565-15.836-5.707c-6.492-1.142-10.914-3.209-17.334-4.28
		c-6.42-1.07-24.681,8.999-29.765,14.287c-5.084,5.288-3.356,7.423-9.151,8.541c-5.795,1.119-14.743-1.932-19.115-5.389
		c-2.855-2.257-4.561-6.06-4.646-10.469c1.875,0.92,5.57,2.625,8.085,3.078c3.494,0.629,11.25-0.629,17.887-2.166
		c6.638-1.537,9.719-6.834,15.378-13.189c5.66-6.355,11.617-4.666,16.085-2.581c4.468,2.085,13.802,2.978,21.248,3.972
		c7.447,0.993,16.681,6.453,23.035,9.234s13.371,3.963,23.023,5.758c9.652,1.795,15.6,5.724,20.651,7.856
		c5.051,2.133,13.131,3.592,19.192,2.469c6.061-1.122,9.231-0.855,15.388-2.104c6.157-1.249,15.793-6.781,20.254-12.492
		c4.461-5.71,7.673-4.907,16.596-6.871c8.923-1.964,17.221,3.391,21.235,9.28C1185.87,595.401,1186.675,600.215,1184.952,603.495
		L1184.952,603.495z M945.897,587.754c0.18-1.619,0.573-3.292,1.199-4.978c2.146-5.784,8.29-13.118,12.087-16.625
		c0.078-0.038,6.236-3.055,10.786-3.834c0.554-0.077,1.021-0.136,1.358-0.177c4.348-0.409,9.609,0.435,14.378-0.459
		c5.275-0.99,7.528-2.742,14.014-6.59c6.487-3.848,14.952-4.728,19.46-3.298c4.508,1.429,9.565,0.33,18.47,0.33
		c8.906,0,19.899,3.464,28.09,9.836c8.192,6.372,24.105,12.093,28.899,10.723s10.426-6.925,18.036-13.013
		c7.61-6.088,11.872-4.795,21.309-5.556c9.437-0.761,10.045,1.142,12.632,4.033c2.588,2.892,1.605,3.745,4.624,8.085
		c3.019,4.34,7.296,12.265,7.107,12.831s-4.403,1.887-9.561,3.145c-5.158,1.258-8.847,8.693-10.92,10.279
		c-2.073,1.586-3.05,0.916-5.734-2.745c-2.683-3.66,0.549-12.2,0.549-12.2s-4.636,6.893-3.66,12.81
		c0.975,5.917,3.355,5.795,3.355,5.795s-0.61,0.793-2.562,0.854c-1.952,0.061-4.453-0.732-7.198-4.269
		c-2.745-3.538-1.708-8.175-1.708-8.175s-1.098,4.514-1.098,7.93c0,3.416,0.245,6.589,0.245,6.589s-1.22-1.526-2.38-5.429
		c-1.159-3.904,0.976-10.248,0.976-10.248s-2.501,3.66-3.172,5.734c-0.671,2.074-0.915,5.673-0.915,5.673s-1.22-2.928-0.549-9.882
		c0.671-6.954,6.1-14.579,6.1-14.579s-2.928,2.135-5.246,5.49c-2.318,3.355-5.139,10.011-5.278,15.638
		c-0.139,5.627,3.644,9.731,3.644,9.731s-4.289-0.461-7.103-2.952c-2.814-2.49-3.643-11.853-3.643-11.853s-0.83,3.782-0.323,7.241
		c0.507,3.459,1.384,3.921,1.384,3.921s-5.028-1.43-9.732-3.874c-4.704-2.444-6.515-10.677-6.515-10.677s-0.375,5.16,1.032,8.585
		c1.408,3.425,3.237,6.146,3.237,6.146s-1.173-0.281-3.706-1.548c-2.534-1.266-2.815-3.19-4.55-6.239
		c-1.736-3.049-6.474-4.316-6.474-4.316s4.034,3.941,4.738,5.301c0.704,1.36-1.173,2.252-3.003,1.924
		c-1.83-0.328-4.243-2.722-8.89-7.41c-4.647-4.689-14.315-8.672-14.315-8.672s4.315,3.07,8.88,7.219
		c4.564,4.149,6.473,6.597,6.473,6.597s-2.572-0.29-6.141-0.871c-3.569-0.581-4.896-1.121-7.842-2.034
		c-2.946-0.913-11.795-3.811-14.614-6.555c-2.82-2.744-5.678-4.23-5.678-4.23l1.296,3.277c0,0-1.48-1.035-4.008-3.429
		c-2.528-2.393-12.099-6.404-12.099-6.404s3.37,1.888,5.898,4.179c2.528,2.291,3.067,4.314,3.067,4.314s-1.853-1.179-4.517-2.022
		c-2.663-0.843-3.471-2.089-5.19-2.999c-1.719-0.91-6.134-5.696-6.134-5.696s1.618,3.034,2.696,4.685
		c1.079,1.652,1.989,2.629,1.989,2.629s-0.978-0.169-3.842-0.607c-2.864-0.438-8.732-1.553-13.463-3.481
		c-4.731-1.928-8.017-2.322-13.23,0.789c-5.213,3.11-6.959,7.468-9.624,9.26c-2.665,1.792-4.594-0.689-8.086-1.746
		c-3.492-1.057-10.154,1.103-10.154,1.103s4.503-0.184,7.811,0.413c3.308,0.597,4.778,1.792,5.835,3.814
		c1.057,2.021-4.41,3.629-7.994,3.537c-3.584-0.092-5.33-0.735-4.365-1.378c0.965-0.643,7.673-1.24,7.673-1.24
		s-1.562-0.46-3.997-0.643c-2.435-0.183-6.157,0.827-7.811,1.47c-1.654,0.643-8.5-0.138-8.5-0.138s3.078,0.597,5.789,1.424
		c2.711,0.827,3.768,2.114,3.768,2.114s-2.022,0.689-6.064,0.367C950.376,590.276,947.43,588.695,945.897,587.754L945.897,587.754z
		 M1023.481,671.464c0,0,2.131,8.748,1.458,19.064c-0.673,10.317-2.916,18.055-2.916,18.055s5.159-11.998,6.28-20.522
		C1029.425,679.538,1023.481,671.464,1023.481,671.464L1023.481,671.464z M995.395,786.103c0,0-11.767,8.355-13.415,17.416
		c-1.648,9.061-0.471,13.768-0.471,13.768s-3.662-4.163-4.359-10.353c-0.696-6.19,3.637-10.059,8.125-13.696
		C989.764,789.601,995.395,786.103,995.395,786.103L995.395,786.103z M1013.156,825.304c0,0-3.627,2.224-12.428,1.983
		c-8.801-0.242-14.652-3.723-14.652-3.723s11.46,2.515,17.747,2.031S1013.156,825.304,1013.156,825.304L1013.156,825.304z
		 M1009.088,803.437c0,0-1.408,4.283-6.481,7.608c-5.073,3.325-8.623,4.283-8.623,4.283s7.664-4.508,9.693-7.552
		C1005.706,804.732,1009.088,803.437,1009.088,803.437L1009.088,803.437z M1030.856,803.475c0,0-7.537,7.467-13.691,9.265
		c-6.154,1.798-10.234,2.351-10.234,2.351s12.497-5.005,16.725-7.87C1027.884,804.357,1030.856,803.475,1030.856,803.475
		L1030.856,803.475z M1041.849,802.049c0,0-5.363,6.835-11.462,10.726c-6.099,3.891-11.041,5.889-11.041,5.889
		s11.511-7.513,16.144-11.8C1040.121,802.576,1041.849,802.049,1041.849,802.049L1041.849,802.049z M1076.711,715.649
		c0,0-2.082,6.339-3.501,11.828c-1.419,5.488-1.987,10.219-1.987,10.219s-0.252-8.339,0.433-12.819
		C1072.34,720.397,1076.711,715.649,1076.711,715.649L1076.711,715.649z M1080.067,748.767c0,0-0.216,2.154-2.801,6.39
		c-2.585,4.237-3.877,5.888-3.877,5.888s3.93-2.425,5.341-5.683C1080.142,752.104,1080.067,748.767,1080.067,748.767
		L1080.067,748.767z M1077.518,727.079c0,0-8.744,26.315-16.907,39.502c-8.163,13.186-14.819,19.842-14.819,19.842
		s14.726-11.236,21.934-26.525C1074.933,744.608,1077.518,727.079,1077.518,727.079L1077.518,727.079z M1125.24,610.077
		c0,0,1.727,1.67,2.116,3.898c0.39,2.227,0.222,3.563,0.222,3.563s1.504-3.341,1.393-4.844
		C1128.86,611.19,1125.24,610.077,1125.24,610.077L1125.24,610.077z M1119.618,610.634c0,0,1.113,1.225,1.336,3.842
		c0.223,2.617,0.167,3.842,0.167,3.842s1.615-2.004,1.671-4.065C1122.847,612.192,1119.618,610.634,1119.618,610.634
		L1119.618,610.634z M1106.526,633.417c0,0-2.656,3.902-5.396,11.872c-2.74,7.971-4.484,12.205-4.484,12.205
		s5.251-10.826,7.435-15.63S1106.526,633.417,1106.526,633.417L1106.526,633.417z M1082.674,630.801c0,0-3.914,26.16-7.829,41.054
		c-3.914,14.894-5.538,18.522-5.538,18.522s6.875-16.803,10.121-29.692c3.246-12.889,5.251-19.955,5.251-19.955
		s-0.382,11.744-2.005,18.618c-1.623,6.874-3.723,14.226-3.723,14.226s6.588-16.804,8.688-26.351
		c2.1-9.547,3.437-12.985,3.532-14.225c0.096-1.241-3.723,0.192-5.155-0.859C1084.584,631.087,1082.674,630.801,1082.674,630.801
		L1082.674,630.801z M1069.622,633.253c0,0-1.262,31.313-4.292,44.571c-3.031,13.258-4.798,19.445-4.798,19.445
		s6.581-16.63,8.586-30.76C1071.122,652.378,1069.622,633.253,1069.622,633.253L1069.622,633.253z M1064.122,616.535
		c0,0,1.133,33.41-3.02,53.419c-4.153,20.009-6.229,27.182-6.229,27.182s8.816-28.403,10.204-46.332
		C1066.466,632.874,1064.122,616.535,1064.122,616.535L1064.122,616.535z M1051.376,612.448c0,0,3.282,21.666,1.477,43.332
		c-1.805,21.666-2.79,27.246-2.79,27.246s4.658-28.587,4.885-41.832C1055.174,627.95,1051.376,612.448,1051.376,612.448
		L1051.376,612.448z M1143.669,619.141c-8.443,10.195-22.043,31.894-26.56,40.436c-5.223,9.879-18.197,38.75-23.194,57.7
		c-4.997,18.95-9.32,39.215-15.588,49.383c-6.268,10.168-23.68,31.341-28.694,35.659c-5.015,4.318-8.218,6.965-8.218,6.965
		s13.372-8.637,21.59-17.969c8.218-9.333,10.865-12.258,10.865-12.258s-24.792,42.172-49.351,48.922
		c-24.559,6.75-44.523,3.016-49.118-7.755c-4.596-10.772-5.746-17.521,3.303-26.57c9.049-9.048,21.777-30.732,31.149-60.097
		c9.372-29.365,10.861-61.423,8.474-73.904c-2.386-12.481-12.186-18.967-21.278-24.488c-9.092-5.521-31.338-15.426-35.234-17.861
		c-3.897-2.435-5.033-6.17-5.033-6.17s5.913,2.127,9.008,2.234c3.096,0.106,12.705,4.164,20.178,9.395
		c7.474,5.231,11.424,9.075,11.424,9.075s-8.434-9.182-14.413-13.559s-10.249-5.445-10.783-6.299
		c-0.534-0.854,4.057-3.203,5.658-2.563c1.601,0.64,24.769,17.937,30.427,26.264c5.658,8.327,7.9,13.025,9.715,15.053
		c1.815,2.028,4.698,7.26,6.833,11.317c2.136,4.057,3.096,6.406,3.096,6.406s-0.32-4.698-0.641-7.046
		c-0.32-2.349-0.854-9.822-1.281-14.52c-0.427-4.698-2.719-10.543-2.719-10.543s1.032,6.428,0.952,12.698
		c-0.079,6.269-1.19,4.365-1.666,3.571c-0.476-0.793-3.174-4.205-3.333-5.634c-0.159-1.429,0.318-4.682-3.175-15.396
		c-3.492-10.714-11.031-19.999-11.031-19.999s6.905,14.206,8.175,20.713c1.269,6.507-0.476,6.031-1.826,3.174
		c-1.349-2.857-6.446-7.813-7.135-9.125c-0.689-1.312,0.207-2.001,0.138-3.313c-0.069-1.312-0.758-3.381-7.108-9.8
		c-6.35-6.418-9.731-7.523-9.731-7.523s8.143,6.005,11.249,11.388c3.106,5.383,3.865,7.385,2.899,7.316
		c-0.966-0.069-7.177-6.005-12.077-10.421c-4.9-4.417-9.939-6.625-11.043-8.074c-1.104-1.45,5.129-7.616,11.649-11.583
		c6.52-3.968,10.488-4.819,13.7,0.473s8.341,13.403,11.645,21.62c3.304,8.217,4.829,13.808,4.829,13.808s-3.304-15.503-8.895-26.177
		c-5.591-10.674-7.817-14.479-6.768-15.678c1.049-1.2,10.866-1.5,13.115,0.374c2.249,1.874,3.672,4.422,5.171,12.067
		c1.5,7.644,2.998,16.787,2.998,16.787s-4.347-11.092-7.494-17.162c-3.148-6.071-6.445-9.593-6.445-9.593
		s12.879,28.923,16.344,45.885c3.465,16.961,6.659,43.009,7.608,53.582c0.949,10.574,0.949,15.319,0.949,15.319
		s0-38.228-1.898-55.852c-1.898-17.624-9.574-50.067-10.391-52.878c-0.816-2.811,5.894-5.078,6.801-2.086
		c0.906,2.993,11.322,37.563,12.491,57.753c1.168,20.19,1.713,37.78,1.713,37.78s1.855-31.884-0.654-48.847
		c-2.509-16.963-8.733-38.543-9.034-41.254c-0.301-2.71,1.707-2.81,2.71,0.602c1.003,3.413,1.807,6.524,1.807,6.524
		s-0.402-7.327,0.401-8.532c0.803-1.204,2.007-0.301,3.112,8.933c1.105,9.235,1.707,18.168,1.707,18.168s-0.704-22.383,0.602-24.19
		c1.305-1.807,9.937,2.208,11.042,4.818c1.104,2.61,1.807,10.64,1.807,10.64s-1.003-6.223,3.413-6.324
		c4.416-0.101,10.979,2.293,11.758,7.453c0.779,5.16,0.779,10.223,1.461,14.799c0.682,4.576,1.266,8.081,1.266,8.081
		s-0.195-4.577,0.974-10.905c1.168-6.328,4.284-7.788,7.107-6.328c2.823,1.461,13.511,3.809,14.323,4.519
		c0.812,0.711-2.841,16.641-4.566,23.947c-1.724,7.306-4.666,15.879-7.893,25.224c-3.227,9.345-7.788,18.468-7.788,18.468
		s10.569-19.914,16.688-42.055c6.119-22.14,7.342-25.033,9.79-25.478c2.448-0.445,9.346,1.001,9.346,2.67
		s-7.343,10.791-11.015,20.359c-3.671,9.568-4.45,13.685-5.896,17.801c-1.447,4.116-3.894,8.455-3.894,8.455l4.895-5.34
		c0,0-8.155,19.397-10.596,25.557c-2.441,6.161-7.207,12.205-7.207,12.205s11.042-12.205,17.319-27.547s15.333-31.941,19.407-37.589
		c4.074-5.648,10.463-12.593,10.463-12.593s-9.258,7.592-13.796,13.333c-4.537,5.741-6.018,6.482-5.648,5.741
		c0.37-0.741,2.685-7.963,6.296-14.814c3.611-6.852,5.926-7.315,5.926-7.315l-1.759,7.037c0,0,3.381-8.884,7.228-9.739
		c3.846-0.855,7.621-0.357,10.115-2.209c1.654-1.228,2.774-2.81,3.525-4.196C1141.568,619.902,1142.74,619.404,1143.669,619.141
		L1143.669,619.141z"/>
</g>
</svg>
