<svg width="441" height="301" viewBox="0 0 441 301" fill="none" xmlns="http://www.w3.org/2000/svg">
<path d="M79.2027 129.364L79.2027 171.5H76.4427L76.4427 135.129L60.2507 171.5H58.0427L41.7893 135.129L41.7893 171.5H39.0293L39.0293 129.364H41.9733L59.1467 167.881L76.32 129.364L79.2027 129.364ZM104.184 171.929C101.118 171.929 98.3578 171.255 95.9045 169.905C93.4512 168.515 91.5089 166.552 90.0778 164.017C88.6876 161.441 87.9925 158.416 87.9925 154.94C87.9925 151.464 88.6876 148.459 90.0778 145.924C91.5089 143.348 93.4512 141.385 95.9045 140.036C98.3578 138.646 101.118 137.951 104.184 137.951C107.251 137.951 110.011 138.646 112.465 140.036C114.918 141.385 116.84 143.348 118.23 145.924C119.62 148.459 120.315 151.464 120.315 154.94C120.315 158.416 119.62 161.441 118.23 164.017C116.84 166.552 114.918 168.515 112.465 169.905C110.011 171.255 107.251 171.929 104.184 171.929ZM104.184 170.825C106.842 170.825 109.296 170.253 111.545 169.108C113.793 167.922 115.613 166.144 117.003 163.772C118.393 161.4 119.089 158.456 119.089 154.94C119.089 151.424 118.393 148.48 117.003 146.108C115.613 143.736 113.793 141.978 111.545 140.833C109.296 139.648 106.842 139.055 104.184 139.055C101.527 139.055 99.0529 139.648 96.7632 140.833C94.5143 141.978 92.6947 143.757 91.3045 146.169C89.9143 148.541 89.2192 151.464 89.2192 154.94C89.2192 158.416 89.9143 161.36 91.3045 163.772C92.6947 166.144 94.5143 167.922 96.7632 169.108C99.0529 170.253 101.527 170.825 104.184 170.825ZM143.895 171.929C140.829 171.929 138.069 171.255 135.615 169.905C133.162 168.515 131.22 166.552 129.789 164.017C128.399 161.441 127.703 158.416 127.703 154.94C127.703 151.464 128.399 148.459 129.789 145.924C131.22 143.348 133.162 141.385 135.615 140.036C138.069 138.646 140.829 137.951 143.895 137.951C146.962 137.951 149.722 138.646 152.175 140.036C154.629 141.385 156.551 143.348 157.941 145.924C159.331 148.459 160.026 151.464 160.026 154.94C160.026 158.416 159.331 161.441 157.941 164.017C156.551 166.552 154.629 168.515 152.175 169.905C149.722 171.255 146.962 171.929 143.895 171.929ZM143.895 170.825C146.553 170.825 149.007 170.253 151.255 169.108C153.504 167.922 155.324 166.144 156.714 163.772C158.104 161.4 158.799 158.456 158.799 154.94C158.799 151.424 158.104 148.48 156.714 146.108C155.324 143.736 153.504 141.978 151.255 140.833C149.007 139.648 146.553 139.055 143.895 139.055C141.238 139.055 138.764 139.648 136.474 140.833C134.225 141.978 132.406 143.757 131.015 146.169C129.625 148.541 128.93 151.464 128.93 154.94C128.93 158.416 129.625 161.36 131.015 163.772C132.406 166.144 134.225 167.922 136.474 169.108C138.764 170.253 141.238 170.825 143.895 170.825ZM167.414 154.94C167.414 151.464 168.089 148.459 169.438 145.924C170.788 143.348 172.689 141.385 175.142 140.036C177.596 138.646 180.397 137.951 183.545 137.951C187.348 137.951 190.557 138.952 193.174 140.956C195.832 142.919 197.611 145.433 198.51 148.5L198.51 126.113H199.676L199.676 171.5H198.51L198.51 161.319C197.611 164.426 195.832 166.982 193.174 168.985C190.557 170.948 187.348 171.929 183.545 171.929C180.397 171.929 177.596 171.255 175.142 169.905C172.689 168.515 170.788 166.552 169.438 164.017C168.089 161.441 167.414 158.416 167.414 154.94ZM198.51 154.94C198.51 151.792 197.856 149.032 196.548 146.66C195.28 144.248 193.501 142.387 191.212 141.079C188.963 139.729 186.407 139.055 183.545 139.055C180.519 139.055 177.882 139.688 175.633 140.956C173.425 142.224 171.708 144.064 170.481 146.476C169.254 148.848 168.641 151.669 168.641 154.94C168.641 158.211 169.254 161.053 170.481 163.465C171.708 165.837 173.425 167.656 175.633 168.924C177.882 170.192 180.519 170.825 183.545 170.825C186.407 170.825 188.963 170.171 191.212 168.863C193.501 167.513 195.28 165.653 196.548 163.281C197.856 160.869 198.51 158.088 198.51 154.94ZM250.085 129.364L250.085 171.5H247.325L247.325 135.129L231.133 171.5H228.925L212.672 135.129L212.672 171.5L209.912 171.5L209.912 129.364H212.856L230.029 167.881L247.203 129.364H250.085ZM274.822 170.825C278.543 170.825 281.671 169.885 284.206 168.004C286.741 166.123 288.274 163.547 288.806 160.276H290.033C289.46 163.752 287.825 166.573 285.126 168.74C282.468 170.866 279.034 171.929 274.822 171.929C271.755 171.929 269.016 171.255 266.603 169.905C264.191 168.556 262.29 166.593 260.899 164.017C259.55 161.441 258.875 158.416 258.875 154.94C258.875 151.464 259.55 148.439 260.899 145.863C262.29 143.287 264.191 141.324 266.603 139.975C269.016 138.625 271.755 137.951 274.822 137.951C278.052 137.951 280.812 138.646 283.102 140.036C285.392 141.385 287.109 143.144 288.254 145.311C289.44 147.478 290.033 149.768 290.033 152.18C290.033 153.652 290.012 154.756 289.971 155.492L260.102 155.492C260.143 158.886 260.838 161.728 262.187 164.017C263.578 166.307 265.377 168.024 267.585 169.169C269.793 170.273 272.205 170.825 274.822 170.825ZM274.822 139.055C272.205 139.055 269.793 139.627 267.585 140.772C265.377 141.876 263.578 143.573 262.187 145.863C260.838 148.152 260.143 150.994 260.102 154.388L288.929 154.388C289.133 150.994 288.581 148.152 287.273 145.863C286.005 143.573 284.247 141.876 281.998 140.772C279.79 139.627 277.398 139.055 274.822 139.055ZM371.243 148.5C372.143 145.433 373.901 142.919 376.518 140.956C379.176 138.952 382.406 137.951 386.209 137.951C389.357 137.951 392.158 138.646 394.611 140.036C397.065 141.385 398.966 143.348 400.315 145.924C401.665 148.459 402.339 151.464 402.339 154.94C402.339 158.416 401.665 161.441 400.315 164.017C398.966 166.552 397.065 168.515 394.611 169.905C392.158 171.255 389.357 171.929 386.209 171.929C382.406 171.929 379.176 170.948 376.518 168.985C373.901 166.982 372.143 164.447 371.243 161.38V187.079H370.078L370.078 138.38H371.243V148.5ZM401.113 154.94C401.113 151.669 400.499 148.848 399.273 146.476C398.046 144.064 396.308 142.224 394.059 140.956C391.851 139.688 389.234 139.055 386.209 139.055C383.346 139.055 380.77 139.729 378.481 141.079C376.232 142.387 374.453 144.248 373.145 146.66C371.877 149.032 371.243 151.792 371.243 154.94C371.243 158.088 371.877 160.869 373.145 163.281C374.453 165.653 376.232 167.513 378.481 168.863C380.77 170.171 383.346 170.825 386.209 170.825C389.234 170.825 391.851 170.192 394.059 168.924C396.308 167.656 398.046 165.837 399.273 163.465C400.499 161.053 401.113 158.211 401.113 154.94Z" fill="#504B4B"/>
<g filter="url(#filter0_d_2260_26)">
<path d="M313.948 172.145C313.553 172.615 312.85 172.678 312.395 172.265C308.248 168.499 305.302 163.581 303.943 158.129C302.493 152.317 302.922 146.195 305.166 140.64C307.41 135.086 311.354 130.385 316.435 127.211C321.515 124.036 327.47 122.551 333.445 122.969C339.421 123.387 345.111 125.686 349.7 129.537C354.289 133.387 357.542 138.592 358.991 144.404C360.44 150.217 360.012 156.339 357.768 161.893C355.663 167.103 352.061 171.562 347.43 174.715C346.922 175.061 346.235 174.901 345.909 174.38L332.278 152.565C331.878 151.924 330.968 151.861 330.482 152.44L313.948 172.145Z" fill="#F2F2F2"/>
<path d="M347.118 174.256C346.883 174.416 346.547 174.35 346.381 174.085L332.749 152.27C332.149 151.309 330.785 151.214 330.056 152.082L313.522 171.787C313.32 172.027 312.979 172.045 312.769 171.853C308.703 168.161 305.815 163.34 304.483 157.995C303.062 152.296 303.481 146.294 305.681 140.849C307.881 135.403 311.749 130.795 316.73 127.682C321.71 124.57 327.548 123.115 333.407 123.524C339.265 123.934 344.844 126.188 349.343 129.963C353.842 133.738 357.031 138.84 358.452 144.539C359.872 150.237 359.452 156.239 357.252 161.684C355.189 166.792 351.658 171.165 347.118 174.256Z" stroke="#F2F2F2" stroke-width="1.11242"/>
</g>
<g filter="url(#filter1_d_2260_26)">
<path d="M358.021 144.8C358.628 144.655 359.238 145.037 359.344 145.653C360.284 151.099 359.598 156.749 357.36 161.889C354.968 167.383 350.927 172.012 345.814 175.115C340.702 178.218 334.782 179.634 328.902 179.161C323.022 178.687 317.484 176.349 313.082 172.481C308.68 168.612 305.64 163.413 304.397 157.627C303.155 151.841 303.774 145.766 306.165 140.273C308.557 134.779 312.598 130.15 317.711 127.047C322.494 124.144 327.985 122.717 333.489 122.933C334.112 122.958 334.571 123.511 334.508 124.132L331.921 149.522C331.844 150.284 332.542 150.895 333.287 150.716L358.021 144.8Z" fill="#E5F2D9"/>
<path d="M333.467 123.489C333.754 123.5 333.987 123.759 333.955 124.075L331.368 149.466C331.251 150.609 332.298 151.525 333.416 151.257L358.15 145.341C358.46 145.267 358.747 145.464 358.796 145.748C359.717 151.085 359.045 156.625 356.85 161.667C354.504 167.055 350.54 171.597 345.526 174.64C340.512 177.682 334.708 179.07 328.947 178.606C323.185 178.143 317.76 175.851 313.449 172.063C309.138 168.274 306.158 163.18 304.941 157.51C303.723 151.839 304.329 145.883 306.675 140.494C309.021 135.106 312.986 130.565 318 127.523C322.691 124.675 328.074 123.277 333.467 123.489Z" stroke="#E5F2D9" stroke-width="1.11242"/>
</g>
<g filter="url(#filter2_d_2260_26)">
<path d="M349.752 130.389C350.147 129.918 350.85 129.855 351.305 130.268C355.452 134.035 358.398 138.952 359.757 144.404C361.207 150.217 360.778 156.339 358.534 161.893C356.29 167.447 352.346 172.148 347.265 175.323C342.185 178.497 336.23 179.982 330.255 179.564C324.279 179.146 318.589 176.847 314 172.997C309.411 169.146 306.159 163.942 304.709 158.129C303.26 152.317 303.688 146.194 305.932 140.64C308.037 135.43 311.639 130.971 316.27 127.818C316.778 127.472 317.465 127.633 317.791 128.154L331.422 149.968C331.822 150.609 332.732 150.673 333.218 150.094L349.752 130.389Z" fill="#504B4B"/>
</g>
<path d="M320.698 161.737L317.997 164.438" stroke="white" stroke-width="2.25667" stroke-miterlimit="10" stroke-linecap="round"/>
<path d="M342.412 161.737L345.113 164.438" stroke="white" stroke-width="2.25667" stroke-miterlimit="10" stroke-linecap="round"/>
<path d="M346.875 150.866L350.712 150.866" stroke="white" stroke-width="2.25667" stroke-miterlimit="10" stroke-linecap="round"/>
<path d="M312.403 150.866L316.239 150.866" stroke="white" stroke-width="2.25667" stroke-miterlimit="10" stroke-linecap="round"/>
<path d="M331.556 170.046L331.556 166.21" stroke="white" stroke-width="2.25667" stroke-miterlimit="10" stroke-linecap="round"/>
<path d="M325.549 156.799L330.644 148.704C330.853 148.415 331.106 148.162 331.395 147.954C332.092 147.467 332.954 147.276 333.792 147.42C334.63 147.564 335.377 148.033 335.871 148.725C336.365 149.417 336.567 150.275 336.432 151.114C336.296 151.954 335.836 152.706 335.149 153.207L327.051 158.3C326.867 158.428 326.648 158.497 326.423 158.497C326.199 158.497 325.98 158.428 325.796 158.3C325.565 158.133 325.409 157.882 325.363 157.601C325.316 157.319 325.384 157.031 325.549 156.799Z" fill="white"/>
<defs>
<filter id="filter0_d_2260_26" x="298.65" y="122.9" width="65.6327" height="60.8979" filterUnits="userSpaceOnUse" color-interpolation-filters="sRGB">
<feFlood flood-opacity="0" result="BackgroundImageFix"/>
<feColorMatrix in="SourceAlpha" type="matrix" values="0 0 0 0 0 0 0 0 0 0 0 0 0 0 0 0 0 0 127 0" result="hardAlpha"/>
<feOffset dy="4.44967"/>
<feGaussianBlur stdDeviation="2.22484"/>
<feComposite in2="hardAlpha" operator="out"/>
<feColorMatrix type="matrix" values="0 0 0 0 0 0 0 0 0 0 0 0 0 0 0 0 0 0 0.25 0"/>
<feBlend mode="normal" in2="BackgroundImageFix" result="effect1_dropShadow_2260_26"/>
<feBlend mode="normal" in="SourceGraphic" in2="effect1_dropShadow_2260_26" result="shape"/>
</filter>
<filter id="filter1_d_2260_26" x="299.322" y="122.912" width="64.881" height="65.2371" filterUnits="userSpaceOnUse" color-interpolation-filters="sRGB">
<feFlood flood-opacity="0" result="BackgroundImageFix"/>
<feColorMatrix in="SourceAlpha" type="matrix" values="0 0 0 0 0 0 0 0 0 0 0 0 0 0 0 0 0 0 127 0" result="hardAlpha"/>
<feOffset dy="4.44967"/>
<feGaussianBlur stdDeviation="2.22484"/>
<feComposite in2="hardAlpha" operator="out"/>
<feColorMatrix type="matrix" values="0 0 0 0 0 0 0 0 0 0 0 0 0 0 0 0 0 0 0.25 0"/>
<feBlend mode="normal" in2="BackgroundImageFix" result="effect1_dropShadow_2260_26"/>
<feBlend mode="normal" in="SourceGraphic" in2="effect1_dropShadow_2260_26" result="shape"/>
</filter>
<filter id="filter2_d_2260_26" x="299.417" y="127.635" width="65.6327" height="60.898" filterUnits="userSpaceOnUse" color-interpolation-filters="sRGB">
<feFlood flood-opacity="0" result="BackgroundImageFix"/>
<feColorMatrix in="SourceAlpha" type="matrix" values="0 0 0 0 0 0 0 0 0 0 0 0 0 0 0 0 0 0 127 0" result="hardAlpha"/>
<feOffset dy="4.44967"/>
<feGaussianBlur stdDeviation="2.22484"/>
<feComposite in2="hardAlpha" operator="out"/>
<feColorMatrix type="matrix" values="0 0 0 0 0 0 0 0 0 0 0 0 0 0 0 0 0 0 0.25 0"/>
<feBlend mode="normal" in2="BackgroundImageFix" result="effect1_dropShadow_2260_26"/>
<feBlend mode="normal" in="SourceGraphic" in2="effect1_dropShadow_2260_26" result="shape"/>
</filter>
</defs>
</svg>
