<svg width="201" height="36" viewBox="0 0 201 36" fill="none" xmlns="http://www.w3.org/2000/svg">
<path fill-rule="evenodd" clip-rule="evenodd" d="M69.6861 6.5005H75.0673V22.3602C75.0673 27.5974 78.1971 30.7395 82.308 30.7395C86.4612 30.7395 89.5447 27.5974 89.5447 22.3612V6.5005H94.9269V23.4988C94.9269 30.0998 89.9777 35.7402 82.307 35.7402C74.6353 35.7402 69.6871 30.0998 69.6871 23.4988V6.5005H69.6861ZM124.797 35.1262V6.5005H119.475V24.3617L103.853 6.5005H100.947V35.0768H106.268V17.2917L121.856 35.1262H124.797ZM131.166 35.0778H136.69V6.5005H131.166V35.0778ZM156.769 31.2219C151.261 31.2219 146.795 26.5514 146.795 20.7907C146.795 15.0259 151.261 10.3554 156.769 10.3554C162.276 10.3554 166.741 15.0248 166.741 20.7907C166.741 22.7583 166.219 24.6003 165.312 26.1729L162.011 22.8693L158.508 26.3704L161.884 29.748C160.386 30.684 158.638 31.2219 156.769 31.2219ZM172.126 20.7907C172.126 12.3898 165.252 5.58203 156.769 5.58203C148.288 5.58203 141.411 12.3898 141.411 20.7907C141.411 29.1865 148.288 35.9983 156.769 35.9983C159.996 35.9983 162.988 35.0089 165.459 33.3252L167.966 35.8307L171.467 32.3286L169.055 29.9147C170.982 27.3722 172.126 24.2136 172.126 20.7907ZM182.25 24.9963L186.543 14.7183L190.704 24.9963H182.25ZM194.785 35.0768H200.678L188.505 6.5005H184.8L172.306 35.0768H178.041L180.29 29.6956H192.608L194.786 35.0768H194.785ZM19.55 34.6633H0L2.24217 30.6706H13.7255C14.2295 31.1355 14.7541 31.5788 15.2961 31.9954C16.5838 32.9868 18.0114 33.9135 19.55 34.6633ZM23.8554 5.67665C23.2239 6.20634 19.1859 14.0591 24.1537 20.9676C25.5545 22.9166 27.6002 25.2915 29.9998 26.6831C32.4949 28.1312 34.1622 28.4984 35.2318 28.7895C37.1161 29.3027 40.035 29.5135 43.7953 29.7172C46.8397 29.8818 53.0745 29.9178 54.1627 29.9147L55.3239 29.9198L57.9919 35.0048C57.9919 35.0048 48.9347 35.0459 44.724 34.8176C39.9887 34.5625 36.3107 34.2951 33.9369 33.6502C32.5896 33.2841 30.4904 32.8202 27.3452 30.9967C24.3244 29.2441 21.2265 26.177 19.6179 23.6171C15.7425 17.4419 16.7154 13.298 17.2246 11.2636C18.3302 9.73004 19.7588 8.25823 21.3006 7.16595C22.4175 6.36165 23.1138 6.04692 23.8554 5.67665Z" fill="#005CA9"/>
<path fill-rule="evenodd" clip-rule="evenodd" d="M30.1281 34.3463C28.9762 34.5654 27.8551 34.6651 26.8081 34.6651C22.9779 34.6579 19.3719 32.8621 16.3933 30.5716C12.8213 27.8204 10.2099 23.9963 9.54751 19.8329C9.45083 19.3485 9.40661 18.8558 9.33564 18.1688C9.07131 15.3167 9.48066 11.7303 11.4801 8.30118C13.2121 5.33494 15.7896 2.7657 20.0394 0.988428C21.8126 0.246868 25.6191 -0.589316 30.0263 0.584221C34.6577 1.85958 38.7049 4.73223 41.3091 8.50585C41.3091 8.50585 37.3144 3.31493 30.4819 2.71839C30.1734 2.69371 29.8648 2.67725 29.5542 2.67211C26.1786 2.60423 22.9511 3.76645 20.2616 5.69903C18.5409 6.91988 17.031 8.45751 15.8626 10.2276C15.7978 10.3243 15.5911 10.6287 15.3175 11.1142L15.2352 11.2582C15.1786 11.362 15.119 11.4742 15.0583 11.5924C14.2293 13.1794 13.0722 16.0192 13.0249 19.6077C12.9663 24.2278 15.0377 27.5591 15.8143 28.6823C15.8348 28.7131 17.7612 30.0142 20.6791 30.5706C21.8619 30.7948 22.9758 30.8339 23.9251 30.8082C24.7253 31.4521 25.5708 32.0424 26.445 32.5515C27.8613 33.3743 29.0821 33.9369 30.1271 34.3463" fill="#005CA9"/>
<path fill-rule="evenodd" clip-rule="evenodd" d="M37.5749 7.28125C40.0948 8.77774 43.7213 13.4709 43.8879 17.7361C44.1554 21.809 42.1117 25.7843 40.7479 27.7282C38.5386 27.5698 36.8642 27.3723 35.702 27.0565C35.342 26.9588 34.9069 26.8529 34.3906 26.6914C35.8377 25.3595 37.9904 22.8489 39.0827 18.993C40.5895 13.6138 39.1023 9.95642 37.5749 7.28125Z" fill="#005CA9"/>
</svg>
